<svg width="100" height="100" xmlns="http://www.w3.org/2000/svg"><path d="M50 0c27.612 0 50 22.388 50 50s-22.388 50-50 50S0 77.612 0 50 22.388 0 50 0zm0 5C25.149 5 5 25.149 5 50s20.149 45 45 45 45-20.149 45-45S74.851 5 50 5zm11.787 21.258c-3.074-.141-4-.166-11.787-.166-7.787 0-8.708.029-11.783.166-7.913.363-11.596 4.109-11.959 11.959-.137 3.075-.17 3.996-.17 11.783 0 7.787.033 8.708.17 11.787.363 7.83 4.03 11.596 11.959 11.959 3.07.137 3.996.17 11.783.17 7.792 0 8.713-.028 11.787-.17 7.913-.358 11.592-4.117 11.959-11.959.137-3.074.166-4 .166-11.787 0-7.787-.029-8.708-.166-11.783-.367-7.846-4.054-11.596-11.959-11.959zM50 64.98c-8.27 0-14.98-6.704-14.98-14.979 0-8.27 6.71-14.975 14.98-14.975S64.98 41.729 64.98 50c0 8.27-6.71 14.98-14.98 14.98zm15.57-27.046a3.5 3.5 0 1 1 0-6.999 3.5 3.5 0 0 1 0 7zM59.72 50c0-5.37-4.353-9.72-9.72-9.72-5.367 0-9.72 4.35-9.72 9.72 0 5.37 4.353 9.72 9.72 9.72 5.367 0 9.72-4.35 9.72-9.72zm19.272 12.025c-.48 10.604-6.384 16.48-16.963 16.967-3.112.141-4.108.175-12.029.175-7.92 0-8.912-.034-12.025-.175-10.6-.488-16.48-6.371-16.967-16.967-.141-3.108-.175-4.104-.175-12.025 0-7.92.034-8.912.175-12.025.488-10.6 6.371-16.48 16.967-16.962 3.113-.146 4.104-.18 12.025-.18 7.92 0 8.917.034 12.03.18 10.603.487 16.487 6.383 16.962 16.962.141 3.113.175 4.104.175 12.025 0 7.92-.034 8.917-.175 12.025z" fill="#F15A50" fill-rule="nonzero"/></svg>