<svg xmlns="http://www.w3.org/2000/svg" width="100" height="100" viewBox="0 0 100 100">
  <path fill="#C2D300" d="M50,0 C77.612,0 100,22.388 100,50 C100,77.612 77.612,100 50,100 C22.388,100 0,77.612 0,50 C0,22.388 22.388,0 50,0 Z M50,5 C25.149,5 5,25.149 5,50 C5,74.851 25.149,95 50,95 C74.851,95 95,74.851 95,50 C95,25.149 74.851,5 50,5 Z M61.787,26.258 C58.713,26.117 57.787,26.092 50,26.092 C42.213,26.092 41.292,26.121 38.217,26.258 C30.304,26.621 26.621,30.367 26.258,38.217 C26.121,41.292 26.088,42.213 26.088,50 C26.088,57.787 26.121,58.708 26.258,61.787 C26.621,69.617 30.288,73.383 38.217,73.746 C41.287,73.883 42.213,73.916 50,73.916 C57.792,73.916 58.713,73.888 61.787,73.746 C69.7,73.388 73.379,69.629 73.746,61.787 C73.883,58.713 73.912,57.787 73.912,50 C73.912,42.213 73.883,41.292 73.746,38.217 C73.379,30.371 69.692,26.621 61.787,26.258 Z M50,64.98 C41.73,64.98 35.02,58.276 35.02,50.001 C35.02,41.731 41.73,35.026 50,35.026 C58.27,35.026 64.98,41.729 64.98,50 C64.98,58.27 58.27,64.98 50,64.98 Z M65.57,37.934 C64.3056495,37.9553737 63.1280866,37.2930869 62.4896607,36.2015506 C61.8512348,35.1100143 61.8512348,33.7589857 62.4896607,32.6674494 C63.1280866,31.5759131 64.3056495,30.9136263 65.57,30.935 C67.5029966,30.935 69.07,32.5020034 69.07,34.435 C69.07,36.3679966 67.5029966,37.935 65.57,37.935 L65.57,37.934 Z M59.72,50 C59.72,44.63 55.367,40.28 50,40.28 C44.633,40.28 40.28,44.63 40.28,50 C40.28,55.37 44.633,59.72 50,59.72 C55.367,59.72 59.72,55.37 59.72,50 Z M78.992,62.025 C78.512,72.629 72.608,78.505 62.029,78.992 C58.917,79.133 57.921,79.167 50,79.167 C42.08,79.167 41.088,79.133 37.975,78.992 C27.375,78.504 21.495,72.621 21.008,62.025 C20.867,58.917 20.833,57.921 20.833,50 C20.833,42.08 20.867,41.088 21.008,37.975 C21.496,27.375 27.379,21.495 37.975,21.013 C41.088,20.867 42.079,20.833 50,20.833 C57.92,20.833 58.917,20.867 62.03,21.013 C72.633,21.5 78.517,27.396 78.992,37.975 C79.133,41.088 79.167,42.079 79.167,50 C79.167,57.92 79.133,58.917 78.992,62.025 Z"/>
</svg>
