<svg xmlns="http://www.w3.org/2000/svg" width="100" height="100" viewBox="0 0 100 100">
  <path fill="#C2D300" d="M50,0 C77.613,0 100,22.388 100,50 C100,77.612 77.613,100 50,100 C22.387,100 0,77.612 0,50 C0,22.388 22.387,0 50,0 Z M50,5 C25.149,5 5,25.149 5,50 C5,74.851 25.149,95 50,95 C74.851,95 95,74.851 95,50 C95,25.149 74.851,5 50,5 Z M75.275,40.188 C76.037,57.021 63.483,75.788 41.258,75.788 C34.7545313,75.7932528 28.3871352,73.9254926 22.917,70.408 C29.2452649,71.1666137 35.6161394,69.3850991 40.633,65.454 C35.4,65.358 30.979,61.896 29.45,57.142 C31.33,57.5 33.18,57.396 34.858,56.937 C29.104,55.779 25.129,50.596 25.258,45.05 C26.9201036,45.9732001 28.7786584,46.4860941 30.679,46.546 C25.35,42.983 23.842,35.946 26.975,30.566 C32.875,37.808 41.695,42.571 51.642,43.071 C49.896,35.588 55.575,28.375 63.304,28.375 C66.742,28.375 69.854,29.829 72.037,32.155 C74.7179026,31.628699 77.2885654,30.6460969 79.637,29.25 C78.74301,32.0213241 76.8731435,34.3737598 74.375,35.87 C76.795,35.58 79.105,34.938 81.245,33.983 C79.6449795,36.3940319 77.6224924,38.4961312 75.275,40.188 Z"/>
</svg>
