<?xml version="1.0" encoding="UTF-8"?>
<svg width="1920px" height="1080px" viewBox="0 0 1920 1080" version="1.1" xmlns="http://www.w3.org/2000/svg" xmlns:xlink="http://www.w3.org/1999/xlink">
    <!-- Generator: Sketch 49.3 (51167) - http://www.bohemiancoding.com/sketch -->
    <title>application-data-flow</title>
    <desc>Created with Sketch.</desc>
    <defs>
        <polygon id="path-1" points="0 0 1920 0 1920 1079.96997 0 1079.96997"></polygon>
        <polygon id="path-3" points="71.8247 0 1721.33 0 1721.33 923 71.8247 923"></polygon>
    </defs>
    <g id="application-data-flow" stroke="none" stroke-width="1" fill="none" fill-rule="evenodd">
        <g id="Group">
            <mask id="mask-2" fill="white">
                <use xlink:href="#path-1"></use>
            </mask>
            <g id="Clip-2"></g>
            <mask id="mask-4" fill="white">
                <use xlink:href="#path-3"></use>
            </mask>
            <g id="Clip-4"></g>
            <path d="M128.4575,170.105 C131.787517,166.864984 133.4525,162.27503 133.4525,156.335 C133.4525,150.39497 131.787517,145.827516 128.4575,142.6325 C125.127483,139.437484 121.302521,137.84 116.9825,137.84 C112.662478,137.84 108.837517,139.459984 105.5075,142.7 C102.177483,145.940016 100.5125,150.52997 100.5125,156.47 C100.5125,162.41003 102.177483,166.977484 105.5075,170.1725 C108.837517,173.367516 112.662478,174.965 116.9825,174.965 C121.302521,174.965 125.127483,173.345016 128.4575,170.105 Z M87.0124999,184.145 C80.3524666,176.944964 77.0224999,167.720056 77.0224999,156.47 C77.0224999,145.219944 80.3524666,135.972536 87.0124999,128.7275 C93.6725332,121.482464 101.794952,117.86 111.38,117.86 C120.965048,117.86 128.322474,121.414964 133.4525,128.525 L133.4525,118.67 L156.5375,118.67 L156.5375,194 L133.4525,194 L133.4525,183.065 C127.872472,190.98504 120.402547,194.945 111.0425,194.945 C101.682453,194.945 93.6725332,191.345036 87.0124999,184.145 Z M231.0475,170.24 C234.377517,166.999984 236.0425,162.41003 236.0425,156.47 C236.0425,150.52997 234.377517,145.940016 231.0475,142.7 C227.717483,139.459984 223.892522,137.84 219.5725,137.84 C215.252478,137.84 211.427517,139.437484 208.0975,142.6325 C204.767483,145.827516 203.1025,150.39497 203.1025,156.335 C203.1025,162.27503 204.767483,166.864984 208.0975,170.105 C211.427517,173.345016 215.252478,174.965 219.5725,174.965 C223.892522,174.965 227.717483,173.390016 231.0475,170.24 Z M203.1025,128.525 C208.232526,121.414964 215.589952,117.86 225.175,117.86 C234.760048,117.86 242.882467,121.482464 249.5425,128.7275 C256.202533,135.972536 259.5325,145.219944 259.5325,156.47 C259.5325,167.720056 256.202533,176.944964 249.5425,184.145 C242.882467,191.345036 234.827547,194.945 225.3775,194.945 C215.927453,194.945 208.502527,190.98504 203.1025,183.065 L203.1025,229.91 L180.0175,229.91 L180.0175,118.67 L203.1025,118.67 L203.1025,128.525 Z M328.5075,170.24 C331.837517,166.999984 333.5025,162.41003 333.5025,156.47 C333.5025,150.52997 331.837517,145.940016 328.5075,142.7 C325.177483,139.459984 321.352522,137.84 317.0325,137.84 C312.712478,137.84 308.887517,139.437484 305.5575,142.6325 C302.227483,145.827516 300.5625,150.39497 300.5625,156.335 C300.5625,162.27503 302.227483,166.864984 305.5575,170.105 C308.887517,173.345016 312.712478,174.965 317.0325,174.965 C321.352522,174.965 325.177483,173.390016 328.5075,170.24 Z M300.5625,128.525 C305.692526,121.414964 313.049952,117.86 322.635,117.86 C332.220048,117.86 340.342467,121.482464 347.0025,128.7275 C353.662533,135.972536 356.9925,145.219944 356.9925,156.47 C356.9925,167.720056 353.662533,176.944964 347.0025,184.145 C340.342467,191.345036 332.287547,194.945 322.8375,194.945 C313.387453,194.945 305.962527,190.98504 300.5625,183.065 L300.5625,229.91 L277.4775,229.91 L277.4775,118.67 L300.5625,118.67 L300.5625,128.525 Z M374.9375,194 L374.9375,94.1 L398.0225,94.1 L398.0225,194 L374.9375,194 Z M442.5625,110.165 C439.952487,112.775013 436.757519,114.08 432.9775,114.08 C429.197481,114.08 426.002513,112.775013 423.3925,110.165 C420.782487,107.554987 419.4775,104.337519 419.4775,100.5125 C419.4775,96.6874809 420.782487,93.470013 423.3925,90.86 C426.002513,88.2499869 429.197481,86.945 432.9775,86.945 C436.757519,86.945 439.952487,88.2499869 442.5625,90.86 C445.172513,93.470013 446.4775,96.6874809 446.4775,100.5125 C446.4775,104.337519 445.172513,107.554987 442.5625,110.165 Z M421.5025,194 L421.5025,118.67 L444.5875,118.67 L444.5875,194 L421.5025,194 Z M472.9275,184.415 C465.997465,177.394965 462.5325,168.035058 462.5325,156.335 C462.5325,144.634941 466.019965,135.297535 472.995,128.3225 C479.970035,121.347465 488.992445,117.86 500.0625,117.86 C509.242546,117.86 517.027468,120.132477 523.4175,124.6775 C529.807532,129.222523 534.03749,135.724958 536.1075,144.185 L511.1325,144.185 C508.972489,139.684978 505.440025,137.435 500.535,137.435 C495.629975,137.435 491.985012,139.167483 489.6,142.6325 C487.214988,146.097517 486.0225,150.664972 486.0225,156.335 C486.0225,162.005028 487.214988,166.572483 489.6,170.0375 C491.985012,173.502517 495.472477,175.235 500.0625,175.235 C502.942514,175.235 505.192492,174.740005 506.8125,173.75 C508.432508,172.759995 509.872494,171.005013 511.1325,168.485 L536.1075,168.485 C534.03749,176.58504 529.762532,183.019976 523.2825,187.79 C516.802468,192.560024 509.062545,194.945 500.0625,194.945 C488.992445,194.945 479.947535,191.435035 472.9275,184.415 Z M598.1975,170.105 C601.527517,166.864984 603.1925,162.27503 603.1925,156.335 C603.1925,150.39497 601.527517,145.827516 598.1975,142.6325 C594.867483,139.437484 591.042522,137.84 586.7225,137.84 C582.402478,137.84 578.577517,139.459984 575.2475,142.7 C571.917483,145.940016 570.2525,150.52997 570.2525,156.47 C570.2525,162.41003 571.917483,166.977484 575.2475,170.1725 C578.577517,173.367516 582.402478,174.965 586.7225,174.965 C591.042522,174.965 594.867483,173.345016 598.1975,170.105 Z M556.7525,184.145 C550.092467,176.944964 546.7625,167.720056 546.7625,156.47 C546.7625,145.219944 550.092467,135.972536 556.7525,128.7275 C563.412533,121.482464 571.534952,117.86 581.12,117.86 C590.705048,117.86 598.062474,121.414964 603.1925,128.525 L603.1925,118.67 L626.2775,118.67 L626.2775,194 L603.1925,194 L603.1925,183.065 C597.612472,190.98504 590.142547,194.945 580.7825,194.945 C571.422453,194.945 563.412533,191.345036 556.7525,184.145 Z M681.7525,174.425 L689.9875,174.425 L689.9875,194 L678.2425,194 C669.782458,194 663.235023,192.132519 658.6,188.3975 C653.964977,184.662481 651.6475,178.250045 651.6475,169.16 L651.6475,137.84 L644.6275,137.84 L644.6275,118.67 L651.6475,118.67 L651.6475,100.31 L674.7325,100.31 L674.7325,118.67 L689.8525,118.67 L689.8525,137.84 L674.7325,137.84 L674.7325,169.16 C674.7325,172.670018 677.072477,174.425 681.7525,174.425 Z M730.0725,110.165 C727.462487,112.775013 724.267519,114.08 720.4875,114.08 C716.707481,114.08 713.512513,112.775013 710.9025,110.165 C708.292487,107.554987 706.9875,104.337519 706.9875,100.5125 C706.9875,96.6874809 708.292487,93.470013 710.9025,90.86 C713.512513,88.2499869 716.707481,86.945 720.4875,86.945 C724.267519,86.945 727.462487,88.2499869 730.0725,90.86 C732.682513,93.470013 733.9875,96.6874809 733.9875,100.5125 C733.9875,104.337519 732.682513,107.554987 730.0725,110.165 Z M709.0125,194 L709.0125,118.67 L732.0975,118.67 L732.0975,194 L709.0125,194 Z M800.8025,170.375 C803.862515,167.134984 805.3925,162.455031 805.3925,156.335 C805.3925,150.214969 803.817516,145.557516 800.6675,142.3625 C797.517484,139.167484 793.782522,137.57 789.4625,137.57 C785.142478,137.57 781.430016,139.167484 778.325,142.3625 C775.219985,145.557516 773.6675,150.214969 773.6675,156.335 C773.6675,162.455031 775.264984,167.134984 778.46,170.375 C781.655016,173.615016 785.412478,175.235 789.7325,175.235 C794.052522,175.235 797.742485,173.615016 800.8025,170.375 Z M761.5175,184.28 C753.957462,177.169964 750.1775,167.810058 750.1775,156.2 C750.1775,144.589942 753.957462,135.297535 761.5175,128.3225 C769.077538,121.347465 778.437444,117.86 789.5975,117.86 C800.757556,117.86 810.094962,121.347465 817.61,128.3225 C825.125038,135.297535 828.8825,144.589942 828.8825,156.2 C828.8825,167.810058 825.147537,177.169964 817.6775,184.28 C810.207463,191.390036 800.892556,194.945 789.7325,194.945 C778.572444,194.945 769.167538,191.390036 761.5175,184.28 Z M870.0475,118.67 L870.0475,129.74 C874.817524,121.81996 882.422448,117.86 892.8625,117.86 C901.502543,117.86 908.499973,120.739971 913.855,126.5 C919.210027,132.260029 921.8875,140.08995 921.8875,149.99 L921.8875,194 L898.9375,194 L898.9375,153.095 C898.9375,148.234976 897.655013,144.477513 895.09,141.8225 C892.524987,139.167487 888.992523,137.84 884.4925,137.84 C879.992478,137.84 876.460013,139.167487 873.895,141.8225 C871.329987,144.477513 870.0475,148.234976 870.0475,153.095 L870.0475,194 L846.9625,194 L846.9625,118.67 L870.0475,118.67 Z M231.9825,331.105 C235.312517,327.864984 236.9775,323.27503 236.9775,317.335 C236.9775,311.39497 235.312517,306.827516 231.9825,303.6325 C228.652483,300.437484 224.827522,298.84 220.5075,298.84 C216.187478,298.84 212.362517,300.459984 209.0325,303.7 C205.702483,306.940016 204.0375,311.52997 204.0375,317.47 C204.0375,323.41003 205.702483,327.977484 209.0325,331.1725 C212.362517,334.367516 216.187478,335.965 220.5075,335.965 C224.827522,335.965 228.652483,334.345016 231.9825,331.105 Z M190.5375,345.145 C183.877467,337.944964 180.5475,328.720056 180.5475,317.47 C180.5475,306.219944 183.877467,296.972536 190.5375,289.7275 C197.197533,282.482464 205.319952,278.86 214.905,278.86 C224.490048,278.86 231.847474,282.414964 236.9775,289.525 L236.9775,255.1 L260.0625,255.1 L260.0625,355 L236.9775,355 L236.9775,344.065 C231.397472,351.98504 223.927547,355.945 214.5675,355.945 C205.207453,355.945 197.197533,352.345036 190.5375,345.145 Z M329.4425,331.105 C332.772517,327.864984 334.4375,323.27503 334.4375,317.335 C334.4375,311.39497 332.772517,306.827516 329.4425,303.6325 C326.112483,300.437484 322.287522,298.84 317.9675,298.84 C313.647478,298.84 309.822517,300.459984 306.4925,303.7 C303.162483,306.940016 301.4975,311.52997 301.4975,317.47 C301.4975,323.41003 303.162483,327.977484 306.4925,331.1725 C309.822517,334.367516 313.647478,335.965 317.9675,335.965 C322.287522,335.965 326.112483,334.345016 329.4425,331.105 Z M287.9975,345.145 C281.337467,337.944964 278.0075,328.720056 278.0075,317.47 C278.0075,306.219944 281.337467,296.972536 287.9975,289.7275 C294.657533,282.482464 302.779952,278.86 312.365,278.86 C321.950048,278.86 329.307474,282.414964 334.4375,289.525 L334.4375,279.67 L357.5225,279.67 L357.5225,355 L334.4375,355 L334.4375,344.065 C328.857472,351.98504 321.387547,355.945 312.0275,355.945 C302.667453,355.945 294.657533,352.345036 287.9975,345.145 Z M412.9975,335.425 L421.2325,335.425 L421.2325,355 L409.4875,355 C401.027458,355 394.480023,353.132519 389.845,349.3975 C385.209977,345.662481 382.8925,339.250045 382.8925,330.16 L382.8925,298.84 L375.8725,298.84 L375.8725,279.67 L382.8925,279.67 L382.8925,261.31 L405.9775,261.31 L405.9775,279.67 L421.0975,279.67 L421.0975,298.84 L405.9775,298.84 L405.9775,330.16 C405.9775,333.670018 408.317477,335.425 412.9975,335.425 Z M486.1575,331.105 C489.487517,327.864984 491.1525,323.27503 491.1525,317.335 C491.1525,311.39497 489.487517,306.827516 486.1575,303.6325 C482.827483,300.437484 479.002522,298.84 474.6825,298.84 C470.362478,298.84 466.537517,300.459984 463.2075,303.7 C459.877483,306.940016 458.2125,311.52997 458.2125,317.47 C458.2125,323.41003 459.877483,327.977484 463.2075,331.1725 C466.537517,334.367516 470.362478,335.965 474.6825,335.965 C479.002522,335.965 482.827483,334.345016 486.1575,331.105 Z M444.7125,345.145 C438.052467,337.944964 434.7225,328.720056 434.7225,317.47 C434.7225,306.219944 438.052467,296.972536 444.7125,289.7275 C451.372533,282.482464 459.494952,278.86 469.08,278.86 C478.665048,278.86 486.022474,282.414964 491.1525,289.525 L491.1525,279.67 L514.2375,279.67 L514.2375,355 L491.1525,355 L491.1525,344.065 C485.572472,351.98504 478.102547,355.945 468.7425,355.945 C459.382453,355.945 451.372533,352.345036 444.7125,345.145 Z M583.0775,255.1 L606.1625,255.1 L606.1625,355 L583.0775,355 L583.0775,255.1 Z M561.0725,276.835 L561.0725,279.67 L570.6575,279.67 L570.6575,298.84 L561.0725,298.84 L561.0725,355 L537.9875,355 L537.9875,298.84 L530.9675,298.84 L530.9675,279.67 L537.9875,279.67 L537.9875,276.835 C537.9875,267.294952 540.529975,260.320022 545.615,255.91 C550.700025,251.499978 558.687446,249.295 569.5775,249.295 L569.5775,268.87 C566.517485,268.87 564.335007,269.454994 563.03,270.625 C561.724993,271.795006 561.0725,273.864985 561.0725,276.835 Z M674.8675,331.375 C677.927515,328.134984 679.4575,323.455031 679.4575,317.335 C679.4575,311.214969 677.882516,306.557516 674.7325,303.3625 C671.582484,300.167484 667.847522,298.57 663.5275,298.57 C659.207478,298.57 655.495016,300.167484 652.39,303.3625 C649.284985,306.557516 647.7325,311.214969 647.7325,317.335 C647.7325,323.455031 649.329984,328.134984 652.525,331.375 C655.720016,334.615016 659.477478,336.235 663.7975,336.235 C668.117522,336.235 671.807485,334.615016 674.8675,331.375 Z M635.5825,345.28 C628.022462,338.169964 624.2425,328.810058 624.2425,317.2 C624.2425,305.589942 628.022462,296.297535 635.5825,289.3225 C643.142538,282.347465 652.502444,278.86 663.6625,278.86 C674.822556,278.86 684.159962,282.347465 691.675,289.3225 C699.190038,296.297535 702.9475,305.589942 702.9475,317.2 C702.9475,328.810058 699.212537,338.169964 691.7425,345.28 C684.272463,352.390036 674.957556,355.945 663.7975,355.945 C652.637444,355.945 643.232538,352.390036 635.5825,345.28 Z M805.6725,279.67 L827.4075,279.67 L804.8625,355 L780.0225,355 L769.4925,310.45 L758.8275,355 L733.9875,355 L711.4425,279.67 L734.5275,279.67 L746.2725,332.59 L757.8825,279.67 L782.3175,279.67 L793.9275,332.59 L805.6725,279.67 Z" id="application-dataflow" fill="#F15A50" mask="url(#mask-4)"></path>
            <path d="M461.335,653 L239.664,653 C217.299,653 199,634.701 199,612.335 L199,521.665 C199,499.299 217.299,481 239.664,481 L461.335,481 C483.701,481 502,499.299 502,521.665 L502,612.335 C502,634.701 483.701,653 461.335,653" id="Fill-5" fill="#BABAB9" mask="url(#mask-4)"></path>
            <path d="M283.382,550.664 C284.270004,549.799996 284.714,548.576008 284.714,546.992 C284.714,545.407992 284.270004,544.184004 283.382,543.32 C282.493996,542.455996 281.474006,542.024 280.322,542.024 C279.169994,542.024 278.150004,542.449996 277.262,543.302 C276.373996,544.154004 275.93,545.371992 275.93,546.956 C275.93,548.540008 276.373996,549.763996 277.262,550.628 C278.150004,551.492004 279.169994,551.924 280.322,551.924 C281.474006,551.924 282.493996,551.504004 283.382,550.664 Z M275.93,539.54 C277.298007,537.643991 279.259987,536.696 281.816,536.696 C284.372013,536.696 286.537991,537.66199 288.314,539.594 C290.090009,541.52601 290.978,543.991985 290.978,546.992 C290.978,549.992015 290.090009,552.45199 288.314,554.372 C286.537991,556.29201 284.390013,557.252 281.87,557.252 C279.349987,557.252 277.370007,556.196011 275.93,554.084 L275.93,557 L269.774,557 L269.774,530.36 L275.93,530.36 L275.93,539.54 Z M309.346,536.912 L315.502,536.912 L315.502,557 L309.346,557 L309.346,554.048 C308.073994,556.160011 306.046014,557.216 303.262,557.216 C300.957988,557.216 299.092007,556.448008 297.664,554.912 C296.235993,553.375992 295.522,551.288013 295.522,548.648 L295.522,536.912 L301.642,536.912 L301.642,547.82 C301.642,549.116006 301.983997,550.117996 302.668,550.826 C303.352003,551.534004 304.293994,551.888 305.494,551.888 C306.694006,551.888 307.635997,551.534004 308.32,550.826 C309.004003,550.117996 309.346,549.116006 309.346,547.82 L309.346,536.912 Z M327.318,534.644 C326.621996,535.340003 325.770005,535.688 324.762,535.688 C323.753995,535.688 322.902003,535.340003 322.206,534.644 C321.509996,533.947997 321.162,533.090005 321.162,532.07 C321.162,531.049995 321.509996,530.192003 322.206,529.496 C322.902003,528.799997 323.753995,528.452 324.762,528.452 C325.770005,528.452 326.621996,528.799997 327.318,529.496 C328.014003,530.192003 328.362,531.049995 328.362,532.07 C328.362,533.090005 328.014003,533.947997 327.318,534.644 Z M321.702,557 L321.702,536.912 L327.858,536.912 L327.858,557 L321.702,557 Z M334.058,557 L334.058,530.36 L340.214,530.36 L340.214,557 L334.058,557 Z M358.654,550.628 C359.542004,549.763996 359.986,548.540008 359.986,546.956 C359.986,545.371992 359.542004,544.154004 358.654,543.302 C357.765996,542.449996 356.746006,542.024 355.594,542.024 C354.441994,542.024 353.422004,542.455996 352.534,543.32 C351.645996,544.184004 351.202,545.407992 351.202,546.992 C351.202,548.576008 351.645996,549.793996 352.534,550.646 C353.422004,551.498004 354.441994,551.924 355.594,551.924 C356.746006,551.924 357.765996,551.492004 358.654,550.628 Z M347.602,554.372 C345.825991,552.45199 344.938,549.992015 344.938,546.992 C344.938,543.991985 345.825991,541.52601 347.602,539.594 C349.378009,537.66199 351.543987,536.696 354.1,536.696 C356.656013,536.696 358.617993,537.643991 359.986,539.54 L359.986,530.36 L366.142,530.36 L366.142,557 L359.986,557 L359.986,554.084 C358.497993,556.196011 356.506012,557.252 354.01,557.252 C351.513988,557.252 349.378009,556.29201 347.602,554.372 Z M377.958,534.644 C377.261997,535.340003 376.410005,535.688 375.402,535.688 C374.393995,535.688 373.542003,535.340003 372.846,534.644 C372.149997,533.947997 371.802,533.090005 371.802,532.07 C371.802,531.049995 372.149997,530.192003 372.846,529.496 C373.542003,528.799997 374.393995,528.452 375.402,528.452 C376.410005,528.452 377.261997,528.799997 377.958,529.496 C378.654003,530.192003 379.002,531.049995 379.002,532.07 C379.002,533.090005 378.654003,533.947997 377.958,534.644 Z M372.342,557 L372.342,536.912 L378.498,536.912 L378.498,557 L372.342,557 Z M390.854,536.912 L390.854,539.864 C392.126006,537.751989 394.153986,536.696 396.938,536.696 C399.242012,536.696 401.107993,537.463992 402.536,539 C403.964007,540.536008 404.678,542.623987 404.678,545.264 L404.678,557 L398.558,557 L398.558,546.092 C398.558,544.795994 398.216003,543.794004 397.532,543.086 C396.847997,542.377996 395.906006,542.024 394.706,542.024 C393.505994,542.024 392.564003,542.377996 391.88,543.086 C391.195997,543.794004 390.854,544.795994 390.854,546.092 L390.854,557 L384.698,557 L384.698,536.912 L390.854,536.912 Z M411.886,554.372 C410.109991,552.45199 409.222,549.992015 409.222,546.992 C409.222,543.991985 410.109991,541.52601 411.886,539.594 C413.662009,537.66199 415.827987,536.696 418.384,536.696 C420.940013,536.696 422.901993,537.643991 424.27,539.54 L424.27,536.912 L430.426,536.912 L430.426,556.892 C430.426,559.700014 429.658008,562.039991 428.122,563.912 C427.353996,564.872005 426.304007,565.615997 424.972,566.144 C423.639993,566.672003 422.098009,566.936 420.346,566.936 C417.273985,566.936 414.838009,566.312006 413.038,565.064 C411.237991,563.815994 410.218001,561.908013 409.978,559.34 L416.026,559.34 C416.602003,560.852008 418.041989,561.608 420.346,561.608 C421.474006,561.608 422.409996,561.230004 423.154,560.474 C423.898004,559.717996 424.27,558.524008 424.27,556.892 L424.27,554.084 C422.781993,556.196011 420.790013,557.252 418.294,557.252 C415.797988,557.252 413.662009,556.29201 411.886,554.372 Z M422.938,550.628 C423.826004,549.763996 424.27,548.540008 424.27,546.956 C424.27,545.371992 423.826004,544.154004 422.938,543.302 C422.049996,542.449996 421.030006,542.024 419.878,542.024 C418.725994,542.024 417.706004,542.455996 416.818,543.32 C415.929996,544.184004 415.486,545.407992 415.486,546.992 C415.486,548.576008 415.929996,549.793996 416.818,550.646 C417.706004,551.498004 418.725994,551.924 419.878,551.924 C421.030006,551.924 422.049996,551.492004 422.938,550.628 Z M252.692,599.252 C249.763985,599.252 247.364009,598.310009 245.492,596.426 C243.619991,594.541991 242.684,592.040016 242.684,588.92 C242.684,585.799984 243.613991,583.316009 245.474,581.468 C247.334009,579.619991 249.739985,578.696 252.692,578.696 C255.644015,578.696 258.09199,579.607991 260.036,581.432 C261.98001,583.256009 262.952,585.787984 262.952,589.028 C262.952,589.724003 262.904,590.371997 262.808,590.972 L248.984,590.972 C249.104001,591.860004 249.499997,592.585997 250.172,593.15 C250.844003,593.714003 251.569996,593.996 252.35,593.996 C253.130004,593.996 253.711998,593.918001 254.096,593.762 C254.480002,593.605999 254.761999,593.450001 254.942,593.294 C255.122001,593.137999 255.355999,592.880002 255.644,592.52 L262.304,592.52 C261.727997,594.53601 260.576009,596.161994 258.848,597.398 C257.119991,598.634006 255.068012,599.252 252.692,599.252 Z M256.544,587.12 C256.447999,586.183995 256.040004,585.422003 255.32,584.834 C254.599996,584.245997 253.748005,583.952 252.764,583.952 C251.779995,583.952 250.952003,584.245997 250.28,584.834 C249.607997,585.422003 249.188001,586.183995 249.02,587.12 L256.544,587.12 Z M279.952,592.628 C280.840004,591.763996 281.284,590.540008 281.284,588.956 C281.284,587.371992 280.840004,586.154004 279.952,585.302 C279.063996,584.449996 278.044006,584.024 276.892,584.024 C275.739994,584.024 274.720004,584.455996 273.832,585.32 C272.943996,586.184004 272.5,587.407992 272.5,588.992 C272.5,590.576008 272.943996,591.793996 273.832,592.646 C274.720004,593.498004 275.739994,593.924 276.892,593.924 C278.044006,593.924 279.063996,593.492004 279.952,592.628 Z M268.9,596.372 C267.123991,594.45199 266.236,591.992015 266.236,588.992 C266.236,585.991985 267.123991,583.52601 268.9,581.594 C270.676009,579.66199 272.841987,578.696 275.398,578.696 C277.954013,578.696 279.915993,579.643991 281.284,581.54 L281.284,578.912 L287.44,578.912 L287.44,608.576 L281.284,608.576 L281.284,596.084 C279.795993,598.196011 277.804012,599.252 275.308,599.252 C272.811987,599.252 270.676009,598.29201 268.9,596.372 Z M307.284,578.912 L313.44,578.912 L313.44,599 L307.284,599 L307.284,596.048 C306.011994,598.160011 303.984014,599.216 301.2,599.216 C298.895988,599.216 297.030007,598.448008 295.602,596.912 C294.173993,595.375992 293.46,593.288013 293.46,590.648 L293.46,578.912 L299.58,578.912 L299.58,589.82 C299.58,591.116006 299.921997,592.117996 300.606,592.826 C301.290003,593.534004 302.231994,593.888 303.432,593.888 C304.632006,593.888 305.573997,593.534004 306.258,592.826 C306.942003,592.117996 307.284,591.116006 307.284,589.82 L307.284,578.912 Z M325.256,576.644 C324.559997,577.340003 323.708005,577.688 322.7,577.688 C321.691995,577.688 320.840003,577.340003 320.144,576.644 C319.447997,575.947997 319.1,575.090005 319.1,574.07 C319.1,573.049995 319.447997,572.192003 320.144,571.496 C320.840003,570.799997 321.691995,570.452 322.7,570.452 C323.708005,570.452 324.559997,570.799997 325.256,571.496 C325.952003,572.192003 326.3,573.049995 326.3,574.07 C326.3,575.090005 325.952003,575.947997 325.256,576.644 Z M319.64,599 L319.64,578.912 L325.796,578.912 L325.796,599 L319.64,599 Z M345.604,592.664 C346.492004,591.799996 346.936,590.576008 346.936,588.992 C346.936,587.407992 346.492004,586.184004 345.604,585.32 C344.715996,584.455996 343.696006,584.024 342.544,584.024 C341.391994,584.024 340.372004,584.449996 339.484,585.302 C338.595996,586.154004 338.152,587.371992 338.152,588.956 C338.152,590.540008 338.595996,591.763996 339.484,592.628 C340.372004,593.492004 341.391994,593.924 342.544,593.924 C343.696006,593.924 344.715996,593.504004 345.604,592.664 Z M338.152,581.54 C339.520007,579.643991 341.481987,578.696 344.038,578.696 C346.594013,578.696 348.759991,579.66199 350.536,581.594 C352.312009,583.52601 353.2,585.991985 353.2,588.992 C353.2,591.992015 352.312009,594.45199 350.536,596.372 C348.759991,598.29201 346.612013,599.252 344.092,599.252 C341.571987,599.252 339.592007,598.196011 338.152,596.084 L338.152,608.576 L331.996,608.576 L331.996,578.912 L338.152,578.912 L338.152,581.54 Z M364.08,578.912 L364.08,581.864 C365.352006,579.751989 367.379986,578.696 370.164,578.696 C371.652007,578.696 372.977994,579.031997 374.142,579.704 C375.306006,580.376003 376.211997,581.335994 376.86,582.584 C377.604004,581.407994 378.569994,580.466004 379.758,579.758 C380.946006,579.049996 382.271993,578.696 383.736,578.696 C386.184012,578.696 388.127993,579.451992 389.568,580.964 C391.008007,582.476008 391.728,584.575987 391.728,587.264 L391.728,599 L385.608,599 L385.608,588.092 C385.608,586.795994 385.266003,585.794004 384.582,585.086 C383.897997,584.377996 382.956006,584.024 381.756,584.024 C380.555994,584.024 379.614003,584.377996 378.93,585.086 C378.245997,585.794004 377.904,586.795994 377.904,588.092 L377.904,599 L371.784,599 L371.784,588.092 C371.784,586.795994 371.442003,585.794004 370.758,585.086 C370.073997,584.377996 369.132006,584.024 367.932,584.024 C366.731994,584.024 365.790003,584.377996 365.106,585.086 C364.421997,585.794004 364.08,586.795994 364.08,588.092 L364.08,599 L357.924,599 L357.924,578.912 L364.08,578.912 Z M406.28,599.252 C403.351985,599.252 400.952009,598.310009 399.08,596.426 C397.207991,594.541991 396.272,592.040016 396.272,588.92 C396.272,585.799984 397.201991,583.316009 399.062,581.468 C400.922009,579.619991 403.327985,578.696 406.28,578.696 C409.232015,578.696 411.67999,579.607991 413.624,581.432 C415.56801,583.256009 416.54,585.787984 416.54,589.028 C416.54,589.724003 416.492001,590.371997 416.396,590.972 L402.572,590.972 C402.692001,591.860004 403.087997,592.585997 403.76,593.15 C404.432003,593.714003 405.157996,593.996 405.938,593.996 C406.718004,593.996 407.299998,593.918001 407.684,593.762 C408.068002,593.605999 408.349999,593.450001 408.53,593.294 C408.710001,593.137999 408.943999,592.880002 409.232,592.52 L415.892,592.52 C415.315997,594.53601 414.164009,596.161994 412.436,597.398 C410.707991,598.634006 408.656012,599.252 406.28,599.252 Z M410.132,587.12 C410.036,586.183995 409.628004,585.422003 408.908,584.834 C408.187996,584.245997 407.336005,583.952 406.352,583.952 C405.367995,583.952 404.540003,584.245997 403.868,584.834 C403.195997,585.422003 402.776001,586.183995 402.608,587.12 L410.132,587.12 Z M427.456,578.912 L427.456,581.864 C428.728006,579.751989 430.755986,578.696 433.54,578.696 C435.844012,578.696 437.709993,579.463992 439.138,581 C440.566007,582.536008 441.28,584.623987 441.28,587.264 L441.28,599 L435.16,599 L435.16,588.092 C435.16,586.795994 434.818003,585.794004 434.134,585.086 C433.449997,584.377996 432.508006,584.024 431.308,584.024 C430.107994,584.024 429.166003,584.377996 428.482,585.086 C427.797997,585.794004 427.456,586.795994 427.456,588.092 L427.456,599 L421.3,599 L421.3,578.912 L427.456,578.912 Z M455.832,593.78 L458.028,593.78 L458.028,599 L454.896,599 C452.639989,599 450.894006,598.502005 449.658,597.506 C448.421994,596.509995 447.804,594.800012 447.804,592.376 L447.804,584.024 L445.932,584.024 L445.932,578.912 L447.804,578.912 L447.804,574.016 L453.96,574.016 L453.96,578.912 L457.992,578.912 L457.992,584.024 L453.96,584.024 L453.96,592.376 C453.96,593.312005 454.583994,593.78 455.832,593.78 Z" id="building-equipment" fill="#1C213F" mask="url(#mask-4)"></path>
            <path d="M867.335,653 L645.664,653 C623.299,653 605,634.701 605,612.335 L605,521.665 C605,499.299 623.299,481 645.664,481 L867.335,481 C889.701,481 908,499.299 908,521.665 L908,612.335 C908,634.701 889.701,653 867.335,653" id="Fill-6" fill="#BABAB9" mask="url(#mask-4)"></path>
            <path d="M636.072,557 L636.072,531.728 L642.228,531.728 L642.228,557 L636.072,557 Z M660.488,550.7 C661.304004,549.835996 661.712,548.588008 661.712,546.956 C661.712,545.323992 661.292004,544.082004 660.452,543.23 C659.611996,542.377996 658.616006,541.952 657.464,541.952 C656.311994,541.952 655.322004,542.377996 654.494,543.23 C653.665996,544.082004 653.252,545.323992 653.252,546.956 C653.252,548.588008 653.677996,549.835996 654.53,550.7 C655.382004,551.564004 656.383994,551.996 657.536,551.996 C658.688006,551.996 659.671996,551.564004 660.488,550.7 Z M650.012,554.408 C647.99599,552.511991 646.988,550.016015 646.988,546.92 C646.988,543.823985 647.99599,541.346009 650.012,539.486 C652.02801,537.625991 654.523985,536.696 657.5,536.696 C660.476015,536.696 662.96599,537.625991 664.97,539.486 C666.97401,541.346009 667.976,543.823985 667.976,546.92 C667.976,550.016015 666.98001,552.511991 664.988,554.408 C662.99599,556.304009 660.512015,557.252 657.536,557.252 C654.559985,557.252 652.05201,556.304009 650.012,554.408 Z M671.008,536.408 L671.008,531.728 L690.952,531.728 L690.952,536.408 L684.04,536.408 L684.04,557 L677.884,557 L677.884,536.408 L671.008,536.408 Z M709.292,553.58 C706.795988,551.131988 705.548,548.036019 705.548,544.292 C705.548,540.547981 706.801987,537.458012 709.31,535.022 C711.818013,532.585988 714.883982,531.368 718.508,531.368 C721.316014,531.368 723.811989,532.111993 725.996,533.6 C728.180011,535.088007 729.703996,537.151987 730.568,539.792 L723.224,539.792 C722.263995,537.943991 720.728011,537.02 718.616,537.02 C716.503989,537.02 714.842006,537.679993 713.63,539 C712.417994,540.320007 711.812,542.083989 711.812,544.292 C711.812,546.500011 712.417994,548.263993 713.63,549.584 C714.842006,550.904007 716.46799,551.564 718.508,551.564 C719.972007,551.564 721.165995,551.198004 722.09,550.466 C723.014005,549.733996 723.631998,548.756006 723.944,547.532 L716.816,547.532 L716.816,542.852 L730.568,542.852 L730.568,547.532 C730.111998,549.836012 728.85201,551.98399 726.788,553.976 C725.803995,554.936005 724.586007,555.715997 723.134,556.316 C721.681993,556.916003 720.140008,557.216 718.508,557.216 C714.883982,557.216 711.812013,556.004012 709.292,553.58 Z M747.568,550.628 C748.456004,549.763996 748.9,548.540008 748.9,546.956 C748.9,545.371992 748.456004,544.154004 747.568,543.302 C746.679996,542.449996 745.660006,542.024 744.508,542.024 C743.355994,542.024 742.336004,542.455996 741.448,543.32 C740.559996,544.184004 740.116,545.407992 740.116,546.992 C740.116,548.576008 740.559996,549.793996 741.448,550.646 C742.336004,551.498004 743.355994,551.924 744.508,551.924 C745.660006,551.924 746.679996,551.492004 747.568,550.628 Z M736.516,554.372 C734.739991,552.45199 733.852,549.992015 733.852,546.992 C733.852,543.991985 734.739991,541.52601 736.516,539.594 C738.292009,537.66199 740.457987,536.696 743.014,536.696 C745.570013,536.696 747.531993,537.643991 748.9,539.54 L748.9,536.912 L755.056,536.912 L755.056,557 L748.9,557 L748.9,554.084 C747.411993,556.196011 745.420012,557.252 742.924,557.252 C740.427988,557.252 738.292009,556.29201 736.516,554.372 Z M769.788,551.78 L771.984,551.78 L771.984,557 L768.852,557 C766.595989,557 764.850006,556.502005 763.614,555.506 C762.377994,554.509995 761.76,552.800012 761.76,550.376 L761.76,542.024 L759.888,542.024 L759.888,536.912 L761.76,536.912 L761.76,532.016 L767.916,532.016 L767.916,536.912 L771.948,536.912 L771.948,542.024 L767.916,542.024 L767.916,550.376 C767.916,551.312005 768.539994,551.78 769.788,551.78 Z M785.528,557.252 C782.599985,557.252 780.200009,556.310009 778.328,554.426 C776.455991,552.541991 775.52,550.040016 775.52,546.92 C775.52,543.799984 776.449991,541.316009 778.31,539.468 C780.170009,537.619991 782.575985,536.696 785.528,536.696 C788.480015,536.696 790.92799,537.607991 792.872,539.432 C794.81601,541.256009 795.788,543.787984 795.788,547.028 C795.788,547.724003 795.74,548.371997 795.644,548.972 L781.82,548.972 C781.940001,549.860004 782.335997,550.585997 783.008,551.15 C783.680003,551.714003 784.405996,551.996 785.186,551.996 C785.966004,551.996 786.547998,551.918001 786.932,551.762 C787.316002,551.605999 787.597999,551.450001 787.778,551.294 C787.958001,551.137999 788.191999,550.880002 788.48,550.52 L795.14,550.52 C794.563997,552.53601 793.412009,554.161994 791.684,555.398 C789.955991,556.634006 787.904012,557.252 785.528,557.252 Z M789.38,545.12 C789.284,544.183995 788.876004,543.422003 788.156,542.834 C787.435996,542.245997 786.584005,541.952 785.6,541.952 C784.615995,541.952 783.788003,542.245997 783.116,542.834 C782.443997,543.422003 782.024001,544.183995 781.856,545.12 L789.38,545.12 Z M823.12,536.912 L828.916,536.912 L822.904,557 L816.28,557 L813.472,545.12 L810.628,557 L804.004,557 L797.992,536.912 L804.148,536.912 L807.28,551.024 L810.376,536.912 L816.892,536.912 L819.988,551.024 L823.12,536.912 Z M844.764,550.628 C845.652004,549.763996 846.096,548.540008 846.096,546.956 C846.096,545.371992 845.652004,544.154004 844.764,543.302 C843.875996,542.449996 842.856006,542.024 841.704,542.024 C840.551994,542.024 839.532004,542.455996 838.644,543.32 C837.755996,544.184004 837.312,545.407992 837.312,546.992 C837.312,548.576008 837.755996,549.793996 838.644,550.646 C839.532004,551.498004 840.551994,551.924 841.704,551.924 C842.856006,551.924 843.875996,551.492004 844.764,550.628 Z M833.712,554.372 C831.935991,552.45199 831.048,549.992015 831.048,546.992 C831.048,543.991985 831.935991,541.52601 833.712,539.594 C835.488009,537.66199 837.653987,536.696 840.21,536.696 C842.766013,536.696 844.727993,537.643991 846.096,539.54 L846.096,536.912 L852.252,536.912 L852.252,557 L846.096,557 L846.096,554.084 C844.607993,556.196011 842.616013,557.252 840.12,557.252 C837.623988,557.252 835.488009,556.29201 833.712,554.372 Z M649.414,605.732 C646.485985,603.499989 644.122009,600.530019 642.322,596.822 C640.521991,593.113981 639.622,589.010022 639.622,584.51 C639.622,580.009977 640.521991,575.906019 642.322,572.198 C644.122009,568.489981 646.485985,565.532011 649.414,563.324 L655.498,563.324 L655.498,563.9 C648.873967,569.324027 645.562,576.199958 645.562,584.528 C645.562,592.856042 648.873967,599.731973 655.498,605.156 L655.498,605.732 L649.414,605.732 Z M664.506,599 L655.542,573.728 L662.094,573.728 L668.358,592.988 L674.622,573.728 L681.174,573.728 L672.21,599 L664.506,599 Z M701.234,591.584 C702.458006,590.263993 703.07,588.500011 703.07,586.292 C703.07,584.083989 702.464006,582.320007 701.252,581 C700.039994,579.679993 698.42001,579.02 696.392,579.02 C694.36399,579.02 692.744006,579.679993 691.532,581 C690.319994,582.320007 689.714,584.083989 689.714,586.292 C689.714,588.500011 690.319994,590.263993 691.532,591.584 C692.744006,592.904007 694.36399,593.564 696.392,593.564 C698.42001,593.564 700.033994,592.904007 701.234,591.584 Z M687.194,595.58 C684.697987,593.131988 683.45,590.036019 683.45,586.292 C683.45,582.547981 684.703987,579.458012 687.212,577.022 C689.720013,574.585988 692.791982,573.368 696.428,573.368 C700.064018,573.368 703.123988,574.585988 705.608,577.022 C708.092012,579.458012 709.334,582.547981 709.334,586.292 C709.334,590.036019 708.086012,593.131988 705.59,595.58 C703.093987,598.028012 700.034018,599.252 696.41,599.252 C692.785982,599.252 689.714013,598.028012 687.194,595.58 Z M714.094,573.728 L720.25,573.728 L720.25,594.32 L727.918,594.32 L727.918,599 L714.094,599 L714.094,573.728 Z M730.41,578.408 L730.41,573.728 L750.354,573.728 L750.354,578.408 L743.442,578.408 L743.442,599 L737.286,599 L737.286,578.408 L730.41,578.408 Z M753.098,578.408 L753.098,573.728 L773.042,573.728 L773.042,578.408 L766.13,578.408 L766.13,599 L759.974,599 L759.974,578.408 L753.098,578.408 Z M783.67,589.172 L783.67,599 L777.514,599 L777.514,573.728 L787.486,573.728 C790.414015,573.728 792.693992,574.483992 794.326,575.996 C795.958008,577.508008 796.774,579.331989 796.774,581.468 C796.774,582.932007 796.330004,584.359993 795.442,585.752 C794.553996,587.144007 793.10201,588.127997 791.086,588.704 L797.278,599 L790.078,599 L784.39,589.172 L783.67,589.172 Z M783.67,578.408 L783.67,584.492 L787.486,584.492 C788.422005,584.492 789.159997,584.216003 789.7,583.664 C790.240003,583.111997 790.51,582.386005 790.51,581.486 C790.51,580.585995 790.234003,579.848003 789.682,579.272 C789.129997,578.695997 788.398005,578.408 787.486,578.408 L783.67,578.408 Z M818.67,591.584 C819.894006,590.263993 820.506,588.500011 820.506,586.292 C820.506,584.083989 819.900006,582.320007 818.688,581 C817.475994,579.679993 815.85601,579.02 813.828,579.02 C811.79999,579.02 810.180006,579.679993 808.968,581 C807.755994,582.320007 807.15,584.083989 807.15,586.292 C807.15,588.500011 807.755994,590.263993 808.968,591.584 C810.180006,592.904007 811.79999,593.564 813.828,593.564 C815.85601,593.564 817.469994,592.904007 818.67,591.584 Z M804.63,595.58 C802.133988,593.131988 800.886,590.036019 800.886,586.292 C800.886,582.547981 802.139987,579.458012 804.648,577.022 C807.156013,574.585988 810.227982,573.368 813.864,573.368 C817.500018,573.368 820.559988,574.585988 823.044,577.022 C825.528012,579.458012 826.77,582.547981 826.77,586.292 C826.77,590.036019 825.522013,593.131988 823.026,595.58 C820.529988,598.028012 817.470018,599.252 813.846,599.252 C810.221982,599.252 807.150013,598.028012 804.63,595.58 Z M847.982,573.656 L854.138,573.656 L854.138,599 L847.982,599 L837.686,583.052 L837.686,599 L831.53,599 L831.53,573.656 L837.686,573.656 L847.982,589.604 L847.982,573.656 Z M865.991158,566.290937 C867.493258,567.98537 868.788866,569.954384 869.878,572.198 C871.678009,575.906019 872.578,580.009977 872.578,584.51 C872.578,589.010022 871.678009,593.113981 869.878,596.822 C868.077991,600.530019 865.714015,603.499989 862.786,605.732 L856.702,605.732 L856.702,605.156 C863.326033,599.731973 866.638,592.856042 866.638,584.528 C866.638,577.514031 864.288757,571.530072 859.590212,566.576 L859.424,566.576 L859.475613,566.455859 C858.626563,565.570814 857.702025,564.718861 856.702,563.9 L856.702,563.324 L860.821069,563.324 L863.708,556.604 L855.896,536.912 L862.88,536.912 L867.344,550.052 L872.24,536.912 L878.684,536.912 L865.991158,566.290937 Z" id="IoT-Gateway-(VOLTTRO" fill="#1C213F" mask="url(#mask-4)"></path>
            <path d="M622.328,565.301 L547.328,536.651 L547.328,593.952 L622.328,565.301 Z M547.328,578.952 L482.328,578.952 L482.328,550.952 L547.328,550.952 L547.328,578.952 Z" id="Fill-7" fill="#F15A50" mask="url(#mask-4)"></path>
            <path d="M1274.33,653 L1052.66,653 C1030.3,653 1012,634.701 1012,612.335 L1012,521.665 C1012,499.299 1030.3,481 1052.66,481 L1274.33,481 C1296.7,481 1315,499.299 1315,521.665 L1315,612.335 C1315,634.701 1296.7,653 1274.33,653" id="Fill-8" fill="#BABAB9" mask="url(#mask-4)"></path>
            <path d="M1082.184,536.912 L1082.184,539.864 C1083.45601,537.751989 1085.48399,536.696 1088.268,536.696 C1089.75601,536.696 1091.08199,537.031997 1092.246,537.704 C1093.41001,538.376003 1094.316,539.335994 1094.964,540.584 C1095.708,539.407994 1096.67399,538.466004 1097.862,537.758 C1099.05001,537.049996 1100.37599,536.696 1101.84,536.696 C1104.28801,536.696 1106.23199,537.451992 1107.672,538.964 C1109.11201,540.476008 1109.832,542.575987 1109.832,545.264 L1109.832,557 L1103.712,557 L1103.712,546.092 C1103.712,544.795994 1103.37,543.794004 1102.686,543.086 C1102.002,542.377996 1101.06001,542.024 1099.86,542.024 C1098.65999,542.024 1097.718,542.377996 1097.034,543.086 C1096.35,543.794004 1096.008,544.795994 1096.008,546.092 L1096.008,557 L1089.888,557 L1089.888,546.092 C1089.888,544.795994 1089.546,543.794004 1088.862,543.086 C1088.178,542.377996 1087.23601,542.024 1086.036,542.024 C1084.83599,542.024 1083.894,542.377996 1083.21,543.086 C1082.526,543.794004 1082.184,544.795994 1082.184,546.092 L1082.184,557 L1076.028,557 L1076.028,536.912 L1082.184,536.912 Z M1124.384,557.252 C1121.45599,557.252 1119.05601,556.310009 1117.184,554.426 C1115.31199,552.541991 1114.376,550.040016 1114.376,546.92 C1114.376,543.799984 1115.30599,541.316009 1117.166,539.468 C1119.02601,537.619991 1121.43199,536.696 1124.384,536.696 C1127.33601,536.696 1129.78399,537.607991 1131.728,539.432 C1133.67201,541.256009 1134.644,543.787984 1134.644,547.028 C1134.644,547.724003 1134.596,548.371997 1134.5,548.972 L1120.676,548.972 C1120.796,549.860004 1121.192,550.585997 1121.864,551.15 C1122.536,551.714003 1123.262,551.996 1124.042,551.996 C1124.822,551.996 1125.404,551.918001 1125.788,551.762 C1126.172,551.605999 1126.454,551.450001 1126.634,551.294 C1126.814,551.137999 1127.048,550.880002 1127.336,550.52 L1133.996,550.52 C1133.42,552.53601 1132.26801,554.161994 1130.54,555.398 C1128.81199,556.634006 1126.76001,557.252 1124.384,557.252 Z M1128.236,545.12 C1128.14,544.183995 1127.732,543.422003 1127.012,542.834 C1126.292,542.245997 1125.44,541.952 1124.456,541.952 C1123.472,541.952 1122.644,542.245997 1121.972,542.834 C1121.3,543.422003 1120.88,544.183995 1120.712,545.12 L1128.236,545.12 Z M1138.036,542.96 C1138.036,541.183991 1138.79199,539.696006 1140.304,538.496 C1141.81601,537.295994 1143.86199,536.696 1146.442,536.696 C1149.02201,536.696 1151.10399,537.283994 1152.688,538.46 C1154.27201,539.636006 1155.112,541.24399 1155.208,543.284 L1148.908,543.284 C1148.836,542.587997 1148.596,542.114001 1148.188,541.862 C1147.78,541.609999 1147.168,541.484 1146.352,541.484 C1144.74399,541.484 1143.94,541.975995 1143.94,542.96 C1143.94,543.848004 1144.92399,544.459998 1146.892,544.796 C1148.88401,545.132002 1150.69599,545.647997 1152.328,546.344 C1153.168,546.680002 1153.87,547.237996 1154.434,548.018 C1154.998,548.798004 1155.28,549.751994 1155.28,550.88 C1155.28,552.752009 1154.47601,554.281994 1152.868,555.47 C1151.25999,556.658006 1149.23201,557.252 1146.784,557.252 C1144.33599,557.252 1142.29601,556.694006 1140.664,555.578 C1139.03199,554.461994 1138.144,552.812011 1138,550.628 L1144.3,550.628 C1144.468,551.852006 1145.33199,552.464 1146.892,552.464 C1147.612,552.464 1148.206,552.296002 1148.674,551.96 C1149.142,551.623998 1149.376,551.192003 1149.376,550.664 C1149.376,550.135997 1148.986,549.716002 1148.206,549.404 C1147.426,549.091998 1146.48401,548.828001 1145.38,548.612 C1144.27599,548.395999 1143.16601,548.126002 1142.05,547.802 C1140.93399,547.477998 1139.986,546.914004 1139.206,546.11 C1138.426,545.305996 1138.036,544.256006 1138.036,542.96 Z M1158.816,542.96 C1158.816,541.183991 1159.57199,539.696006 1161.084,538.496 C1162.59601,537.295994 1164.64199,536.696 1167.222,536.696 C1169.80201,536.696 1171.88399,537.283994 1173.468,538.46 C1175.05201,539.636006 1175.892,541.24399 1175.988,543.284 L1169.688,543.284 C1169.616,542.587997 1169.376,542.114001 1168.968,541.862 C1168.56,541.609999 1167.948,541.484 1167.132,541.484 C1165.52399,541.484 1164.72,541.975995 1164.72,542.96 C1164.72,543.848004 1165.70399,544.459998 1167.672,544.796 C1169.66401,545.132002 1171.47599,545.647997 1173.108,546.344 C1173.948,546.680002 1174.65,547.237996 1175.214,548.018 C1175.778,548.798004 1176.06,549.751994 1176.06,550.88 C1176.06,552.752009 1175.25601,554.281994 1173.648,555.47 C1172.03999,556.658006 1170.01201,557.252 1167.564,557.252 C1165.11599,557.252 1163.07601,556.694006 1161.444,555.578 C1159.81199,554.461994 1158.924,552.812011 1158.78,550.628 L1165.08,550.628 C1165.248,551.852006 1166.11199,552.464 1167.672,552.464 C1168.392,552.464 1168.986,552.296002 1169.454,551.96 C1169.922,551.623998 1170.156,551.192003 1170.156,550.664 C1170.156,550.135997 1169.766,549.716002 1168.986,549.404 C1168.206,549.091998 1167.26401,548.828001 1166.16,548.612 C1165.05599,548.395999 1163.94601,548.126002 1162.83,547.802 C1161.71399,547.477998 1160.766,546.914004 1159.986,546.11 C1159.206,545.305996 1158.816,544.256006 1158.816,542.96 Z M1193.204,550.628 C1194.092,549.763996 1194.536,548.540008 1194.536,546.956 C1194.536,545.371992 1194.092,544.154004 1193.204,543.302 C1192.316,542.449996 1191.29601,542.024 1190.144,542.024 C1188.99199,542.024 1187.972,542.455996 1187.084,543.32 C1186.196,544.184004 1185.752,545.407992 1185.752,546.992 C1185.752,548.576008 1186.196,549.793996 1187.084,550.646 C1187.972,551.498004 1188.99199,551.924 1190.144,551.924 C1191.29601,551.924 1192.316,551.492004 1193.204,550.628 Z M1182.152,554.372 C1180.37599,552.45199 1179.488,549.992015 1179.488,546.992 C1179.488,543.991985 1180.37599,541.52601 1182.152,539.594 C1183.92801,537.66199 1186.09399,536.696 1188.65,536.696 C1191.20601,536.696 1193.16799,537.643991 1194.536,539.54 L1194.536,536.912 L1200.692,536.912 L1200.692,557 L1194.536,557 L1194.536,554.084 C1193.04799,556.196011 1191.05601,557.252 1188.56,557.252 C1186.06399,557.252 1183.92801,556.29201 1182.152,554.372 Z M1208.08,554.372 C1206.30399,552.45199 1205.416,549.992015 1205.416,546.992 C1205.416,543.991985 1206.30399,541.52601 1208.08,539.594 C1209.85601,537.66199 1212.02199,536.696 1214.578,536.696 C1217.13401,536.696 1219.09599,537.643991 1220.464,539.54 L1220.464,536.912 L1226.62,536.912 L1226.62,556.892 C1226.62,559.700014 1225.85201,562.039991 1224.316,563.912 C1223.548,564.872005 1222.49801,565.615997 1221.166,566.144 C1219.83399,566.672003 1218.29201,566.936 1216.54,566.936 C1213.46798,566.936 1211.03201,566.312006 1209.232,565.064 C1207.43199,563.815994 1206.412,561.908013 1206.172,559.34 L1212.22,559.34 C1212.796,560.852008 1214.23599,561.608 1216.54,561.608 C1217.66801,561.608 1218.604,561.230004 1219.348,560.474 C1220.092,559.717996 1220.464,558.524008 1220.464,556.892 L1220.464,554.084 C1218.97599,556.196011 1216.98401,557.252 1214.488,557.252 C1211.99199,557.252 1209.85601,556.29201 1208.08,554.372 Z M1219.132,550.628 C1220.02,549.763996 1220.464,548.540008 1220.464,546.956 C1220.464,545.371992 1220.02,544.154004 1219.132,543.302 C1218.244,542.449996 1217.22401,542.024 1216.072,542.024 C1214.91999,542.024 1213.9,542.455996 1213.012,543.32 C1212.124,544.184004 1211.68,545.407992 1211.68,546.992 C1211.68,548.576008 1212.124,549.793996 1213.012,550.646 C1213.9,551.498004 1214.91999,551.924 1216.072,551.924 C1217.22401,551.924 1218.244,551.492004 1219.132,550.628 Z M1241.352,557.252 C1238.42399,557.252 1236.02401,556.310009 1234.152,554.426 C1232.27999,552.541991 1231.344,550.040016 1231.344,546.92 C1231.344,543.799984 1232.27399,541.316009 1234.134,539.468 C1235.99401,537.619991 1238.39999,536.696 1241.352,536.696 C1244.30401,536.696 1246.75199,537.607991 1248.696,539.432 C1250.64001,541.256009 1251.612,543.787984 1251.612,547.028 C1251.612,547.724003 1251.564,548.371997 1251.468,548.972 L1237.644,548.972 C1237.764,549.860004 1238.16,550.585997 1238.832,551.15 C1239.504,551.714003 1240.23,551.996 1241.01,551.996 C1241.79,551.996 1242.372,551.918001 1242.756,551.762 C1243.14,551.605999 1243.422,551.450001 1243.602,551.294 C1243.782,551.137999 1244.016,550.880002 1244.304,550.52 L1250.964,550.52 C1250.388,552.53601 1249.23601,554.161994 1247.508,555.398 C1245.77999,556.634006 1243.72801,557.252 1241.352,557.252 Z M1245.204,545.12 C1245.108,544.183995 1244.7,543.422003 1243.98,542.834 C1243.26,542.245997 1242.408,541.952 1241.424,541.952 C1240.44,541.952 1239.612,542.245997 1238.94,542.834 C1238.268,543.422003 1237.848,544.183995 1237.68,545.12 L1245.204,545.12 Z M1143.454,592.664 C1144.342,591.799996 1144.786,590.576008 1144.786,588.992 C1144.786,587.407992 1144.342,586.184004 1143.454,585.32 C1142.566,584.455996 1141.54601,584.024 1140.394,584.024 C1139.24199,584.024 1138.222,584.449996 1137.334,585.302 C1136.446,586.154004 1136.002,587.371992 1136.002,588.956 C1136.002,590.540008 1136.446,591.763996 1137.334,592.628 C1138.222,593.492004 1139.24199,593.924 1140.394,593.924 C1141.54601,593.924 1142.566,593.504004 1143.454,592.664 Z M1136.002,581.54 C1137.37001,579.643991 1139.33199,578.696 1141.888,578.696 C1144.44401,578.696 1146.60999,579.66199 1148.386,581.594 C1150.16201,583.52601 1151.05,585.991985 1151.05,588.992 C1151.05,591.992015 1150.16201,594.45199 1148.386,596.372 C1146.60999,598.29201 1144.46201,599.252 1141.942,599.252 C1139.42199,599.252 1137.44201,598.196011 1136.002,596.084 L1136.002,599 L1129.846,599 L1129.846,572.36 L1136.002,572.36 L1136.002,581.54 Z M1169.418,578.912 L1175.574,578.912 L1175.574,599 L1169.418,599 L1169.418,596.048 C1168.14599,598.160011 1166.11801,599.216 1163.334,599.216 C1161.02999,599.216 1159.16401,598.448008 1157.736,596.912 C1156.30799,595.375992 1155.594,593.288013 1155.594,590.648 L1155.594,578.912 L1161.714,578.912 L1161.714,589.82 C1161.714,591.116006 1162.056,592.117996 1162.74,592.826 C1163.424,593.534004 1164.36599,593.888 1165.566,593.888 C1166.76601,593.888 1167.708,593.534004 1168.392,592.826 C1169.076,592.117996 1169.418,591.116006 1169.418,589.82 L1169.418,578.912 Z M1180.406,584.96 C1180.406,583.183991 1181.16199,581.696006 1182.674,580.496 C1184.18601,579.295994 1186.23199,578.696 1188.812,578.696 C1191.39201,578.696 1193.47399,579.283994 1195.058,580.46 C1196.64201,581.636006 1197.482,583.24399 1197.578,585.284 L1191.278,585.284 C1191.206,584.587997 1190.966,584.114001 1190.558,583.862 C1190.15,583.609999 1189.538,583.484 1188.722,583.484 C1187.11399,583.484 1186.31,583.975995 1186.31,584.96 C1186.31,585.848004 1187.29399,586.459998 1189.262,586.796 C1191.25401,587.132002 1193.06599,587.647997 1194.698,588.344 C1195.538,588.680002 1196.24,589.237996 1196.804,590.018 C1197.368,590.798004 1197.65,591.751994 1197.65,592.88 C1197.65,594.752009 1196.84601,596.281994 1195.238,597.47 C1193.62999,598.658006 1191.60201,599.252 1189.154,599.252 C1186.70599,599.252 1184.66601,598.694006 1183.034,597.578 C1181.40199,596.461994 1180.514,594.812011 1180.37,592.628 L1186.67,592.628 C1186.838,593.852006 1187.70199,594.464 1189.262,594.464 C1189.982,594.464 1190.576,594.296002 1191.044,593.96 C1191.512,593.623998 1191.746,593.192003 1191.746,592.664 C1191.746,592.135997 1191.356,591.716002 1190.576,591.404 C1189.796,591.091998 1188.85401,590.828001 1187.75,590.612 C1186.64599,590.395999 1185.53601,590.126002 1184.42,589.802 C1183.30399,589.477998 1182.356,588.914004 1181.576,588.11 C1180.796,587.305996 1180.406,586.256006 1180.406,584.96 Z" id="message-bus" fill="#1C213F" mask="url(#mask-4)"></path>
            <path d="M1033.83,569.301 L958.827,540.651 L958.827,597.952 L1033.83,569.301 Z M958.827,582.952 L893.827,582.952 L893.827,554.952 L958.827,554.952 L958.827,582.952 Z" id="Fill-9" fill="#F15A50" mask="url(#mask-4)"></path>
            <path d="M1680.33,653 L1458.66,653 C1436.3,653 1418,634.701 1418,612.335 L1418,521.665 C1418,499.299 1436.3,481 1458.66,481 L1680.33,481 C1702.7,481 1721,499.299 1721,521.665 L1721,612.335 C1721,634.701 1702.7,653 1680.33,653" id="Fill-10" fill="#BABAB9" mask="url(#mask-4)"></path>
            <path d="M1498.296,554.444 C1496.44799,552.571991 1495.524,550.076016 1495.524,546.956 C1495.524,543.835984 1496.45399,541.346009 1498.314,539.486 C1500.17401,537.625991 1502.57999,536.696 1505.532,536.696 C1507.98001,536.696 1510.05599,537.301994 1511.76,538.514 C1513.46401,539.726006 1514.592,541.459989 1515.144,543.716 L1508.484,543.716 C1507.908,542.515994 1506.96601,541.916 1505.658,541.916 C1504.34999,541.916 1503.378,542.377995 1502.742,543.302 C1502.106,544.226005 1501.788,545.443992 1501.788,546.956 C1501.788,548.468008 1502.106,549.685995 1502.742,550.61 C1503.378,551.534005 1504.30799,551.996 1505.532,551.996 C1506.3,551.996 1506.9,551.864001 1507.332,551.6 C1507.764,551.335999 1508.148,550.868003 1508.484,550.196 L1515.144,550.196 C1514.592,552.356011 1513.45201,554.071994 1511.724,555.344 C1509.99599,556.616006 1507.93201,557.252 1505.532,557.252 C1502.57999,557.252 1500.16801,556.316009 1498.296,554.444 Z M1525.556,536.912 L1525.556,540.656 C1526.99601,538.015987 1528.91599,536.696 1531.316,536.696 L1531.316,542.96 L1529.804,542.96 C1528.38799,542.96 1527.326,543.295997 1526.618,543.968 C1525.91,544.640003 1525.556,545.815992 1525.556,547.496 L1525.556,557 L1519.4,557 L1519.4,536.912 L1525.556,536.912 Z M1547.704,550.628 C1548.592,549.763996 1549.036,548.540008 1549.036,546.956 C1549.036,545.371992 1548.592,544.154004 1547.704,543.302 C1546.816,542.449996 1545.79601,542.024 1544.644,542.024 C1543.49199,542.024 1542.472,542.455996 1541.584,543.32 C1540.696,544.184004 1540.252,545.407992 1540.252,546.992 C1540.252,548.576008 1540.696,549.793996 1541.584,550.646 C1542.472,551.498004 1543.49199,551.924 1544.644,551.924 C1545.79601,551.924 1546.816,551.492004 1547.704,550.628 Z M1536.652,554.372 C1534.87599,552.45199 1533.988,549.992015 1533.988,546.992 C1533.988,543.991985 1534.87599,541.52601 1536.652,539.594 C1538.42801,537.66199 1540.59399,536.696 1543.15,536.696 C1545.70601,536.696 1547.66799,537.643991 1549.036,539.54 L1549.036,536.912 L1555.192,536.912 L1555.192,557 L1549.036,557 L1549.036,554.084 C1547.54799,556.196011 1545.55601,557.252 1543.06,557.252 C1540.56399,557.252 1538.42801,556.29201 1536.652,554.372 Z M1569.924,551.78 L1572.12,551.78 L1572.12,557 L1568.988,557 C1566.73199,557 1564.98601,556.502005 1563.75,555.506 C1562.51399,554.509995 1561.896,552.800012 1561.896,550.376 L1561.896,542.024 L1560.024,542.024 L1560.024,536.912 L1561.896,536.912 L1561.896,532.016 L1568.052,532.016 L1568.052,536.912 L1572.084,536.912 L1572.084,542.024 L1568.052,542.024 L1568.052,550.376 C1568.052,551.312005 1568.67599,551.78 1569.924,551.78 Z M1585.664,557.252 C1582.73599,557.252 1580.33601,556.310009 1578.464,554.426 C1576.59199,552.541991 1575.656,550.040016 1575.656,546.92 C1575.656,543.799984 1576.58599,541.316009 1578.446,539.468 C1580.30601,537.619991 1582.71199,536.696 1585.664,536.696 C1588.61601,536.696 1591.06399,537.607991 1593.008,539.432 C1594.95201,541.256009 1595.924,543.787984 1595.924,547.028 C1595.924,547.724003 1595.876,548.371997 1595.78,548.972 L1581.956,548.972 C1582.076,549.860004 1582.472,550.585997 1583.144,551.15 C1583.816,551.714003 1584.542,551.996 1585.322,551.996 C1586.102,551.996 1586.684,551.918001 1587.068,551.762 C1587.452,551.605999 1587.734,551.450001 1587.914,551.294 C1588.094,551.137999 1588.328,550.880002 1588.616,550.52 L1595.276,550.52 C1594.7,552.53601 1593.54801,554.161994 1591.82,555.398 C1590.09199,556.634006 1588.04001,557.252 1585.664,557.252 Z M1589.516,545.12 C1589.42,544.183995 1589.012,543.422003 1588.292,542.834 C1587.572,542.245997 1586.72,541.952 1585.736,541.952 C1584.752,541.952 1583.924,542.245997 1583.252,542.834 C1582.58,543.422003 1582.16,544.183995 1581.992,545.12 L1589.516,545.12 Z M1605.976,553.652 C1605.976,554.588005 1605.652,555.379997 1605.004,556.028 C1604.356,556.676003 1603.558,557 1602.61,557 C1601.662,557 1600.864,556.676003 1600.216,556.028 C1599.568,555.379997 1599.244,554.582005 1599.244,553.634 C1599.244,552.685995 1599.568,551.888003 1600.216,551.24 C1600.864,550.591997 1601.662,550.268 1602.61,550.268 C1603.558,550.268 1604.356,550.591997 1605.004,551.24 C1605.652,551.888003 1605.976,552.691995 1605.976,553.652 Z M1616.352,534.644 C1615.656,535.340003 1614.80401,535.688 1613.796,535.688 C1612.78799,535.688 1611.936,535.340003 1611.24,534.644 C1610.544,533.947997 1610.196,533.090005 1610.196,532.07 C1610.196,531.049995 1610.544,530.192003 1611.24,529.496 C1611.936,528.799997 1612.78799,528.452 1613.796,528.452 C1614.80401,528.452 1615.656,528.799997 1616.352,529.496 C1617.048,530.192003 1617.396,531.049995 1617.396,532.07 C1617.396,533.090005 1617.048,533.947997 1616.352,534.644 Z M1610.736,557 L1610.736,536.912 L1616.892,536.912 L1616.892,557 L1610.736,557 Z M1635.152,550.7 C1635.968,549.835996 1636.376,548.588008 1636.376,546.956 C1636.376,545.323992 1635.956,544.082004 1635.116,543.23 C1634.276,542.377996 1633.28001,541.952 1632.128,541.952 C1630.97599,541.952 1629.986,542.377996 1629.158,543.23 C1628.33,544.082004 1627.916,545.323992 1627.916,546.956 C1627.916,548.588008 1628.342,549.835996 1629.194,550.7 C1630.046,551.564004 1631.04799,551.996 1632.2,551.996 C1633.35201,551.996 1634.336,551.564004 1635.152,550.7 Z M1624.676,554.408 C1622.65999,552.511991 1621.652,550.016015 1621.652,546.92 C1621.652,543.823985 1622.65999,541.346009 1624.676,539.486 C1626.69201,537.625991 1629.18799,536.696 1632.164,536.696 C1635.14001,536.696 1637.62999,537.625991 1639.634,539.486 C1641.63801,541.346009 1642.64,543.823985 1642.64,546.92 C1642.64,550.016015 1641.64401,552.511991 1639.652,554.408 C1637.65999,556.304009 1635.17601,557.252 1632.2,557.252 C1629.22399,557.252 1626.71601,556.304009 1624.676,554.408 Z M1505.05,596.444 C1503.20199,594.571991 1502.278,592.076016 1502.278,588.956 C1502.278,585.835984 1503.20799,583.346009 1505.068,581.486 C1506.92801,579.625991 1509.33399,578.696 1512.286,578.696 C1514.73401,578.696 1516.80999,579.301994 1518.514,580.514 C1520.21801,581.726006 1521.346,583.459989 1521.898,585.716 L1515.238,585.716 C1514.662,584.515994 1513.72001,583.916 1512.412,583.916 C1511.10399,583.916 1510.132,584.377995 1509.496,585.302 C1508.86,586.226005 1508.542,587.443992 1508.542,588.956 C1508.542,590.468008 1508.86,591.685995 1509.496,592.61 C1510.132,593.534005 1511.06199,593.996 1512.286,593.996 C1513.054,593.996 1513.654,593.864001 1514.086,593.6 C1514.518,593.335999 1514.902,592.868003 1515.238,592.196 L1521.898,592.196 C1521.346,594.356011 1520.20601,596.071994 1518.478,597.344 C1516.74999,598.616006 1514.68601,599.252 1512.286,599.252 C1509.33399,599.252 1506.92201,598.316009 1505.05,596.444 Z M1526.154,599 L1526.154,572.36 L1532.31,572.36 L1532.31,599 L1526.154,599 Z M1552.154,578.912 L1558.31,578.912 L1558.31,599 L1552.154,599 L1552.154,596.048 C1550.88199,598.160011 1548.85401,599.216 1546.07,599.216 C1543.76599,599.216 1541.90001,598.448008 1540.472,596.912 C1539.04399,595.375992 1538.33,593.288013 1538.33,590.648 L1538.33,578.912 L1544.45,578.912 L1544.45,589.82 C1544.45,591.116006 1544.792,592.117996 1545.476,592.826 C1546.16,593.534004 1547.10199,593.888 1548.302,593.888 C1549.50201,593.888 1550.444,593.534004 1551.128,592.826 C1551.812,592.117996 1552.154,591.116006 1552.154,589.82 L1552.154,578.912 Z M1563.142,584.96 C1563.142,583.183991 1563.89799,581.696006 1565.41,580.496 C1566.92201,579.295994 1568.96799,578.696 1571.548,578.696 C1574.12801,578.696 1576.20999,579.283994 1577.794,580.46 C1579.37801,581.636006 1580.218,583.24399 1580.314,585.284 L1574.014,585.284 C1573.942,584.587997 1573.702,584.114001 1573.294,583.862 C1572.886,583.609999 1572.274,583.484 1571.458,583.484 C1569.84999,583.484 1569.046,583.975995 1569.046,584.96 C1569.046,585.848004 1570.02999,586.459998 1571.998,586.796 C1573.99001,587.132002 1575.80199,587.647997 1577.434,588.344 C1578.274,588.680002 1578.976,589.237996 1579.54,590.018 C1580.104,590.798004 1580.386,591.751994 1580.386,592.88 C1580.386,594.752009 1579.58201,596.281994 1577.974,597.47 C1576.36599,598.658006 1574.33801,599.252 1571.89,599.252 C1569.44199,599.252 1567.40201,598.694006 1565.77,597.578 C1564.13799,596.461994 1563.25,594.812011 1563.106,592.628 L1569.406,592.628 C1569.574,593.852006 1570.43799,594.464 1571.998,594.464 C1572.718,594.464 1573.312,594.296002 1573.78,593.96 C1574.248,593.623998 1574.482,593.192003 1574.482,592.664 C1574.482,592.135997 1574.092,591.716002 1573.312,591.404 C1572.532,591.091998 1571.59001,590.828001 1570.486,590.612 C1569.38199,590.395999 1568.27201,590.126002 1567.156,589.802 C1566.03999,589.477998 1565.092,588.914004 1564.312,588.11 C1563.532,587.305996 1563.142,586.256006 1563.142,584.96 Z M1593.822,593.78 L1596.018,593.78 L1596.018,599 L1592.886,599 C1590.62999,599 1588.88401,598.502005 1587.648,597.506 C1586.41199,596.509995 1585.794,594.800012 1585.794,592.376 L1585.794,584.024 L1583.922,584.024 L1583.922,578.912 L1585.794,578.912 L1585.794,574.016 L1591.95,574.016 L1591.95,578.912 L1595.982,578.912 L1595.982,584.024 L1591.95,584.024 L1591.95,592.376 C1591.95,593.312005 1592.57399,593.78 1593.822,593.78 Z M1609.562,599.252 C1606.63399,599.252 1604.23401,598.310009 1602.362,596.426 C1600.48999,594.541991 1599.554,592.040016 1599.554,588.92 C1599.554,585.799984 1600.48399,583.316009 1602.344,581.468 C1604.20401,579.619991 1606.60999,578.696 1609.562,578.696 C1612.51401,578.696 1614.96199,579.607991 1616.906,581.432 C1618.85001,583.256009 1619.822,585.787984 1619.822,589.028 C1619.822,589.724003 1619.774,590.371997 1619.678,590.972 L1605.854,590.972 C1605.974,591.860004 1606.37,592.585997 1607.042,593.15 C1607.714,593.714003 1608.44,593.996 1609.22,593.996 C1610,593.996 1610.582,593.918001 1610.966,593.762 C1611.35,593.605999 1611.632,593.450001 1611.812,593.294 C1611.992,593.137999 1612.226,592.880002 1612.514,592.52 L1619.174,592.52 C1618.598,594.53601 1617.44601,596.161994 1615.718,597.398 C1613.98999,598.634006 1611.93801,599.252 1609.562,599.252 Z M1613.414,587.12 C1613.318,586.183995 1612.91,585.422003 1612.19,584.834 C1611.47,584.245997 1610.618,583.952 1609.634,583.952 C1608.65,583.952 1607.822,584.245997 1607.15,584.834 C1606.478,585.422003 1606.058,586.183995 1605.89,587.12 L1613.414,587.12 Z M1630.738,578.912 L1630.738,582.656 C1632.17801,580.015987 1634.09799,578.696 1636.498,578.696 L1636.498,584.96 L1634.986,584.96 C1633.56999,584.96 1632.508,585.295997 1631.8,585.968 C1631.092,586.640003 1630.738,587.815992 1630.738,589.496 L1630.738,599 L1624.582,599 L1624.582,578.912 L1630.738,578.912 Z" id="crate.io-cluster" fill="#1C213F" mask="url(#mask-4)"></path>
            <path d="M1445.33,565.301 L1370.33,536.651 L1370.33,593.952 L1445.33,565.301 Z M1370.33,578.952 L1305.33,578.952 L1305.33,550.952 L1370.33,550.952 L1370.33,578.952 Z" id="Fill-11" fill="#F15A50" mask="url(#mask-4)"></path>
            <path d="M1680.33,923 L1458.66,923 C1436.3,923 1418,904.701 1418,882.335 L1418,791.665 C1418,769.299 1436.3,751 1458.66,751 L1680.33,751 C1702.7,751 1721,769.299 1721,791.665 L1721,882.335 C1721,904.701 1702.7,923 1680.33,923" id="Fill-12" fill="#BABAB9" mask="url(#mask-4)"></path>
            <path d="M1494.052,845.372 C1492.27599,843.45199 1491.388,840.992015 1491.388,837.992 C1491.388,834.991985 1492.27599,832.52601 1494.052,830.594 C1495.82801,828.66199 1497.99399,827.696 1500.55,827.696 C1503.10601,827.696 1505.06799,828.643991 1506.436,830.54 L1506.436,827.912 L1512.592,827.912 L1512.592,847.892 C1512.592,850.700014 1511.82401,853.039991 1510.288,854.912 C1509.52,855.872005 1508.47001,856.615997 1507.138,857.144 C1505.80599,857.672003 1504.26401,857.936 1502.512,857.936 C1499.43998,857.936 1497.00401,857.312006 1495.204,856.064 C1493.40399,854.815994 1492.384,852.908013 1492.144,850.34 L1498.192,850.34 C1498.768,851.852008 1500.20799,852.608 1502.512,852.608 C1503.64001,852.608 1504.576,852.230004 1505.32,851.474 C1506.064,850.717996 1506.436,849.524008 1506.436,847.892 L1506.436,845.084 C1504.94799,847.196011 1502.95601,848.252 1500.46,848.252 C1497.96399,848.252 1495.82801,847.29201 1494.052,845.372 Z M1505.104,841.628 C1505.992,840.763996 1506.436,839.540008 1506.436,837.956 C1506.436,836.371992 1505.992,835.154004 1505.104,834.302 C1504.216,833.449996 1503.19601,833.024 1502.044,833.024 C1500.89199,833.024 1499.872,833.455996 1498.984,834.32 C1498.096,835.184004 1497.652,836.407992 1497.652,837.992 C1497.652,839.576008 1498.096,840.793996 1498.984,841.646 C1499.872,842.498004 1500.89199,842.924 1502.044,842.924 C1503.19601,842.924 1504.216,842.492004 1505.104,841.628 Z M1524.948,827.912 L1524.948,831.656 C1526.38801,829.015987 1528.30799,827.696 1530.708,827.696 L1530.708,833.96 L1529.196,833.96 C1527.77999,833.96 1526.718,834.295997 1526.01,834.968 C1525.302,835.640003 1524.948,836.815992 1524.948,838.496 L1524.948,848 L1518.792,848 L1518.792,827.912 L1524.948,827.912 Z M1547.096,841.628 C1547.984,840.763996 1548.428,839.540008 1548.428,837.956 C1548.428,836.371992 1547.984,835.154004 1547.096,834.302 C1546.208,833.449996 1545.18801,833.024 1544.036,833.024 C1542.88399,833.024 1541.864,833.455996 1540.976,834.32 C1540.088,835.184004 1539.644,836.407992 1539.644,837.992 C1539.644,839.576008 1540.088,840.793996 1540.976,841.646 C1541.864,842.498004 1542.88399,842.924 1544.036,842.924 C1545.18801,842.924 1546.208,842.492004 1547.096,841.628 Z M1536.044,845.372 C1534.26799,843.45199 1533.38,840.992015 1533.38,837.992 C1533.38,834.991985 1534.26799,832.52601 1536.044,830.594 C1537.82001,828.66199 1539.98599,827.696 1542.542,827.696 C1545.09801,827.696 1547.05999,828.643991 1548.428,830.54 L1548.428,827.912 L1554.584,827.912 L1554.584,848 L1548.428,848 L1548.428,845.084 C1546.93999,847.196011 1544.94801,848.252 1542.452,848.252 C1539.95599,848.252 1537.82001,847.29201 1536.044,845.372 Z M1569.568,827.912 L1569.568,833.024 L1567.012,833.024 L1567.012,848 L1560.856,848 L1560.856,833.024 L1558.984,833.024 L1558.984,827.912 L1560.856,827.912 L1560.856,827.156 C1560.856,824.611987 1561.53399,822.752006 1562.89,821.576 C1564.24601,820.399994 1566.37599,819.812 1569.28,819.812 L1569.28,825.032 C1568.464,825.032 1567.882,825.187998 1567.534,825.5 C1567.186,825.812002 1567.012,826.363996 1567.012,827.156 L1567.012,827.912 L1569.568,827.912 Z M1585.92,841.628 C1586.808,840.763996 1587.252,839.540008 1587.252,837.956 C1587.252,836.371992 1586.808,835.154004 1585.92,834.302 C1585.032,833.449996 1584.01201,833.024 1582.86,833.024 C1581.70799,833.024 1580.688,833.455996 1579.8,834.32 C1578.912,835.184004 1578.468,836.407992 1578.468,837.992 C1578.468,839.576008 1578.912,840.793996 1579.8,841.646 C1580.688,842.498004 1581.70799,842.924 1582.86,842.924 C1584.01201,842.924 1585.032,842.492004 1585.92,841.628 Z M1574.868,845.372 C1573.09199,843.45199 1572.204,840.992015 1572.204,837.992 C1572.204,834.991985 1573.09199,832.52601 1574.868,830.594 C1576.64401,828.66199 1578.80999,827.696 1581.366,827.696 C1583.92201,827.696 1585.88399,828.643991 1587.252,830.54 L1587.252,827.912 L1593.408,827.912 L1593.408,848 L1587.252,848 L1587.252,845.084 C1585.76399,847.196011 1583.77201,848.252 1581.276,848.252 C1578.77999,848.252 1576.64401,847.29201 1574.868,845.372 Z M1605.764,827.912 L1605.764,830.864 C1607.03601,828.751989 1609.06399,827.696 1611.848,827.696 C1614.15201,827.696 1616.01799,828.463992 1617.446,830 C1618.87401,831.536008 1619.588,833.623987 1619.588,836.264 L1619.588,848 L1613.468,848 L1613.468,837.092 C1613.468,835.795994 1613.126,834.794004 1612.442,834.086 C1611.758,833.377996 1610.81601,833.024 1609.616,833.024 C1608.41599,833.024 1607.474,833.377996 1606.79,834.086 C1606.106,834.794004 1605.764,835.795994 1605.764,837.092 L1605.764,848 L1599.608,848 L1599.608,827.912 L1605.764,827.912 Z M1637.848,841.628 C1638.736,840.763996 1639.18,839.540008 1639.18,837.956 C1639.18,836.371992 1638.736,835.154004 1637.848,834.302 C1636.96,833.449996 1635.94001,833.024 1634.788,833.024 C1633.63599,833.024 1632.616,833.455996 1631.728,834.32 C1630.84,835.184004 1630.396,836.407992 1630.396,837.992 C1630.396,839.576008 1630.84,840.793996 1631.728,841.646 C1632.616,842.498004 1633.63599,842.924 1634.788,842.924 C1635.94001,842.924 1636.96,842.492004 1637.848,841.628 Z M1626.796,845.372 C1625.01999,843.45199 1624.132,840.992015 1624.132,837.992 C1624.132,834.991985 1625.01999,832.52601 1626.796,830.594 C1628.57201,828.66199 1630.73799,827.696 1633.294,827.696 C1635.85001,827.696 1637.81199,828.643991 1639.18,830.54 L1639.18,827.912 L1645.336,827.912 L1645.336,848 L1639.18,848 L1639.18,845.084 C1637.69199,847.196011 1635.70001,848.252 1633.204,848.252 C1630.70799,848.252 1628.57201,847.29201 1626.796,845.372 Z" id="grafana" fill="#1C213F" mask="url(#mask-4)"></path>
            <path d="M1569.33,778.301 L1597.98,703.301 L1540.68,703.301 L1569.33,778.301 Z M1555.68,638.301 L1583.68,638.301 L1583.68,703.301 L1555.68,703.301 L1555.68,638.301 Z" id="Fill-13" fill="#F15A50" mask="url(#mask-4)"></path>
        </g>
    </g>
</svg>