<svg id="Layer_1" data-name="Layer 1" xmlns="http://www.w3.org/2000/svg" viewBox="0 0 1920 1080"><defs><style>.cls-1{font-size:135px;letter-spacing:0.03em;}.cls-1,.cls-5{fill:#ff584d;}.cls-1,.cls-3,.cls-4{font-family:Poppins, Poppins;font-weight:700;}.cls-2{fill:#babab9;}.cls-3{font-size:36px;letter-spacing:0.03em;}.cls-3,.cls-4{fill:#1d2240;}.cls-4{font-size:34px;letter-spacing:0.02em;}</style></defs><title>Artboard 1</title><text class="cls-1" transform="translate(142.16 199.9)">application <tspan x="103.81" y="162">dataflow</tspan></text><rect class="cls-2" x="304" y="535" width="303" height="172" rx="40.66" ry="40.66"/><text class="cls-3" transform="translate(371.8 604.03)">building <tspan x="-26.06" y="43.2">equipment</tspan></text><rect class="cls-2" x="710" y="535" width="303" height="172" rx="40.66" ry="40.66"/><text class="cls-4" transform="translate(745.34 602.55)">IoT Gateway <tspan x="3.67" y="40.8">(VOLTTRON)</tspan></text><path class="cls-5" d="M652,633H587V605h65Zm75-13.7-75-28.65V648Z"/><rect class="cls-2" x="1117" y="535" width="303" height="172" rx="40.66" ry="40.66"/><text class="cls-4" transform="translate(1183.21 602.55)">message <tspan x="51.02" y="40.8">bus</tspan></text><path class="cls-5" d="M1064,637H999V609h65Zm75-13.7-75-28.65V652Z"/><rect class="cls-2" x="1523" y="535" width="303" height="172" rx="40.66" ry="40.66"/><text class="cls-4" transform="translate(1603.85 602.55)">crate.io <tspan x="6.43" y="40.8">cluster</tspan></text><path class="cls-5" d="M1475,633h-65V605h65Zm75-13.7-75-28.65V648Z"/><rect class="cls-2" x="1523" y="805" width="303" height="172" rx="40.66" ry="40.66"/><text class="cls-4" transform="translate(1599.67 903.35)">grafana</text><path class="cls-5" d="M1661,757V692h28v65Zm13.33,75L1703,757h-57.3Z"/></svg>