<?xml version="1.0" encoding="UTF-8"?>
<svg width="1920px" height="1080px" viewBox="0 0 1920 1080" version="1.1" xmlns="http://www.w3.org/2000/svg" xmlns:xlink="http://www.w3.org/1999/xlink">
    <!-- Generator: Sketch 49.3 (51167) - http://www.bohemiancoding.com/sketch -->
    <title>log-data-flow</title>
    <desc>Created with Sketch.</desc>
    <defs>
        <polygon id="path-1" points="0 0 1920 0 1920 1079.96997 0 1079.96997"></polygon>
    </defs>
    <g id="log-data-flow" stroke="none" stroke-width="1" fill="none" fill-rule="evenodd">
        <g id="Group">
            <mask id="mask-2" fill="white">
                <use xlink:href="#path-1"></use>
            </mask>
            <g id="Clip-235"></g>
            <path d="M309.335,653 L87.664,653 C65.298,653 47,634.701 47,612.335 L47,521.665 C47,499.299 65.298,481 87.664,481 L309.335,481 C331.701,481 350,499.299 350,521.665 L350,612.335 C350,634.701 331.701,653 309.335,653" id="Fill-237" fill="#BABAB9" mask="url(#mask-2)"></path>
            <path d="M78.1719999,557 L78.1719999,531.728 L84.3279999,531.728 L84.3279999,557 L78.1719999,557 Z M102.588,550.7 C103.404004,549.835996 103.812,548.588008 103.812,546.956 C103.812,545.323992 103.392004,544.082004 102.552,543.23 C101.711996,542.377996 100.716006,541.952 99.5639999,541.952 C98.4119942,541.952 97.4220041,542.377996 96.5939999,543.23 C95.7659958,544.082004 95.3519999,545.323992 95.3519999,546.956 C95.3519999,548.588008 95.7779957,549.835996 96.6299999,550.7 C97.4820042,551.564004 98.4839942,551.996 99.6359999,551.996 C100.788006,551.996 101.771996,551.564004 102.588,550.7 Z M92.1119999,554.408 C90.0959899,552.511991 89.0879999,550.016015 89.0879999,546.92 C89.0879999,543.823985 90.0959899,541.346009 92.1119999,539.486 C94.12801,537.625991 96.6239851,536.696 99.5999999,536.696 C102.576015,536.696 105.06599,537.625991 107.07,539.486 C109.07401,541.346009 110.076,543.823985 110.076,546.92 C110.076,550.016015 109.08001,552.511991 107.088,554.408 C105.09599,556.304009 102.612015,557.252 99.6359999,557.252 C96.6599851,557.252 94.1520101,556.304009 92.1119999,554.408 Z M113.108,536.408 L113.108,531.728 L133.052,531.728 L133.052,536.408 L126.14,536.408 L126.14,557 L119.984,557 L119.984,536.408 L113.108,536.408 Z M151.392,553.58 C148.895987,551.131988 147.648,548.036019 147.648,544.292 C147.648,540.547981 148.901987,537.458012 151.41,535.022 C153.918013,532.585988 156.983982,531.368 160.608,531.368 C163.416014,531.368 165.911989,532.111993 168.096,533.6 C170.280011,535.088007 171.803996,537.151987 172.668,539.792 L165.324,539.792 C164.363995,537.943991 162.828011,537.02 160.716,537.02 C158.603989,537.02 156.942006,537.679993 155.73,539 C154.517994,540.320007 153.912,542.083989 153.912,544.292 C153.912,546.500011 154.517994,548.263993 155.73,549.584 C156.942006,550.904007 158.56799,551.564 160.608,551.564 C162.072007,551.564 163.265995,551.198004 164.19,550.466 C165.114005,549.733996 165.731998,548.756006 166.044,547.532 L158.916,547.532 L158.916,542.852 L172.668,542.852 L172.668,547.532 C172.211998,549.836012 170.95201,551.98399 168.888,553.976 C167.903995,554.936005 166.686007,555.715997 165.234,556.316 C163.781993,556.916003 162.240008,557.216 160.608,557.216 C156.983982,557.216 153.912013,556.004012 151.392,553.58 Z M189.668,550.628 C190.556004,549.763996 191,548.540008 191,546.956 C191,545.371992 190.556004,544.154004 189.668,543.302 C188.779996,542.449996 187.760006,542.024 186.608,542.024 C185.455994,542.024 184.436004,542.455996 183.548,543.32 C182.659996,544.184004 182.216,545.407992 182.216,546.992 C182.216,548.576008 182.659996,549.793996 183.548,550.646 C184.436004,551.498004 185.455994,551.924 186.608,551.924 C187.760006,551.924 188.779996,551.492004 189.668,550.628 Z M178.616,554.372 C176.839991,552.45199 175.952,549.992015 175.952,546.992 C175.952,543.991985 176.839991,541.52601 178.616,539.594 C180.392009,537.66199 182.557987,536.696 185.114,536.696 C187.670013,536.696 189.631993,537.643991 191,539.54 L191,536.912 L197.156,536.912 L197.156,557 L191,557 L191,554.084 C189.511993,556.196011 187.520012,557.252 185.024,557.252 C182.527988,557.252 180.392009,556.29201 178.616,554.372 Z M211.888,551.78 L214.084,551.78 L214.084,557 L210.952,557 C208.695989,557 206.950006,556.502005 205.714,555.506 C204.477994,554.509995 203.86,552.800012 203.86,550.376 L203.86,542.024 L201.988,542.024 L201.988,536.912 L203.86,536.912 L203.86,532.016 L210.016,532.016 L210.016,536.912 L214.048,536.912 L214.048,542.024 L210.016,542.024 L210.016,550.376 C210.016,551.312005 210.639994,551.78 211.888,551.78 Z M227.628,557.252 C224.699985,557.252 222.300009,556.310009 220.428,554.426 C218.555991,552.541991 217.62,550.040016 217.62,546.92 C217.62,543.799984 218.549991,541.316009 220.41,539.468 C222.270009,537.619991 224.675985,536.696 227.628,536.696 C230.580015,536.696 233.02799,537.607991 234.972,539.432 C236.91601,541.256009 237.888,543.787984 237.888,547.028 C237.888,547.724003 237.84,548.371997 237.744,548.972 L223.92,548.972 C224.040001,549.860004 224.435997,550.585997 225.108,551.15 C225.780003,551.714003 226.505996,551.996 227.286,551.996 C228.066004,551.996 228.647998,551.918001 229.032,551.762 C229.416002,551.605999 229.697999,551.450001 229.878,551.294 C230.058001,551.137999 230.291999,550.880002 230.58,550.52 L237.24,550.52 C236.663997,552.53601 235.512009,554.161994 233.784,555.398 C232.055991,556.634006 230.004012,557.252 227.628,557.252 Z M231.48,545.12 C231.384,544.183995 230.976004,543.422003 230.256,542.834 C229.535996,542.245997 228.684005,541.952 227.7,541.952 C226.715995,541.952 225.888003,542.245997 225.216,542.834 C224.543997,543.422003 224.124001,544.183995 223.956,545.12 L231.48,545.12 Z M265.22,536.912 L271.016,536.912 L265.004,557 L258.38,557 L255.572,545.12 L252.728,557 L246.104,557 L240.092,536.912 L246.248,536.912 L249.38,551.024 L252.476,536.912 L258.992,536.912 L262.088,551.024 L265.22,536.912 Z M286.864,550.628 C287.752004,549.763996 288.196,548.540008 288.196,546.956 C288.196,545.371992 287.752004,544.154004 286.864,543.302 C285.975996,542.449996 284.956006,542.024 283.804,542.024 C282.651994,542.024 281.632004,542.455996 280.744,543.32 C279.855996,544.184004 279.412,545.407992 279.412,546.992 C279.412,548.576008 279.855996,549.793996 280.744,550.646 C281.632004,551.498004 282.651994,551.924 283.804,551.924 C284.956006,551.924 285.975996,551.492004 286.864,550.628 Z M275.812,554.372 C274.035991,552.45199 273.148,549.992015 273.148,546.992 C273.148,543.991985 274.035991,541.52601 275.812,539.594 C277.588009,537.66199 279.753987,536.696 282.31,536.696 C284.866013,536.696 286.827993,537.643991 288.196,539.54 L288.196,536.912 L294.352,536.912 L294.352,557 L288.196,557 L288.196,554.084 C286.707993,556.196011 284.716013,557.252 282.22,557.252 C279.723988,557.252 277.588009,556.29201 275.812,554.372 Z M305.808,556.604 L297.996,536.912 L304.98,536.912 L309.444,550.052 L314.34,536.912 L320.784,536.912 L307.968,566.576 L301.524,566.576 L305.808,556.604 Z M91.9139999,605.732 C88.9859853,603.499989 86.6220089,600.530019 84.8219999,596.822 C83.0219909,593.113981 82.1219999,589.010022 82.1219999,584.51 C82.1219999,580.009977 83.0219909,575.906019 84.8219999,572.198 C86.6220089,568.489981 88.9859853,565.532011 91.9139999,563.324 L97.9979999,563.324 L97.9979999,563.9 C91.3739668,569.324027 88.0619999,576.199958 88.0619999,584.528 C88.0619999,592.856042 91.3739668,599.731973 97.9979999,605.156 L97.9979999,605.732 L91.9139999,605.732 Z M107.006,599 L98.042,573.728 L104.594,573.728 L110.858,592.988 L117.122,573.728 L123.674,573.728 L114.71,599 L107.006,599 Z M143.734,591.584 C144.958006,590.263993 145.57,588.500011 145.57,586.292 C145.57,584.083989 144.964006,582.320007 143.752,581 C142.539994,579.679993 140.92001,579.02 138.892,579.02 C136.86399,579.02 135.244006,579.679993 134.032,581 C132.819994,582.320007 132.214,584.083989 132.214,586.292 C132.214,588.500011 132.819994,590.263993 134.032,591.584 C135.244006,592.904007 136.86399,593.564 138.892,593.564 C140.92001,593.564 142.533994,592.904007 143.734,591.584 Z M129.694,595.58 C127.197987,593.131988 125.95,590.036019 125.95,586.292 C125.95,582.547981 127.203987,579.458012 129.712,577.022 C132.220013,574.585988 135.291982,573.368 138.928,573.368 C142.564018,573.368 145.623988,574.585988 148.108,577.022 C150.592012,579.458012 151.834,582.547981 151.834,586.292 C151.834,590.036019 150.586012,593.131988 148.09,595.58 C145.593987,598.028012 142.534018,599.252 138.91,599.252 C135.285982,599.252 132.214013,598.028012 129.694,595.58 Z M156.594,573.728 L162.75,573.728 L162.75,594.32 L170.418,594.32 L170.418,599 L156.594,599 L156.594,573.728 Z M172.91,578.408 L172.91,573.728 L192.854,573.728 L192.854,578.408 L185.942,578.408 L185.942,599 L179.786,599 L179.786,578.408 L172.91,578.408 Z M195.598,578.408 L195.598,573.728 L215.542,573.728 L215.542,578.408 L208.63,578.408 L208.63,599 L202.474,599 L202.474,578.408 L195.598,578.408 Z M226.17,589.172 L226.17,599 L220.014,599 L220.014,573.728 L229.986,573.728 C232.914015,573.728 235.193992,574.483992 236.826,575.996 C238.458008,577.508008 239.274,579.331989 239.274,581.468 C239.274,582.932007 238.830004,584.359993 237.942,585.752 C237.053996,587.144007 235.60201,588.127997 233.586,588.704 L239.778,599 L232.578,599 L226.89,589.172 L226.17,589.172 Z M226.17,578.408 L226.17,584.492 L229.986,584.492 C230.922005,584.492 231.659997,584.216003 232.2,583.664 C232.740003,583.111997 233.01,582.386005 233.01,581.486 C233.01,580.585995 232.734003,579.848003 232.182,579.272 C231.629997,578.695997 230.898005,578.408 229.986,578.408 L226.17,578.408 Z M261.17,591.584 C262.394006,590.263993 263.006,588.500011 263.006,586.292 C263.006,584.083989 262.400006,582.320007 261.188,581 C259.975994,579.679993 258.35601,579.02 256.328,579.02 C254.29999,579.02 252.680006,579.679993 251.468,581 C250.255994,582.320007 249.65,584.083989 249.65,586.292 C249.65,588.500011 250.255994,590.263993 251.468,591.584 C252.680006,592.904007 254.29999,593.564 256.328,593.564 C258.35601,593.564 259.969994,592.904007 261.17,591.584 Z M247.13,595.58 C244.633988,593.131988 243.386,590.036019 243.386,586.292 C243.386,582.547981 244.639987,579.458012 247.148,577.022 C249.656013,574.585988 252.727982,573.368 256.364,573.368 C260.000018,573.368 263.059988,574.585988 265.544,577.022 C268.028012,579.458012 269.27,582.547981 269.27,586.292 C269.27,590.036019 268.022013,593.131988 265.526,595.58 C263.029988,598.028012 259.970018,599.252 256.346,599.252 C252.721982,599.252 249.650013,598.028012 247.13,595.58 Z M290.482,573.656 L296.638,573.656 L296.638,599 L290.482,599 L280.186,583.052 L280.186,599 L274.03,599 L274.03,573.656 L280.186,573.656 L290.482,589.604 L290.482,573.656 Z M305.286,563.324 C308.214015,565.532011 310.577991,568.489981 312.378,572.198 C314.178009,575.906019 315.078,580.009977 315.078,584.51 C315.078,589.010022 314.178009,593.113981 312.378,596.822 C310.577991,600.530019 308.214015,603.499989 305.286,605.732 L299.202,605.732 L299.202,605.156 C305.826033,599.731973 309.138,592.856042 309.138,584.528 C309.138,576.199958 305.826033,569.324027 299.202,563.9 L299.202,563.324 L305.286,563.324 Z" id="IoT-Gateway-(VOLTTRO" fill="#1C213F" mask="url(#mask-2)"></path>
            <path d="M668.002,653 L446.331,653 C423.966,653 405.667,634.701 405.667,612.335 L405.667,521.665 C405.667,499.299 423.966,481 446.331,481 L668.002,481 C690.368,481 708.667,499.299 708.667,521.665 L708.667,612.335 C708.667,634.701 690.368,653 668.002,653" id="Fill-238" fill="#BABAB9" mask="url(#mask-2)"></path>
            <path d="M476.184,536.912 L476.184,539.864 C477.456006,537.751989 479.483986,536.696 482.268,536.696 C483.756007,536.696 485.081994,537.031997 486.246,537.704 C487.410006,538.376003 488.315997,539.335994 488.964,540.584 C489.708004,539.407994 490.673994,538.466004 491.862,537.758 C493.050006,537.049996 494.375993,536.696 495.84,536.696 C498.288012,536.696 500.231993,537.451992 501.672,538.964 C503.112007,540.476008 503.832,542.575987 503.832,545.264 L503.832,557 L497.712,557 L497.712,546.092 C497.712,544.795994 497.370003,543.794004 496.686,543.086 C496.001997,542.377996 495.060006,542.024 493.86,542.024 C492.659994,542.024 491.718003,542.377996 491.034,543.086 C490.349997,543.794004 490.008,544.795994 490.008,546.092 L490.008,557 L483.888,557 L483.888,546.092 C483.888,544.795994 483.546003,543.794004 482.862,543.086 C482.177997,542.377996 481.236006,542.024 480.036,542.024 C478.835994,542.024 477.894003,542.377996 477.21,543.086 C476.525997,543.794004 476.184,544.795994 476.184,546.092 L476.184,557 L470.028,557 L470.028,536.912 L476.184,536.912 Z M518.384,557.252 C515.455985,557.252 513.056009,556.310009 511.184,554.426 C509.311991,552.541991 508.376,550.040016 508.376,546.92 C508.376,543.799984 509.305991,541.316009 511.166,539.468 C513.026009,537.619991 515.431985,536.696 518.384,536.696 C521.336015,536.696 523.78399,537.607991 525.728,539.432 C527.67201,541.256009 528.644,543.787984 528.644,547.028 C528.644,547.724003 528.596,548.371997 528.5,548.972 L514.676,548.972 C514.796001,549.860004 515.191997,550.585997 515.864,551.15 C516.536003,551.714003 517.261996,551.996 518.042,551.996 C518.822004,551.996 519.403998,551.918001 519.788,551.762 C520.172002,551.605999 520.453999,551.450001 520.634,551.294 C520.814001,551.137999 521.047999,550.880002 521.336,550.52 L527.996,550.52 C527.419997,552.53601 526.268009,554.161994 524.54,555.398 C522.811991,556.634006 520.760012,557.252 518.384,557.252 Z M522.236,545.12 C522.139999,544.183995 521.732004,543.422003 521.012,542.834 C520.291996,542.245997 519.440005,541.952 518.456,541.952 C517.471995,541.952 516.644003,542.245997 515.972,542.834 C515.299997,543.422003 514.880001,544.183995 514.712,545.12 L522.236,545.12 Z M532.036,542.96 C532.036,541.183991 532.791992,539.696006 534.304,538.496 C535.816008,537.295994 537.861987,536.696 540.442,536.696 C543.022013,536.696 545.103992,537.283994 546.688,538.46 C548.272008,539.636006 549.112,541.24399 549.208,543.284 L542.908,543.284 C542.836,542.587997 542.596002,542.114001 542.188,541.862 C541.779998,541.609999 541.168004,541.484 540.352,541.484 C538.743992,541.484 537.94,541.975995 537.94,542.96 C537.94,543.848004 538.92399,544.459998 540.892,544.796 C542.88401,545.132002 544.695992,545.647997 546.328,546.344 C547.168004,546.680002 547.869997,547.237996 548.434,548.018 C548.998003,548.798004 549.28,549.751994 549.28,550.88 C549.28,552.752009 548.476008,554.281994 546.868,555.47 C545.259992,556.658006 543.232012,557.252 540.784,557.252 C538.335988,557.252 536.296008,556.694006 534.664,555.578 C533.031992,554.461994 532.144001,552.812011 532,550.628 L538.3,550.628 C538.468001,551.852006 539.331992,552.464 540.892,552.464 C541.612004,552.464 542.205998,552.296002 542.674,551.96 C543.142002,551.623998 543.376,551.192003 543.376,550.664 C543.376,550.135997 542.986004,549.716002 542.206,549.404 C541.425996,549.091998 540.484006,548.828001 539.38,548.612 C538.275994,548.395999 537.166006,548.126002 536.05,547.802 C534.933994,547.477998 533.986004,546.914004 533.206,546.11 C532.425996,545.305996 532.036,544.256006 532.036,542.96 Z M552.816,542.96 C552.816,541.183991 553.571992,539.696006 555.084,538.496 C556.596008,537.295994 558.641987,536.696 561.222,536.696 C563.802013,536.696 565.883992,537.283994 567.468,538.46 C569.052008,539.636006 569.892,541.24399 569.988,543.284 L563.688,543.284 C563.616,542.587997 563.376002,542.114001 562.968,541.862 C562.559998,541.609999 561.948004,541.484 561.132,541.484 C559.523992,541.484 558.72,541.975995 558.72,542.96 C558.72,543.848004 559.70399,544.459998 561.672,544.796 C563.66401,545.132002 565.475992,545.647997 567.108,546.344 C567.948004,546.680002 568.649997,547.237996 569.214,548.018 C569.778003,548.798004 570.06,549.751994 570.06,550.88 C570.06,552.752009 569.256008,554.281994 567.648,555.47 C566.039992,556.658006 564.012012,557.252 561.564,557.252 C559.115988,557.252 557.076008,556.694006 555.444,555.578 C553.811992,554.461994 552.924001,552.812011 552.78,550.628 L559.08,550.628 C559.248001,551.852006 560.111992,552.464 561.672,552.464 C562.392004,552.464 562.985998,552.296002 563.454,551.96 C563.922002,551.623998 564.156,551.192003 564.156,550.664 C564.156,550.135997 563.766004,549.716002 562.986,549.404 C562.205996,549.091998 561.264006,548.828001 560.16,548.612 C559.055994,548.395999 557.946006,548.126002 556.83,547.802 C555.713994,547.477998 554.766004,546.914004 553.986,546.11 C553.205996,545.305996 552.816,544.256006 552.816,542.96 Z M587.204,550.628 C588.092004,549.763996 588.536,548.540008 588.536,546.956 C588.536,545.371992 588.092004,544.154004 587.204,543.302 C586.315996,542.449996 585.296006,542.024 584.144,542.024 C582.991994,542.024 581.972004,542.455996 581.084,543.32 C580.195996,544.184004 579.752,545.407992 579.752,546.992 C579.752,548.576008 580.195996,549.793996 581.084,550.646 C581.972004,551.498004 582.991994,551.924 584.144,551.924 C585.296006,551.924 586.315996,551.492004 587.204,550.628 Z M576.152,554.372 C574.375991,552.45199 573.488,549.992015 573.488,546.992 C573.488,543.991985 574.375991,541.52601 576.152,539.594 C577.928009,537.66199 580.093987,536.696 582.65,536.696 C585.206013,536.696 587.167993,537.643991 588.536,539.54 L588.536,536.912 L594.692,536.912 L594.692,557 L588.536,557 L588.536,554.084 C587.047993,556.196011 585.056012,557.252 582.56,557.252 C580.063988,557.252 577.928009,556.29201 576.152,554.372 Z M602.08,554.372 C600.303991,552.45199 599.416,549.992015 599.416,546.992 C599.416,543.991985 600.303991,541.52601 602.08,539.594 C603.856009,537.66199 606.021987,536.696 608.578,536.696 C611.134013,536.696 613.095993,537.643991 614.464,539.54 L614.464,536.912 L620.62,536.912 L620.62,556.892 C620.62,559.700014 619.852008,562.039991 618.316,563.912 C617.547996,564.872005 616.498007,565.615997 615.166,566.144 C613.833993,566.672003 612.292009,566.936 610.54,566.936 C607.467985,566.936 605.032009,566.312006 603.232,565.064 C601.431991,563.815994 600.412001,561.908013 600.172,559.34 L606.22,559.34 C606.796003,560.852008 608.235988,561.608 610.54,561.608 C611.668006,561.608 612.603996,561.230004 613.348,560.474 C614.092004,559.717996 614.464,558.524008 614.464,556.892 L614.464,554.084 C612.975993,556.196011 610.984012,557.252 608.488,557.252 C605.991988,557.252 603.856009,556.29201 602.08,554.372 Z M613.132,550.628 C614.020004,549.763996 614.464,548.540008 614.464,546.956 C614.464,545.371992 614.020004,544.154004 613.132,543.302 C612.243996,542.449996 611.224006,542.024 610.072,542.024 C608.919994,542.024 607.900004,542.455996 607.012,543.32 C606.123996,544.184004 605.68,545.407992 605.68,546.992 C605.68,548.576008 606.123996,549.793996 607.012,550.646 C607.900004,551.498004 608.919994,551.924 610.072,551.924 C611.224006,551.924 612.243996,551.492004 613.132,550.628 Z M635.352,557.252 C632.423985,557.252 630.024009,556.310009 628.152,554.426 C626.279991,552.541991 625.344,550.040016 625.344,546.92 C625.344,543.799984 626.273991,541.316009 628.134,539.468 C629.994009,537.619991 632.399985,536.696 635.352,536.696 C638.304015,536.696 640.75199,537.607991 642.696,539.432 C644.64001,541.256009 645.612,543.787984 645.612,547.028 C645.612,547.724003 645.564001,548.371997 645.468,548.972 L631.644,548.972 C631.764001,549.860004 632.159997,550.585997 632.832,551.15 C633.504003,551.714003 634.229996,551.996 635.01,551.996 C635.790004,551.996 636.371998,551.918001 636.756,551.762 C637.140002,551.605999 637.421999,551.450001 637.602,551.294 C637.782001,551.137999 638.015999,550.880002 638.304,550.52 L644.964,550.52 C644.387997,552.53601 643.236009,554.161994 641.508,555.398 C639.779991,556.634006 637.728012,557.252 635.352,557.252 Z M639.204,545.12 C639.108,544.183995 638.700004,543.422003 637.98,542.834 C637.259996,542.245997 636.408005,541.952 635.424,541.952 C634.439995,541.952 633.612003,542.245997 632.94,542.834 C632.267997,543.422003 631.848001,544.183995 631.68,545.12 L639.204,545.12 Z M508.696,592.664 C509.584004,591.799996 510.028,590.576008 510.028,588.992 C510.028,587.407992 509.584004,586.184004 508.696,585.32 C507.807996,584.455996 506.788006,584.024 505.636,584.024 C504.483994,584.024 503.464004,584.449996 502.576,585.302 C501.687996,586.154004 501.244,587.371992 501.244,588.956 C501.244,590.540008 501.687996,591.763996 502.576,592.628 C503.464004,593.492004 504.483994,593.924 505.636,593.924 C506.788006,593.924 507.807996,593.504004 508.696,592.664 Z M501.244,581.54 C502.612007,579.643991 504.573987,578.696 507.13,578.696 C509.686013,578.696 511.851991,579.66199 513.628,581.594 C515.404009,583.52601 516.292,585.991985 516.292,588.992 C516.292,591.992015 515.404009,594.45199 513.628,596.372 C511.851991,598.29201 509.704013,599.252 507.184,599.252 C504.663987,599.252 502.684007,598.196011 501.244,596.084 L501.244,599 L495.088,599 L495.088,572.36 L501.244,572.36 L501.244,581.54 Z M527.172,578.912 L527.172,582.656 C528.612007,580.015987 530.531988,578.696 532.932,578.696 L532.932,584.96 L531.42,584.96 C530.003993,584.96 528.942004,585.295997 528.234,585.968 C527.525996,586.640003 527.172,587.815992 527.172,589.496 L527.172,599 L521.016,599 L521.016,578.912 L527.172,578.912 Z M549.14,592.7 C549.956004,591.835996 550.364,590.588008 550.364,588.956 C550.364,587.323992 549.944004,586.082004 549.104,585.23 C548.263996,584.377996 547.268006,583.952 546.116,583.952 C544.963994,583.952 543.974004,584.377996 543.146,585.23 C542.317996,586.082004 541.904,587.323992 541.904,588.956 C541.904,590.588008 542.329996,591.835996 543.182,592.7 C544.034004,593.564004 545.035994,593.996 546.188,593.996 C547.340006,593.996 548.323996,593.564004 549.14,592.7 Z M538.664,596.408 C536.64799,594.511991 535.64,592.016015 535.64,588.92 C535.64,585.823985 536.64799,583.346009 538.664,581.486 C540.68001,579.625991 543.175985,578.696 546.152,578.696 C549.128015,578.696 551.61799,579.625991 553.622,581.486 C555.62601,583.346009 556.628,585.823985 556.628,588.92 C556.628,592.016015 555.63201,594.511991 553.64,596.408 C551.64799,598.304009 549.164015,599.252 546.188,599.252 C543.211985,599.252 540.70401,598.304009 538.664,596.408 Z M567.544,599 L561.388,599 L561.388,572.36 L567.544,572.36 L567.544,587.3 L573.772,578.912 L582.052,578.912 L573.448,589.172 L582.052,599 L573.88,599 L567.544,590.972 L567.544,599 Z M594.228,599.252 C591.299985,599.252 588.900009,598.310009 587.028,596.426 C585.155991,594.541991 584.22,592.040016 584.22,588.92 C584.22,585.799984 585.149991,583.316009 587.01,581.468 C588.870009,579.619991 591.275985,578.696 594.228,578.696 C597.180015,578.696 599.62799,579.607991 601.572,581.432 C603.51601,583.256009 604.488,585.787984 604.488,589.028 C604.488,589.724003 604.44,590.371997 604.344,590.972 L590.52,590.972 C590.640001,591.860004 591.035997,592.585997 591.708,593.15 C592.380003,593.714003 593.105996,593.996 593.886,593.996 C594.666004,593.996 595.247998,593.918001 595.632,593.762 C596.016002,593.605999 596.297999,593.450001 596.478,593.294 C596.658001,593.137999 596.891999,592.880002 597.18,592.52 L603.84,592.52 C603.263997,594.53601 602.112009,596.161994 600.384,597.398 C598.655991,598.634006 596.604012,599.252 594.228,599.252 Z M598.08,587.12 C597.984,586.183995 597.576004,585.422003 596.856,584.834 C596.135996,584.245997 595.284005,583.952 594.3,583.952 C593.315995,583.952 592.488003,584.245997 591.816,584.834 C591.143997,585.422003 590.724001,586.183995 590.556,587.12 L598.08,587.12 Z M615.404,578.912 L615.404,582.656 C616.844007,580.015987 618.763988,578.696 621.164,578.696 L621.164,584.96 L619.652,584.96 C618.235993,584.96 617.174004,585.295997 616.466,585.968 C615.757996,586.640003 615.404,587.815992 615.404,589.496 L615.404,599 L609.248,599 L609.248,578.912 L615.404,578.912 Z" id="message-broker" fill="#1C213F" mask="url(#mask-2)"></path>
            <path d="M1385.33,653 L1163.66,653 C1141.3,653 1123,634.701 1123,612.335 L1123,521.665 C1123,499.299 1141.3,481 1163.66,481 L1385.33,481 C1407.7,481 1426,499.299 1426,521.665 L1426,612.335 C1426,634.701 1407.7,653 1385.33,653" id="Fill-239" fill="#BABAB9" mask="url(#mask-2)"></path>
            <path d="M1026.336,653 L804.664,653 C782.298,653 764,634.701 764,612.335 L764,521.665 C764,499.299 782.298,481 804.664,481 L1026.336,481 C1048.696,481 1066.996,499.299 1066.996,521.665 L1066.996,612.335 C1066.996,634.701 1048.696,653 1026.336,653" id="Fill-240" fill="#BABAB9" mask="url(#mask-2)"></path>
            <path d="M816.326,550.628 C817.214004,549.763996 817.658,548.540008 817.658,546.956 C817.658,545.371992 817.214004,544.154004 816.326,543.302 C815.437995,542.449996 814.418006,542.024 813.266,542.024 C812.113994,542.024 811.094004,542.455996 810.206,543.32 C809.317995,544.184004 808.874,545.407992 808.874,546.992 C808.874,548.576008 809.317995,549.793996 810.206,550.646 C811.094004,551.498004 812.113994,551.924 813.266,551.924 C814.418006,551.924 815.437995,551.492004 816.326,550.628 Z M805.274,554.372 C803.497991,552.45199 802.61,549.992015 802.61,546.992 C802.61,543.991985 803.497991,541.52601 805.274,539.594 C807.050009,537.66199 809.215987,536.696 811.772,536.696 C814.328013,536.696 816.289993,537.643991 817.658,539.54 L817.658,536.912 L823.814,536.912 L823.814,557 L817.658,557 L817.658,554.084 C816.169992,556.196011 814.178012,557.252 811.682,557.252 C809.185987,557.252 807.050009,556.29201 805.274,554.372 Z M843.622,550.664 C844.510004,549.799996 844.954,548.576008 844.954,546.992 C844.954,545.407992 844.510004,544.184004 843.622,543.32 C842.733996,542.455996 841.714006,542.024 840.562,542.024 C839.409994,542.024 838.390004,542.449996 837.502,543.302 C836.613996,544.154004 836.17,545.371992 836.17,546.956 C836.17,548.540008 836.613996,549.763996 837.502,550.628 C838.390004,551.492004 839.409994,551.924 840.562,551.924 C841.714006,551.924 842.733996,551.504004 843.622,550.664 Z M836.17,539.54 C837.538007,537.643991 839.499987,536.696 842.056,536.696 C844.612013,536.696 846.777991,537.66199 848.554,539.594 C850.330009,541.52601 851.218,543.991985 851.218,546.992 C851.218,549.992015 850.330009,552.45199 848.554,554.372 C846.777991,556.29201 844.630013,557.252 842.11,557.252 C839.589987,557.252 837.610007,556.196011 836.17,554.084 L836.17,566.576 L830.014,566.576 L830.014,536.912 L836.17,536.912 L836.17,539.54 Z M869.55,550.664 C870.438004,549.799996 870.882,548.576008 870.882,546.992 C870.882,545.407992 870.438004,544.184004 869.55,543.32 C868.661996,542.455996 867.642006,542.024 866.49,542.024 C865.337994,542.024 864.318004,542.449996 863.43,543.302 C862.541996,544.154004 862.098,545.371992 862.098,546.956 C862.098,548.540008 862.541996,549.763996 863.43,550.628 C864.318004,551.492004 865.337994,551.924 866.49,551.924 C867.642006,551.924 868.661996,551.504004 869.55,550.664 Z M862.098,539.54 C863.466007,537.643991 865.427987,536.696 867.984,536.696 C870.540013,536.696 872.705991,537.66199 874.482,539.594 C876.258009,541.52601 877.146,543.991985 877.146,546.992 C877.146,549.992015 876.258009,552.45199 874.482,554.372 C872.705991,556.29201 870.558013,557.252 868.038,557.252 C865.517987,557.252 863.538007,556.196011 862.098,554.084 L862.098,566.576 L855.942,566.576 L855.942,536.912 L862.098,536.912 L862.098,539.54 Z M881.87,557 L881.87,530.36 L888.026,530.36 L888.026,557 L881.87,557 Z M899.842,534.644 C899.145997,535.340003 898.294005,535.688 897.286,535.688 C896.277995,535.688 895.426003,535.340003 894.73,534.644 C894.033997,533.947997 893.686,533.090005 893.686,532.07 C893.686,531.049995 894.033997,530.192003 894.73,529.496 C895.426003,528.799997 896.277995,528.452 897.286,528.452 C898.294005,528.452 899.145997,528.799997 899.842,529.496 C900.538003,530.192003 900.886,531.049995 900.886,532.07 C900.886,533.090005 900.538003,533.947997 899.842,534.644 Z M894.226,557 L894.226,536.912 L900.382,536.912 L900.382,557 L894.226,557 Z M907.878,554.444 C906.029991,552.571991 905.106,550.076016 905.106,546.956 C905.106,543.835984 906.035991,541.346009 907.896,539.486 C909.756009,537.625991 912.161985,536.696 915.114,536.696 C917.562012,536.696 919.637991,537.301994 921.342,538.514 C923.046009,539.726006 924.173997,541.459989 924.726,543.716 L918.066,543.716 C917.489997,542.515994 916.548007,541.916 915.24,541.916 C913.931993,541.916 912.960003,542.377995 912.324,543.302 C911.687997,544.226005 911.37,545.443992 911.37,546.956 C911.37,548.468008 911.687997,549.685995 912.324,550.61 C912.960003,551.534005 913.889994,551.996 915.114,551.996 C915.882004,551.996 916.481998,551.864001 916.914,551.6 C917.346002,551.335999 917.729998,550.868003 918.066,550.196 L924.726,550.196 C924.173997,552.356011 923.034009,554.071994 921.306,555.344 C919.577991,556.616006 917.514012,557.252 915.114,557.252 C912.161985,557.252 909.750009,556.316009 907.878,554.444 Z M941.222,550.628 C942.110004,549.763996 942.554,548.540008 942.554,546.956 C942.554,545.371992 942.110004,544.154004 941.222,543.302 C940.333996,542.449996 939.314006,542.024 938.162,542.024 C937.009994,542.024 935.990004,542.455996 935.102,543.32 C934.213996,544.184004 933.77,545.407992 933.77,546.992 C933.77,548.576008 934.213996,549.793996 935.102,550.646 C935.990004,551.498004 937.009994,551.924 938.162,551.924 C939.314006,551.924 940.333996,551.492004 941.222,550.628 Z M930.17,554.372 C928.393991,552.45199 927.506,549.992015 927.506,546.992 C927.506,543.991985 928.393991,541.52601 930.17,539.594 C931.946009,537.66199 934.111987,536.696 936.668,536.696 C939.224013,536.696 941.185993,537.643991 942.554,539.54 L942.554,536.912 L948.71,536.912 L948.71,557 L942.554,557 L942.554,554.084 C941.065993,556.196011 939.074012,557.252 936.578,557.252 C934.081988,557.252 931.946009,556.29201 930.17,554.372 Z M963.442,551.78 L965.638,551.78 L965.638,557 L962.506,557 C960.249989,557 958.504006,556.502005 957.268,555.506 C956.031994,554.509995 955.414,552.800012 955.414,550.376 L955.414,542.024 L953.542,542.024 L953.542,536.912 L955.414,536.912 L955.414,532.016 L961.57,532.016 L961.57,536.912 L965.602,536.912 L965.602,542.024 L961.57,542.024 L961.57,550.376 C961.57,551.312005 962.193994,551.78 963.442,551.78 Z M976.266,534.644 C975.569997,535.340003 974.718005,535.688 973.71,535.688 C972.701995,535.688 971.850004,535.340003 971.154,534.644 C970.457997,533.947997 970.11,533.090005 970.11,532.07 C970.11,531.049995 970.457997,530.192003 971.154,529.496 C971.850004,528.799997 972.701995,528.452 973.71,528.452 C974.718005,528.452 975.569997,528.799997 976.266,529.496 C976.962004,530.192003 977.31,531.049995 977.31,532.07 C977.31,533.090005 976.962004,533.947997 976.266,534.644 Z M970.65,557 L970.65,536.912 L976.806,536.912 L976.806,557 L970.65,557 Z M995.066,550.7 C995.882004,549.835996 996.29,548.588008 996.29,546.956 C996.29,545.323992 995.870004,544.082004 995.03,543.23 C994.189996,542.377996 993.194006,541.952 992.042,541.952 C990.889994,541.952 989.900004,542.377996 989.072,543.23 C988.243996,544.082004 987.83,545.323992 987.83,546.956 C987.83,548.588008 988.255996,549.835996 989.108,550.7 C989.960004,551.564004 990.961994,551.996 992.114,551.996 C993.266006,551.996 994.249996,551.564004 995.066,550.7 Z M984.59,554.408 C982.57399,552.511991 981.566,550.016015 981.566,546.92 C981.566,543.823985 982.57399,541.346009 984.59,539.486 C986.60601,537.625991 989.101985,536.696 992.078,536.696 C995.054015,536.696 997.54399,537.625991 999.548,539.486 C1001.55201,541.346009 1002.554,543.823985 1002.554,546.92 C1002.554,550.016015 1001.55801,552.511991 999.566,554.408 C997.57399,556.304009 995.090015,557.252 992.114,557.252 C989.137985,557.252 986.63001,556.304009 984.59,554.408 Z M1013.47,536.912 L1013.47,539.864 C1014.74201,537.751989 1016.76999,536.696 1019.554,536.696 C1021.85801,536.696 1023.72399,537.463992 1025.152,539 C1026.58001,540.536008 1027.294,542.623987 1027.294,545.264 L1027.294,557 L1021.174,557 L1021.174,546.092 C1021.174,544.795994 1020.832,543.794004 1020.148,543.086 C1019.464,542.377996 1018.52201,542.024 1017.322,542.024 C1016.12199,542.024 1015.18,542.377996 1014.496,543.086 C1013.812,543.794004 1013.47,544.795994 1013.47,546.092 L1013.47,557 L1007.314,557 L1007.314,536.912 L1013.47,536.912 Z M864.572,578.912 L864.572,581.864 C865.844006,579.751989 867.871986,578.696 870.656,578.696 C872.960011,578.696 874.825993,579.463992 876.254,581 C877.682007,582.536008 878.396,584.623987 878.396,587.264 L878.396,599 L872.276,599 L872.276,588.092 C872.276,586.795994 871.934003,585.794004 871.25,585.086 C870.565997,584.377996 869.624006,584.024 868.424,584.024 C867.223994,584.024 866.282003,584.377996 865.598,585.086 C864.913997,585.794004 864.572,586.795994 864.572,588.092 L864.572,599 L858.416,599 L858.416,578.912 L864.572,578.912 Z M896.476,592.7 C897.292004,591.835996 897.7,590.588008 897.7,588.956 C897.7,587.323992 897.280004,586.082004 896.44,585.23 C895.599996,584.377996 894.604006,583.952 893.452,583.952 C892.299994,583.952 891.310004,584.377996 890.482,585.23 C889.653996,586.082004 889.24,587.323992 889.24,588.956 C889.24,590.588008 889.665996,591.835996 890.518,592.7 C891.370004,593.564004 892.371994,593.996 893.524,593.996 C894.676006,593.996 895.659996,593.564004 896.476,592.7 Z M886,596.408 C883.98399,594.511991 882.976,592.016015 882.976,588.92 C882.976,585.823985 883.98399,583.346009 886,581.486 C888.01601,579.625991 890.511985,578.696 893.488,578.696 C896.464015,578.696 898.95399,579.625991 900.958,581.486 C902.96201,583.346009 903.964,585.823985 903.964,588.92 C903.964,592.016015 902.96801,594.511991 900.976,596.408 C898.98399,598.304009 896.500015,599.252 893.524,599.252 C890.547985,599.252 888.04001,598.304009 886,596.408 Z M920.964,592.628 C921.852004,591.763996 922.296,590.540008 922.296,588.956 C922.296,587.371992 921.852004,586.154004 920.964,585.302 C920.075996,584.449996 919.056006,584.024 917.904,584.024 C916.751994,584.024 915.732004,584.455996 914.844,585.32 C913.955996,586.184004 913.512,587.407992 913.512,588.992 C913.512,590.576008 913.955996,591.793996 914.844,592.646 C915.732004,593.498004 916.751994,593.924 917.904,593.924 C919.056006,593.924 920.075996,593.492004 920.964,592.628 Z M909.912,596.372 C908.135991,594.45199 907.248,591.992015 907.248,588.992 C907.248,585.991985 908.135991,583.52601 909.912,581.594 C911.688009,579.66199 913.853987,578.696 916.41,578.696 C918.966013,578.696 920.927993,579.643991 922.296,581.54 L922.296,572.36 L928.452,572.36 L928.452,599 L922.296,599 L922.296,596.084 C920.807993,598.196011 918.816012,599.252 916.32,599.252 C913.823988,599.252 911.688009,598.29201 909.912,596.372 Z M943.184,599.252 C940.255985,599.252 937.856009,598.310009 935.984,596.426 C934.111991,594.541991 933.176,592.040016 933.176,588.92 C933.176,585.799984 934.105991,583.316009 935.966,581.468 C937.826009,579.619991 940.231985,578.696 943.184,578.696 C946.136015,578.696 948.58399,579.607991 950.528,581.432 C952.47201,583.256009 953.444,585.787984 953.444,589.028 C953.444,589.724003 953.396,590.371997 953.3,590.972 L939.476,590.972 C939.596001,591.860004 939.991997,592.585997 940.664,593.15 C941.336003,593.714003 942.061996,593.996 942.842,593.996 C943.622004,593.996 944.203998,593.918001 944.588,593.762 C944.972002,593.605999 945.253999,593.450001 945.434,593.294 C945.614001,593.137999 945.847999,592.880002 946.136,592.52 L952.796,592.52 C952.219997,594.53601 951.068009,596.161994 949.34,597.398 C947.611991,598.634006 945.560012,599.252 943.184,599.252 Z M947.036,587.12 C946.94,586.183995 946.532004,585.422003 945.812,584.834 C945.091996,584.245997 944.240005,583.952 943.256,583.952 C942.271995,583.952 941.444003,584.245997 940.772,584.834 C940.099997,585.422003 939.680001,586.183995 939.512,587.12 L947.036,587.12 Z M956.836,584.96 C956.836,583.183991 957.591992,581.696006 959.104,580.496 C960.616008,579.295994 962.661987,578.696 965.242,578.696 C967.822013,578.696 969.903992,579.283994 971.488,580.46 C973.072008,581.636006 973.912,583.24399 974.008,585.284 L967.708,585.284 C967.636,584.587997 967.396002,584.114001 966.988,583.862 C966.579998,583.609999 965.968004,583.484 965.152,583.484 C963.543992,583.484 962.74,583.975995 962.74,584.96 C962.74,585.848004 963.72399,586.459998 965.692,586.796 C967.68401,587.132002 969.495992,587.647997 971.128,588.344 C971.968004,588.680002 972.669997,589.237996 973.234,590.018 C973.798003,590.798004 974.08,591.751994 974.08,592.88 C974.08,594.752009 973.276008,596.281994 971.668,597.47 C970.059992,598.658006 968.032012,599.252 965.584,599.252 C963.135988,599.252 961.096008,598.694006 959.464,597.578 C957.831992,596.461994 956.944001,594.812011 956.8,592.628 L963.1,592.628 C963.268001,593.852006 964.131992,594.464 965.692,594.464 C966.412004,594.464 967.005998,594.296002 967.474,593.96 C967.942002,593.623998 968.176,593.192003 968.176,592.664 C968.176,592.135997 967.786004,591.716002 967.006,591.404 C966.225996,591.091998 965.284006,590.828001 964.18,590.612 C963.075994,590.395999 961.966006,590.126002 960.85,589.802 C959.733994,589.477998 958.786004,588.914004 958.006,588.11 C957.225996,587.305996 956.836,586.256006 956.836,584.96 Z" id="application-nodes" fill="#1C213F" mask="url(#mask-2)"></path>
            <path d="M1204.296,554.444 C1202.44799,552.571991 1201.524,550.076016 1201.524,546.956 C1201.524,543.835984 1202.45399,541.346009 1204.314,539.486 C1206.17401,537.625991 1208.57999,536.696 1211.532,536.696 C1213.98001,536.696 1216.05599,537.301994 1217.76,538.514 C1219.46401,539.726006 1220.592,541.459989 1221.144,543.716 L1214.484,543.716 C1213.908,542.515994 1212.96601,541.916 1211.658,541.916 C1210.34999,541.916 1209.378,542.377995 1208.742,543.302 C1208.106,544.226005 1207.788,545.443992 1207.788,546.956 C1207.788,548.468008 1208.106,549.685995 1208.742,550.61 C1209.378,551.534005 1210.30799,551.996 1211.532,551.996 C1212.3,551.996 1212.9,551.864001 1213.332,551.6 C1213.764,551.335999 1214.148,550.868003 1214.484,550.196 L1221.144,550.196 C1220.592,552.356011 1219.45201,554.071994 1217.724,555.344 C1215.99599,556.616006 1213.93201,557.252 1211.532,557.252 C1208.57999,557.252 1206.16801,556.316009 1204.296,554.444 Z M1231.556,536.912 L1231.556,540.656 C1232.99601,538.015987 1234.91599,536.696 1237.316,536.696 L1237.316,542.96 L1235.804,542.96 C1234.38799,542.96 1233.326,543.295997 1232.618,543.968 C1231.91,544.640003 1231.556,545.815992 1231.556,547.496 L1231.556,557 L1225.4,557 L1225.4,536.912 L1231.556,536.912 Z M1253.704,550.628 C1254.592,549.763996 1255.036,548.540008 1255.036,546.956 C1255.036,545.371992 1254.592,544.154004 1253.704,543.302 C1252.816,542.449996 1251.79601,542.024 1250.644,542.024 C1249.49199,542.024 1248.472,542.455996 1247.584,543.32 C1246.696,544.184004 1246.252,545.407992 1246.252,546.992 C1246.252,548.576008 1246.696,549.793996 1247.584,550.646 C1248.472,551.498004 1249.49199,551.924 1250.644,551.924 C1251.79601,551.924 1252.816,551.492004 1253.704,550.628 Z M1242.652,554.372 C1240.87599,552.45199 1239.988,549.992015 1239.988,546.992 C1239.988,543.991985 1240.87599,541.52601 1242.652,539.594 C1244.42801,537.66199 1246.59399,536.696 1249.15,536.696 C1251.70601,536.696 1253.66799,537.643991 1255.036,539.54 L1255.036,536.912 L1261.192,536.912 L1261.192,557 L1255.036,557 L1255.036,554.084 C1253.54799,556.196011 1251.55601,557.252 1249.06,557.252 C1246.56399,557.252 1244.42801,556.29201 1242.652,554.372 Z M1275.924,551.78 L1278.12,551.78 L1278.12,557 L1274.988,557 C1272.73199,557 1270.98601,556.502005 1269.75,555.506 C1268.51399,554.509995 1267.896,552.800012 1267.896,550.376 L1267.896,542.024 L1266.024,542.024 L1266.024,536.912 L1267.896,536.912 L1267.896,532.016 L1274.052,532.016 L1274.052,536.912 L1278.084,536.912 L1278.084,542.024 L1274.052,542.024 L1274.052,550.376 C1274.052,551.312005 1274.67599,551.78 1275.924,551.78 Z M1291.664,557.252 C1288.73599,557.252 1286.33601,556.310009 1284.464,554.426 C1282.59199,552.541991 1281.656,550.040016 1281.656,546.92 C1281.656,543.799984 1282.58599,541.316009 1284.446,539.468 C1286.30601,537.619991 1288.71199,536.696 1291.664,536.696 C1294.61601,536.696 1297.06399,537.607991 1299.008,539.432 C1300.95201,541.256009 1301.924,543.787984 1301.924,547.028 C1301.924,547.724003 1301.876,548.371997 1301.78,548.972 L1287.956,548.972 C1288.076,549.860004 1288.472,550.585997 1289.144,551.15 C1289.816,551.714003 1290.542,551.996 1291.322,551.996 C1292.102,551.996 1292.684,551.918001 1293.068,551.762 C1293.452,551.605999 1293.734,551.450001 1293.914,551.294 C1294.094,551.137999 1294.328,550.880002 1294.616,550.52 L1301.276,550.52 C1300.7,552.53601 1299.54801,554.161994 1297.82,555.398 C1296.09199,556.634006 1294.04001,557.252 1291.664,557.252 Z M1295.516,545.12 C1295.42,544.183995 1295.012,543.422003 1294.292,542.834 C1293.572,542.245997 1292.72,541.952 1291.736,541.952 C1290.752,541.952 1289.924,542.245997 1289.252,542.834 C1288.58,543.422003 1288.16,544.183995 1287.992,545.12 L1295.516,545.12 Z M1311.976,553.652 C1311.976,554.588005 1311.652,555.379997 1311.004,556.028 C1310.356,556.676003 1309.558,557 1308.61,557 C1307.662,557 1306.864,556.676003 1306.216,556.028 C1305.568,555.379997 1305.244,554.582005 1305.244,553.634 C1305.244,552.685995 1305.568,551.888003 1306.216,551.24 C1306.864,550.591997 1307.662,550.268 1308.61,550.268 C1309.558,550.268 1310.356,550.591997 1311.004,551.24 C1311.652,551.888003 1311.976,552.691995 1311.976,553.652 Z M1322.352,534.644 C1321.656,535.340003 1320.80401,535.688 1319.796,535.688 C1318.78799,535.688 1317.936,535.340003 1317.24,534.644 C1316.544,533.947997 1316.196,533.090005 1316.196,532.07 C1316.196,531.049995 1316.544,530.192003 1317.24,529.496 C1317.936,528.799997 1318.78799,528.452 1319.796,528.452 C1320.80401,528.452 1321.656,528.799997 1322.352,529.496 C1323.048,530.192003 1323.396,531.049995 1323.396,532.07 C1323.396,533.090005 1323.048,533.947997 1322.352,534.644 Z M1316.736,557 L1316.736,536.912 L1322.892,536.912 L1322.892,557 L1316.736,557 Z M1341.152,550.7 C1341.968,549.835996 1342.376,548.588008 1342.376,546.956 C1342.376,545.323992 1341.956,544.082004 1341.116,543.23 C1340.276,542.377996 1339.28001,541.952 1338.128,541.952 C1336.97599,541.952 1335.986,542.377996 1335.158,543.23 C1334.33,544.082004 1333.916,545.323992 1333.916,546.956 C1333.916,548.588008 1334.342,549.835996 1335.194,550.7 C1336.046,551.564004 1337.04799,551.996 1338.2,551.996 C1339.35201,551.996 1340.336,551.564004 1341.152,550.7 Z M1330.676,554.408 C1328.65999,552.511991 1327.652,550.016015 1327.652,546.92 C1327.652,543.823985 1328.65999,541.346009 1330.676,539.486 C1332.69201,537.625991 1335.18799,536.696 1338.164,536.696 C1341.14001,536.696 1343.62999,537.625991 1345.634,539.486 C1347.63801,541.346009 1348.64,543.823985 1348.64,546.92 C1348.64,550.016015 1347.64401,552.511991 1345.652,554.408 C1343.65999,556.304009 1341.17601,557.252 1338.2,557.252 C1335.22399,557.252 1332.71601,556.304009 1330.676,554.408 Z M1211.05,596.444 C1209.20199,594.571991 1208.278,592.076016 1208.278,588.956 C1208.278,585.835984 1209.20799,583.346009 1211.068,581.486 C1212.92801,579.625991 1215.33399,578.696 1218.286,578.696 C1220.73401,578.696 1222.80999,579.301994 1224.514,580.514 C1226.21801,581.726006 1227.346,583.459989 1227.898,585.716 L1221.238,585.716 C1220.662,584.515994 1219.72001,583.916 1218.412,583.916 C1217.10399,583.916 1216.132,584.377995 1215.496,585.302 C1214.86,586.226005 1214.542,587.443992 1214.542,588.956 C1214.542,590.468008 1214.86,591.685995 1215.496,592.61 C1216.132,593.534005 1217.06199,593.996 1218.286,593.996 C1219.054,593.996 1219.654,593.864001 1220.086,593.6 C1220.518,593.335999 1220.902,592.868003 1221.238,592.196 L1227.898,592.196 C1227.346,594.356011 1226.20601,596.071994 1224.478,597.344 C1222.74999,598.616006 1220.68601,599.252 1218.286,599.252 C1215.33399,599.252 1212.92201,598.316009 1211.05,596.444 Z M1232.154,599 L1232.154,572.36 L1238.31,572.36 L1238.31,599 L1232.154,599 Z M1258.154,578.912 L1264.31,578.912 L1264.31,599 L1258.154,599 L1258.154,596.048 C1256.88199,598.160011 1254.85401,599.216 1252.07,599.216 C1249.76599,599.216 1247.90001,598.448008 1246.472,596.912 C1245.04399,595.375992 1244.33,593.288013 1244.33,590.648 L1244.33,578.912 L1250.45,578.912 L1250.45,589.82 C1250.45,591.116006 1250.792,592.117996 1251.476,592.826 C1252.16,593.534004 1253.10199,593.888 1254.302,593.888 C1255.50201,593.888 1256.444,593.534004 1257.128,592.826 C1257.812,592.117996 1258.154,591.116006 1258.154,589.82 L1258.154,578.912 Z M1269.142,584.96 C1269.142,583.183991 1269.89799,581.696006 1271.41,580.496 C1272.92201,579.295994 1274.96799,578.696 1277.548,578.696 C1280.12801,578.696 1282.20999,579.283994 1283.794,580.46 C1285.37801,581.636006 1286.218,583.24399 1286.314,585.284 L1280.014,585.284 C1279.942,584.587997 1279.702,584.114001 1279.294,583.862 C1278.886,583.609999 1278.274,583.484 1277.458,583.484 C1275.84999,583.484 1275.046,583.975995 1275.046,584.96 C1275.046,585.848004 1276.02999,586.459998 1277.998,586.796 C1279.99001,587.132002 1281.80199,587.647997 1283.434,588.344 C1284.274,588.680002 1284.976,589.237996 1285.54,590.018 C1286.104,590.798004 1286.386,591.751994 1286.386,592.88 C1286.386,594.752009 1285.58201,596.281994 1283.974,597.47 C1282.36599,598.658006 1280.33801,599.252 1277.89,599.252 C1275.44199,599.252 1273.40201,598.694006 1271.77,597.578 C1270.13799,596.461994 1269.25,594.812011 1269.106,592.628 L1275.406,592.628 C1275.574,593.852006 1276.43799,594.464 1277.998,594.464 C1278.718,594.464 1279.312,594.296002 1279.78,593.96 C1280.248,593.623998 1280.482,593.192003 1280.482,592.664 C1280.482,592.135997 1280.092,591.716002 1279.312,591.404 C1278.532,591.091998 1277.59001,590.828001 1276.486,590.612 C1275.38199,590.395999 1274.27201,590.126002 1273.156,589.802 C1272.03999,589.477998 1271.092,588.914004 1270.312,588.11 C1269.532,587.305996 1269.142,586.256006 1269.142,584.96 Z M1299.822,593.78 L1302.018,593.78 L1302.018,599 L1298.886,599 C1296.62999,599 1294.88401,598.502005 1293.648,597.506 C1292.41199,596.509995 1291.794,594.800012 1291.794,592.376 L1291.794,584.024 L1289.922,584.024 L1289.922,578.912 L1291.794,578.912 L1291.794,574.016 L1297.95,574.016 L1297.95,578.912 L1301.982,578.912 L1301.982,584.024 L1297.95,584.024 L1297.95,592.376 C1297.95,593.312005 1298.57399,593.78 1299.822,593.78 Z M1315.562,599.252 C1312.63399,599.252 1310.23401,598.310009 1308.362,596.426 C1306.48999,594.541991 1305.554,592.040016 1305.554,588.92 C1305.554,585.799984 1306.48399,583.316009 1308.344,581.468 C1310.20401,579.619991 1312.60999,578.696 1315.562,578.696 C1318.51401,578.696 1320.96199,579.607991 1322.906,581.432 C1324.85001,583.256009 1325.822,585.787984 1325.822,589.028 C1325.822,589.724003 1325.774,590.371997 1325.678,590.972 L1311.854,590.972 C1311.974,591.860004 1312.37,592.585997 1313.042,593.15 C1313.714,593.714003 1314.44,593.996 1315.22,593.996 C1316,593.996 1316.582,593.918001 1316.966,593.762 C1317.35,593.605999 1317.632,593.450001 1317.812,593.294 C1317.992,593.137999 1318.226,592.880002 1318.514,592.52 L1325.174,592.52 C1324.598,594.53601 1323.44601,596.161994 1321.718,597.398 C1319.98999,598.634006 1317.93801,599.252 1315.562,599.252 Z M1319.414,587.12 C1319.318,586.183995 1318.91,585.422003 1318.19,584.834 C1317.47,584.245997 1316.618,583.952 1315.634,583.952 C1314.65,583.952 1313.822,584.245997 1313.15,584.834 C1312.478,585.422003 1312.058,586.183995 1311.89,587.12 L1319.414,587.12 Z M1336.738,578.912 L1336.738,582.656 C1338.17801,580.015987 1340.09799,578.696 1342.498,578.696 L1342.498,584.96 L1340.986,584.96 C1339.56999,584.96 1338.508,585.295997 1337.8,585.968 C1337.092,586.640003 1336.738,587.815992 1336.738,589.496 L1336.738,599 L1330.582,599 L1330.582,578.912 L1336.738,578.912 Z" id="crate.io-cluster" fill="#1C213F" mask="url(#mask-2)"></path>
            <path d="M1806.33,922 L1584.66,922 C1562.3,922 1544,903.701 1544,881.335 L1544,790.665 C1544,768.299 1562.3,750 1584.66,750 L1806.33,750 C1828.7,750 1847,768.299 1847,790.665 L1847,881.335 C1847,903.701 1828.7,922 1806.33,922" id="Fill-241" fill="#BABAB9" mask="url(#mask-2)"></path>
            <path d="M1620.052,844.372 C1618.27599,842.45199 1617.388,839.992015 1617.388,836.992 C1617.388,833.991985 1618.27599,831.52601 1620.052,829.594 C1621.82801,827.66199 1623.99399,826.696 1626.55,826.696 C1629.10601,826.696 1631.06799,827.643991 1632.436,829.54 L1632.436,826.912 L1638.592,826.912 L1638.592,846.892 C1638.592,849.700014 1637.82401,852.039991 1636.288,853.912 C1635.52,854.872005 1634.47001,855.615997 1633.138,856.144 C1631.80599,856.672003 1630.26401,856.936 1628.512,856.936 C1625.43998,856.936 1623.00401,856.312006 1621.204,855.064 C1619.40399,853.815994 1618.384,851.908013 1618.144,849.34 L1624.192,849.34 C1624.768,850.852008 1626.20799,851.608 1628.512,851.608 C1629.64001,851.608 1630.576,851.230004 1631.32,850.474 C1632.064,849.717996 1632.436,848.524008 1632.436,846.892 L1632.436,844.084 C1630.94799,846.196011 1628.95601,847.252 1626.46,847.252 C1623.96399,847.252 1621.82801,846.29201 1620.052,844.372 Z M1631.104,840.628 C1631.992,839.763996 1632.436,838.540008 1632.436,836.956 C1632.436,835.371992 1631.992,834.154004 1631.104,833.302 C1630.216,832.449996 1629.19601,832.024 1628.044,832.024 C1626.89199,832.024 1625.872,832.455996 1624.984,833.32 C1624.096,834.184004 1623.652,835.407992 1623.652,836.992 C1623.652,838.576008 1624.096,839.793996 1624.984,840.646 C1625.872,841.498004 1626.89199,841.924 1628.044,841.924 C1629.19601,841.924 1630.216,841.492004 1631.104,840.628 Z M1650.948,826.912 L1650.948,830.656 C1652.38801,828.015987 1654.30799,826.696 1656.708,826.696 L1656.708,832.96 L1655.196,832.96 C1653.77999,832.96 1652.718,833.295997 1652.01,833.968 C1651.302,834.640003 1650.948,835.815992 1650.948,837.496 L1650.948,847 L1644.792,847 L1644.792,826.912 L1650.948,826.912 Z M1673.096,840.628 C1673.984,839.763996 1674.428,838.540008 1674.428,836.956 C1674.428,835.371992 1673.984,834.154004 1673.096,833.302 C1672.208,832.449996 1671.18801,832.024 1670.036,832.024 C1668.88399,832.024 1667.864,832.455996 1666.976,833.32 C1666.088,834.184004 1665.644,835.407992 1665.644,836.992 C1665.644,838.576008 1666.088,839.793996 1666.976,840.646 C1667.864,841.498004 1668.88399,841.924 1670.036,841.924 C1671.18801,841.924 1672.208,841.492004 1673.096,840.628 Z M1662.044,844.372 C1660.26799,842.45199 1659.38,839.992015 1659.38,836.992 C1659.38,833.991985 1660.26799,831.52601 1662.044,829.594 C1663.82001,827.66199 1665.98599,826.696 1668.542,826.696 C1671.09801,826.696 1673.05999,827.643991 1674.428,829.54 L1674.428,826.912 L1680.584,826.912 L1680.584,847 L1674.428,847 L1674.428,844.084 C1672.93999,846.196011 1670.94801,847.252 1668.452,847.252 C1665.95599,847.252 1663.82001,846.29201 1662.044,844.372 Z M1695.568,826.912 L1695.568,832.024 L1693.012,832.024 L1693.012,847 L1686.856,847 L1686.856,832.024 L1684.984,832.024 L1684.984,826.912 L1686.856,826.912 L1686.856,826.156 C1686.856,823.611987 1687.53399,821.752006 1688.89,820.576 C1690.24601,819.399994 1692.37599,818.812 1695.28,818.812 L1695.28,824.032 C1694.464,824.032 1693.882,824.187998 1693.534,824.5 C1693.186,824.812002 1693.012,825.363996 1693.012,826.156 L1693.012,826.912 L1695.568,826.912 Z M1711.92,840.628 C1712.808,839.763996 1713.252,838.540008 1713.252,836.956 C1713.252,835.371992 1712.808,834.154004 1711.92,833.302 C1711.032,832.449996 1710.01201,832.024 1708.86,832.024 C1707.70799,832.024 1706.688,832.455996 1705.8,833.32 C1704.912,834.184004 1704.468,835.407992 1704.468,836.992 C1704.468,838.576008 1704.912,839.793996 1705.8,840.646 C1706.688,841.498004 1707.70799,841.924 1708.86,841.924 C1710.01201,841.924 1711.032,841.492004 1711.92,840.628 Z M1700.868,844.372 C1699.09199,842.45199 1698.204,839.992015 1698.204,836.992 C1698.204,833.991985 1699.09199,831.52601 1700.868,829.594 C1702.64401,827.66199 1704.80999,826.696 1707.366,826.696 C1709.92201,826.696 1711.88399,827.643991 1713.252,829.54 L1713.252,826.912 L1719.408,826.912 L1719.408,847 L1713.252,847 L1713.252,844.084 C1711.76399,846.196011 1709.77201,847.252 1707.276,847.252 C1704.77999,847.252 1702.64401,846.29201 1700.868,844.372 Z M1731.764,826.912 L1731.764,829.864 C1733.03601,827.751989 1735.06399,826.696 1737.848,826.696 C1740.15201,826.696 1742.01799,827.463992 1743.446,829 C1744.87401,830.536008 1745.588,832.623987 1745.588,835.264 L1745.588,847 L1739.468,847 L1739.468,836.092 C1739.468,834.795994 1739.126,833.794004 1738.442,833.086 C1737.758,832.377996 1736.81601,832.024 1735.616,832.024 C1734.41599,832.024 1733.474,832.377996 1732.79,833.086 C1732.106,833.794004 1731.764,834.795994 1731.764,836.092 L1731.764,847 L1725.608,847 L1725.608,826.912 L1731.764,826.912 Z M1763.848,840.628 C1764.736,839.763996 1765.18,838.540008 1765.18,836.956 C1765.18,835.371992 1764.736,834.154004 1763.848,833.302 C1762.96,832.449996 1761.94001,832.024 1760.788,832.024 C1759.63599,832.024 1758.616,832.455996 1757.728,833.32 C1756.84,834.184004 1756.396,835.407992 1756.396,836.992 C1756.396,838.576008 1756.84,839.793996 1757.728,840.646 C1758.616,841.498004 1759.63599,841.924 1760.788,841.924 C1761.94001,841.924 1762.96,841.492004 1763.848,840.628 Z M1752.796,844.372 C1751.01999,842.45199 1750.132,839.992015 1750.132,836.992 C1750.132,833.991985 1751.01999,831.52601 1752.796,829.594 C1754.57201,827.66199 1756.73799,826.696 1759.294,826.696 C1761.85001,826.696 1763.81199,827.643991 1765.18,829.54 L1765.18,826.912 L1771.336,826.912 L1771.336,847 L1765.18,847 L1765.18,844.084 C1763.69199,846.196011 1761.70001,847.252 1759.204,847.252 C1756.70799,847.252 1754.57201,846.29201 1752.796,844.372 Z" id="grafana" fill="#1C213F" mask="url(#mask-2)"></path>
            <path d="M1386.33,922 L94.665,922 C72.299,922 54,903.701 54,881.335 L54,790.665 C54,768.299 72.299,750 94.665,750 L1386.33,750 C1408.7,750 1427,768.299 1427,790.665 L1427,881.335 C1427,903.701 1408.7,922 1386.33,922" id="Fill-242" fill="#BABAB9" mask="url(#mask-2)"></path>
            <path d="M509.018,847 L509.018,820.36 L515.174,820.36 L515.174,847 L509.018,847 Z M533.434,840.7 C534.250004,839.835996 534.658,838.588008 534.658,836.956 C534.658,835.323992 534.238004,834.082004 533.398,833.23 C532.557996,832.377996 531.562006,831.952 530.41,831.952 C529.257994,831.952 528.268004,832.377996 527.44,833.23 C526.611996,834.082004 526.198,835.323992 526.198,836.956 C526.198,838.588008 526.623996,839.835996 527.476,840.7 C528.328004,841.564004 529.329994,841.996 530.482,841.996 C531.634006,841.996 532.617996,841.564004 533.434,840.7 Z M522.958,844.408 C520.94199,842.511991 519.934,840.016015 519.934,836.92 C519.934,833.823985 520.94199,831.346009 522.958,829.486 C524.97401,827.625991 527.469985,826.696 530.446,826.696 C533.422015,826.696 535.91199,827.625991 537.916,829.486 C539.92001,831.346009 540.922,833.823985 540.922,836.92 C540.922,840.016015 539.92601,842.511991 537.934,844.408 C535.94199,846.304009 533.458015,847.252 530.482,847.252 C527.505985,847.252 524.99801,846.304009 522.958,844.408 Z M546.87,844.372 C545.093991,842.45199 544.206,839.992015 544.206,836.992 C544.206,833.991985 545.093991,831.52601 546.87,829.594 C548.646009,827.66199 550.811987,826.696 553.368,826.696 C555.924013,826.696 557.885993,827.643991 559.254,829.54 L559.254,826.912 L565.41,826.912 L565.41,846.892 C565.41,849.700014 564.642008,852.039991 563.106,853.912 C562.337996,854.872005 561.288007,855.615997 559.956,856.144 C558.623993,856.672003 557.082009,856.936 555.33,856.936 C552.257985,856.936 549.822009,856.312006 548.022,855.064 C546.221991,853.815994 545.202001,851.908013 544.962,849.34 L551.01,849.34 C551.586003,850.852008 553.025988,851.608 555.33,851.608 C556.458006,851.608 557.393996,851.230004 558.138,850.474 C558.882004,849.717996 559.254,848.524008 559.254,846.892 L559.254,844.084 C557.765992,846.196011 555.774012,847.252 553.278,847.252 C550.781987,847.252 548.646009,846.29201 546.87,844.372 Z M557.922,840.628 C558.810004,839.763996 559.254,838.540008 559.254,836.956 C559.254,835.371992 558.810004,834.154004 557.922,833.302 C557.033995,832.449996 556.014006,832.024 554.862,832.024 C553.709994,832.024 552.690004,832.455996 551.802,833.32 C550.913995,834.184004 550.47,835.407992 550.47,836.992 C550.47,838.576008 550.913995,839.793996 551.802,840.646 C552.690004,841.498004 553.709994,841.924 554.862,841.924 C556.014006,841.924 557.033995,841.492004 557.922,840.628 Z M570.242,832.96 C570.242,831.183991 570.997992,829.696006 572.51,828.496 C574.022007,827.295994 576.067987,826.696 578.648,826.696 C581.228013,826.696 583.309992,827.283994 584.894,828.46 C586.478008,829.636006 587.317999,831.24399 587.414,833.284 L581.114,833.284 C581.042,832.587997 580.802002,832.114001 580.394,831.862 C579.985998,831.609999 579.374004,831.484 578.558,831.484 C576.949992,831.484 576.146,831.975995 576.146,832.96 C576.146,833.848004 577.12999,834.459998 579.098,834.796 C581.09001,835.132002 582.901992,835.647997 584.534,836.344 C585.374004,836.680002 586.075997,837.237996 586.64,838.018 C587.204003,838.798004 587.486,839.751994 587.486,840.88 C587.486,842.752009 586.682008,844.281994 585.074,845.47 C583.465992,846.658006 581.438012,847.252 578.99,847.252 C576.541988,847.252 574.502008,846.694006 572.87,845.578 C571.237992,844.461994 570.350001,842.812011 570.206,840.628 L576.506,840.628 C576.674001,841.852006 577.537992,842.464 579.098,842.464 C579.818003,842.464 580.411998,842.296002 580.88,841.96 C581.348002,841.623998 581.582,841.192003 581.582,840.664 C581.582,840.135997 581.192004,839.716002 580.412,839.404 C579.631996,839.091998 578.690005,838.828001 577.586,838.612 C576.481994,838.395999 575.372005,838.126002 574.256,837.802 C573.139994,837.477998 572.192004,836.914004 571.412,836.11 C570.631996,835.305996 570.242,834.256006 570.242,832.96 Z M600.922,841.78 L603.118,841.78 L603.118,847 L599.986,847 C597.729989,847 595.984006,846.502005 594.748,845.506 C593.511994,844.509995 592.894,842.800012 592.894,840.376 L592.894,832.024 L591.022,832.024 L591.022,826.912 L592.894,826.912 L592.894,822.016 L599.05,822.016 L599.05,826.912 L603.082,826.912 L603.082,832.024 L599.05,832.024 L599.05,840.376 C599.05,841.312005 599.673994,841.78 600.922,841.78 Z M620.37,840.628 C621.258004,839.763996 621.702,838.540008 621.702,836.956 C621.702,835.371992 621.258004,834.154004 620.37,833.302 C619.481995,832.449996 618.462006,832.024 617.31,832.024 C616.157994,832.024 615.138004,832.455996 614.25,833.32 C613.361995,834.184004 612.918,835.407992 612.918,836.992 C612.918,838.576008 613.361995,839.793996 614.25,840.646 C615.138004,841.498004 616.157994,841.924 617.31,841.924 C618.462006,841.924 619.481995,841.492004 620.37,840.628 Z M609.318,844.372 C607.541991,842.45199 606.654,839.992015 606.654,836.992 C606.654,833.991985 607.541991,831.52601 609.318,829.594 C611.094009,827.66199 613.259987,826.696 615.816,826.696 C618.372013,826.696 620.333993,827.643991 621.702,829.54 L621.702,826.912 L627.858,826.912 L627.858,847 L621.702,847 L621.702,844.084 C620.213992,846.196011 618.222012,847.252 615.726,847.252 C613.229987,847.252 611.094009,846.29201 609.318,844.372 Z M632.69,832.96 C632.69,831.183991 633.445992,829.696006 634.958,828.496 C636.470007,827.295994 638.515987,826.696 641.096,826.696 C643.676013,826.696 645.757992,827.283994 647.342,828.46 C648.926008,829.636006 649.765999,831.24399 649.862,833.284 L643.562,833.284 C643.49,832.587997 643.250002,832.114001 642.842,831.862 C642.433998,831.609999 641.822004,831.484 641.006,831.484 C639.397992,831.484 638.594,831.975995 638.594,832.96 C638.594,833.848004 639.57799,834.459998 641.546,834.796 C643.53801,835.132002 645.349992,835.647997 646.982,836.344 C647.822004,836.680002 648.523997,837.237996 649.088,838.018 C649.652003,838.798004 649.934,839.751994 649.934,840.88 C649.934,842.752009 649.130008,844.281994 647.522,845.47 C645.913992,846.658006 643.886012,847.252 641.438,847.252 C638.989988,847.252 636.950008,846.694006 635.318,845.578 C633.685992,844.461994 632.798001,842.812011 632.654,840.628 L638.954,840.628 C639.122001,841.852006 639.985992,842.464 641.546,842.464 C642.266004,842.464 642.859998,842.296002 643.328,841.96 C643.796002,841.623998 644.03,841.192003 644.03,840.664 C644.03,840.135997 643.640004,839.716002 642.86,839.404 C642.079996,839.091998 641.138005,838.828001 640.034,838.612 C638.929994,838.395999 637.820006,838.126002 636.704,837.802 C635.587994,837.477998 634.640004,836.914004 633.86,836.11 C633.079996,835.305996 632.69,834.256006 632.69,832.96 Z M660.994,820.36 L660.994,829.864 C662.266006,827.751989 664.293986,826.696 667.078,826.696 C669.382011,826.696 671.247993,827.463992 672.676,829 C674.104007,830.536008 674.818,832.623987 674.818,835.264 L674.818,847 L668.698,847 L668.698,836.092 C668.698,834.795994 668.356003,833.794004 667.672,833.086 C666.987997,832.377996 666.046006,832.024 664.846,832.024 C663.645994,832.024 662.704003,832.377996 662.02,833.086 C661.335997,833.794004 660.994,834.795994 660.994,836.092 L660.994,847 L654.838,847 L654.838,820.36 L660.994,820.36 Z M678.498,853.732 L688.146,812.8 L694.086,812.8 L684.438,853.732 L678.498,853.732 Z M706.478,847.252 C703.549985,847.252 701.150009,846.310009 699.278,844.426 C697.405991,842.541991 696.47,840.040016 696.47,836.92 C696.47,833.799984 697.399991,831.316009 699.26,829.468 C701.120009,827.619991 703.525985,826.696 706.478,826.696 C709.430015,826.696 711.87799,827.607991 713.822,829.432 C715.76601,831.256009 716.738,833.787984 716.738,837.028 C716.738,837.724003 716.69,838.371997 716.594,838.972 L702.77,838.972 C702.890001,839.860004 703.285997,840.585997 703.958,841.15 C704.630003,841.714003 705.355996,841.996 706.136,841.996 C706.916004,841.996 707.497998,841.918001 707.882,841.762 C708.266002,841.605999 708.547999,841.450001 708.728,841.294 C708.908001,841.137999 709.141999,840.880002 709.43,840.52 L716.09,840.52 C715.513997,842.53601 714.362009,844.161994 712.634,845.398 C710.905991,846.634006 708.854012,847.252 706.478,847.252 Z M710.33,835.12 C710.233999,834.183995 709.826004,833.422003 709.106,832.834 C708.385996,832.245997 707.534005,831.952 706.55,831.952 C705.565995,831.952 704.738003,832.245997 704.066,832.834 C703.393997,833.422003 702.974001,834.183995 702.806,835.12 L710.33,835.12 Z M721.498,847 L721.498,820.36 L727.654,820.36 L727.654,847 L721.498,847 Z M746.094,840.628 C746.982004,839.763996 747.426,838.540008 747.426,836.956 C747.426,835.371992 746.982004,834.154004 746.094,833.302 C745.205996,832.449996 744.186006,832.024 743.034,832.024 C741.881994,832.024 740.862004,832.455996 739.974,833.32 C739.085996,834.184004 738.642,835.407992 738.642,836.992 C738.642,838.576008 739.085996,839.793996 739.974,840.646 C740.862004,841.498004 741.881994,841.924 743.034,841.924 C744.186006,841.924 745.205996,841.492004 746.094,840.628 Z M735.042,844.372 C733.265991,842.45199 732.378,839.992015 732.378,836.992 C732.378,833.991985 733.265991,831.52601 735.042,829.594 C736.818009,827.66199 738.983987,826.696 741.54,826.696 C744.096013,826.696 746.057993,827.643991 747.426,829.54 L747.426,826.912 L753.582,826.912 L753.582,847 L747.426,847 L747.426,844.084 C745.937993,846.196011 743.946012,847.252 741.45,847.252 C738.953988,847.252 736.818009,846.29201 735.042,844.372 Z M758.414,832.96 C758.414,831.183991 759.169992,829.696006 760.682,828.496 C762.194008,827.295994 764.239987,826.696 766.82,826.696 C769.400013,826.696 771.481992,827.283994 773.066,828.46 C774.650008,829.636006 775.49,831.24399 775.586,833.284 L769.286,833.284 C769.214,832.587997 768.974002,832.114001 768.566,831.862 C768.157998,831.609999 767.546004,831.484 766.73,831.484 C765.121992,831.484 764.318,831.975995 764.318,832.96 C764.318,833.848004 765.30199,834.459998 767.27,834.796 C769.26201,835.132002 771.073992,835.647997 772.706,836.344 C773.546004,836.680002 774.247997,837.237996 774.812,838.018 C775.376003,838.798004 775.658,839.751994 775.658,840.88 C775.658,842.752009 774.854008,844.281994 773.246,845.47 C771.637992,846.658006 769.610012,847.252 767.162,847.252 C764.713988,847.252 762.674008,846.694006 761.042,845.578 C759.409992,844.461994 758.522001,842.812011 758.378,840.628 L764.678,840.628 C764.846001,841.852006 765.709992,842.464 767.27,842.464 C767.990004,842.464 768.583998,842.296002 769.052,841.96 C769.520002,841.623998 769.754,841.192003 769.754,840.664 C769.754,840.135997 769.364004,839.716002 768.584,839.404 C767.803996,839.091998 766.862006,838.828001 765.758,838.612 C764.653994,838.395999 763.544006,838.126002 762.428,837.802 C761.311994,837.477998 760.364004,836.914004 759.584,836.11 C758.803996,835.305996 758.414,834.256006 758.414,832.96 Z M789.094,841.78 L791.29,841.78 L791.29,847 L788.158,847 C785.901989,847 784.156006,846.502005 782.92,845.506 C781.683994,844.509995 781.066,842.800012 781.066,840.376 L781.066,832.024 L779.194,832.024 L779.194,826.912 L781.066,826.912 L781.066,822.016 L787.222,822.016 L787.222,826.912 L791.254,826.912 L791.254,832.024 L787.222,832.024 L787.222,840.376 C787.222,841.312005 787.845994,841.78 789.094,841.78 Z M801.918,824.644 C801.221997,825.340003 800.370005,825.688 799.362,825.688 C798.353995,825.688 797.502004,825.340003 796.806,824.644 C796.109997,823.947997 795.762,823.090005 795.762,822.07 C795.762,821.049995 796.109997,820.192003 796.806,819.496 C797.502004,818.799997 798.353995,818.452 799.362,818.452 C800.370005,818.452 801.221997,818.799997 801.918,819.496 C802.614004,820.192003 802.962,821.049995 802.962,822.07 C802.962,823.090005 802.614004,823.947997 801.918,824.644 Z M796.302,847 L796.302,826.912 L802.458,826.912 L802.458,847 L796.302,847 Z M809.954,844.444 C808.105991,842.571991 807.182,840.076016 807.182,836.956 C807.182,833.835984 808.111991,831.346009 809.972,829.486 C811.832009,827.625991 814.237985,826.696 817.19,826.696 C819.638012,826.696 821.713992,827.301994 823.418,828.514 C825.122009,829.726006 826.249997,831.459989 826.802,833.716 L820.142,833.716 C819.565997,832.515994 818.624007,831.916 817.316,831.916 C816.007994,831.916 815.036003,832.377995 814.4,833.302 C813.763997,834.226005 813.446,835.443992 813.446,836.956 C813.446,838.468008 813.763997,839.685995 814.4,840.61 C815.036003,841.534005 815.965994,841.996 817.19,841.996 C817.958004,841.996 818.557998,841.864001 818.99,841.6 C819.422002,841.335999 819.805998,840.868003 820.142,840.196 L826.802,840.196 C826.249997,842.356011 825.110009,844.071994 823.382,845.344 C821.653991,846.616006 819.590012,847.252 817.19,847.252 C814.237985,847.252 811.826009,846.316009 809.954,844.444 Z M841.29,832.96 C841.29,831.183991 842.045993,829.696006 843.558,828.496 C845.070008,827.295994 847.115987,826.696 849.696,826.696 C852.276013,826.696 854.357992,827.283994 855.942,828.46 C857.526008,829.636006 858.366,831.24399 858.462,833.284 L852.162,833.284 C852.09,832.587997 851.850002,832.114001 851.442,831.862 C851.033998,831.609999 850.422004,831.484 849.606,831.484 C847.997992,831.484 847.194,831.975995 847.194,832.96 C847.194,833.848004 848.17799,834.459998 850.146,834.796 C852.13801,835.132002 853.949992,835.647997 855.582,836.344 C856.422004,836.680002 857.123997,837.237996 857.688,838.018 C858.252003,838.798004 858.534,839.751994 858.534,840.88 C858.534,842.752009 857.730008,844.281994 856.122,845.47 C854.513992,846.658006 852.486012,847.252 850.038,847.252 C847.589988,847.252 845.550008,846.694006 843.918,845.578 C842.285992,844.461994 841.398001,842.812011 841.254,840.628 L847.554,840.628 C847.722001,841.852006 848.585992,842.464 850.146,842.464 C850.866004,842.464 851.459998,842.296002 851.928,841.96 C852.396002,841.623998 852.63,841.192003 852.63,840.664 C852.63,840.135997 852.240004,839.716002 851.46,839.404 C850.679996,839.091998 849.738006,838.828001 848.634,838.612 C847.529995,838.395999 846.420006,838.126002 845.304,837.802 C844.187994,837.477998 843.240004,836.914004 842.46,836.11 C841.679996,835.305996 841.29,834.256006 841.29,832.96 Z M871.97,847.252 C869.041985,847.252 866.642009,846.310009 864.77,844.426 C862.897991,842.541991 861.962,840.040016 861.962,836.92 C861.962,833.799984 862.891991,831.316009 864.752,829.468 C866.612009,827.619991 869.017985,826.696 871.97,826.696 C874.922015,826.696 877.36999,827.607991 879.314,829.432 C881.25801,831.256009 882.23,833.787984 882.23,837.028 C882.23,837.724003 882.182001,838.371997 882.086,838.972 L868.262,838.972 C868.382001,839.860004 868.777997,840.585997 869.45,841.15 C870.122003,841.714003 870.847996,841.996 871.628,841.996 C872.408004,841.996 872.989998,841.918001 873.374,841.762 C873.758002,841.605999 874.039999,841.450001 874.22,841.294 C874.400001,841.137999 874.633999,840.880002 874.922,840.52 L881.582,840.52 C881.005997,842.53601 879.854009,844.161994 878.126,845.398 C876.397991,846.634006 874.346012,847.252 871.97,847.252 Z M875.822,835.12 C875.726,834.183995 875.318004,833.422003 874.598,832.834 C873.877996,832.245997 873.026005,831.952 872.042,831.952 C871.057995,831.952 870.230003,832.245997 869.558,832.834 C868.885997,833.422003 868.466001,834.183995 868.298,835.12 L875.822,835.12 Z M899.23,840.628 C900.118005,839.763996 900.562,838.540008 900.562,836.956 C900.562,835.371992 900.118005,834.154004 899.23,833.302 C898.341996,832.449996 897.322006,832.024 896.17,832.024 C895.017994,832.024 893.998005,832.455996 893.11,833.32 C892.221996,834.184004 891.778,835.407992 891.778,836.992 C891.778,838.576008 892.221996,839.793996 893.11,840.646 C893.998005,841.498004 895.017994,841.924 896.17,841.924 C897.322006,841.924 898.341996,841.492004 899.23,840.628 Z M888.178,844.372 C886.401991,842.45199 885.514,839.992015 885.514,836.992 C885.514,833.991985 886.401991,831.52601 888.178,829.594 C889.954009,827.66199 892.119987,826.696 894.676,826.696 C897.232013,826.696 899.193993,827.643991 900.562,829.54 L900.562,826.912 L906.718,826.912 L906.718,847 L900.562,847 L900.562,844.084 C899.073993,846.196011 897.082013,847.252 894.586,847.252 C892.089988,847.252 889.954009,846.29201 888.178,844.372 Z M919.074,826.912 L919.074,830.656 C920.514007,828.015987 922.433988,826.696 924.834,826.696 L924.834,832.96 L923.322,832.96 C921.905993,832.96 920.844004,833.295997 920.136,833.968 C919.427997,834.640003 919.074,835.815992 919.074,837.496 L919.074,847 L912.918,847 L912.918,826.912 L919.074,826.912 Z M930.278,844.444 C928.429991,842.571991 927.506,840.076016 927.506,836.956 C927.506,833.835984 928.435991,831.346009 930.296,829.486 C932.156009,827.625991 934.561985,826.696 937.514,826.696 C939.962012,826.696 942.037992,827.301994 943.742,828.514 C945.446009,829.726006 946.573997,831.459989 947.126,833.716 L940.466,833.716 C939.889997,832.515994 938.948007,831.916 937.64,831.916 C936.331994,831.916 935.360003,832.377995 934.724,833.302 C934.087997,834.226005 933.77,835.443992 933.77,836.956 C933.77,838.468008 934.087997,839.685995 934.724,840.61 C935.360003,841.534005 936.289994,841.996 937.514,841.996 C938.282004,841.996 938.881998,841.864001 939.314,841.6 C939.746002,841.335999 940.129998,840.868003 940.466,840.196 L947.126,840.196 C946.573997,842.356011 945.434009,844.071994 943.706,845.344 C941.977991,846.616006 939.914012,847.252 937.514,847.252 C934.561985,847.252 932.150009,846.316009 930.278,844.444 Z M957.538,820.36 L957.538,829.864 C958.810006,827.751989 960.837986,826.696 963.622,826.696 C965.926012,826.696 967.791993,827.463992 969.22,829 C970.648007,830.536008 971.362,832.623987 971.362,835.264 L971.362,847 L965.242,847 L965.242,836.092 C965.242,834.795994 964.900004,833.794004 964.216,833.086 C963.531997,832.377996 962.590006,832.024 961.39,832.024 C960.189994,832.024 959.248004,832.377996 958.564,833.086 C957.879997,833.794004 957.538,834.795994 957.538,836.092 L957.538,847 L951.382,847 L951.382,820.36 L957.538,820.36 Z" id="logstash/elastic-sea" fill="#1C213F" mask="url(#mask-2)"></path>
            <path d="M1556.33,836 L1481.33,807.35 L1481.33,864.65 L1556.33,836 Z M1416.33,849.65 L1481.33,849.65 L1481.33,821.65 L1416.33,821.65 L1416.33,849.65 Z" id="Fill-243" fill="#F15A50" mask="url(#mask-2)"></path>
            <path d="M198.5,778.301 L227.151,703.301 L169.849,703.301 L198.5,778.301 Z M184.85,703.301 L212.85,703.301 L212.85,638.301 L184.85,638.301 L184.85,703.301 Z" id="Fill-244" fill="#F15A50" mask="url(#mask-2)"></path>
            <path d="M1274.5,778.301 L1303.15,703.301 L1245.85,703.301 L1274.5,778.301 Z M1260.85,703.301 L1288.85,703.301 L1288.85,638.301 L1260.85,638.301 L1260.85,703.301 Z" id="Fill-245" fill="#F15A50" mask="url(#mask-2)"></path>
            <path d="M915.833,778.301 L944.484,703.301 L887.182,703.301 L915.833,778.301 Z M902.182,703.301 L930.182,703.301 L930.182,638.301 L902.182,638.301 L902.182,703.301 Z" id="Fill-246" fill="#F15A50" mask="url(#mask-2)"></path>
            <path d="M557.167,778.301 L585.818,703.301 L528.516,703.301 L557.167,778.301 Z M543.516,703.301 L571.516,703.301 L571.516,638.301 L543.516,638.301 L543.516,703.301 Z" id="Fill-247" fill="#F15A50" mask="url(#mask-2)"></path>
            <path d="M395.92,194 L395.92,94.1 L419.005,94.1 L419.005,194 L395.92,194 Z M487.71,170.375 C490.770015,167.134984 492.3,162.455031 492.3,156.335 C492.3,150.214969 490.725016,145.557516 487.575,142.3625 C484.424984,139.167484 480.690022,137.57 476.37,137.57 C472.049978,137.57 468.337516,139.167484 465.2325,142.3625 C462.127484,145.557516 460.575,150.214969 460.575,156.335 C460.575,162.455031 462.172484,167.134984 465.3675,170.375 C468.562516,173.615016 472.319978,175.235 476.64,175.235 C480.960022,175.235 484.649985,173.615016 487.71,170.375 Z M448.425,184.28 C440.864962,177.169964 437.085,167.810058 437.085,156.2 C437.085,144.589942 440.864962,135.297535 448.425,128.3225 C455.985038,121.347465 465.344944,117.86 476.505,117.86 C487.665056,117.86 497.002462,121.347465 504.5175,128.3225 C512.032538,135.297535 515.79,144.589942 515.79,156.2 C515.79,167.810058 512.055037,177.169964 504.585,184.28 C497.114963,191.390036 487.800056,194.945 476.64,194.945 C465.479944,194.945 456.075038,191.390036 448.425,184.28 Z M538.325,184.145 C531.664967,176.944964 528.335,167.720056 528.335,156.47 C528.335,145.219944 531.664967,135.972536 538.325,128.7275 C544.985033,121.482464 553.107452,117.86 562.6925,117.86 C572.277548,117.86 579.634974,121.414964 584.765,128.525 L584.765,118.67 L607.85,118.67 L607.85,193.595 C607.85,204.125053 604.970029,212.899965 599.21,219.92 C596.329986,223.520018 592.392525,226.30999 587.3975,228.29 C582.402475,230.27001 576.620033,231.26 570.05,231.26 C558.529942,231.26 549.395034,228.920023 542.645,224.24 C535.894966,219.559977 532.070005,212.405048 531.17,202.775 L553.85,202.775 C556.010011,208.445028 561.409957,211.28 570.05,211.28 C574.280021,211.28 577.789986,209.862514 580.58,207.0275 C583.370014,204.192486 584.765,199.715031 584.765,193.595 L584.765,183.065 C579.184972,190.98504 571.715047,194.945 562.355,194.945 C552.994953,194.945 544.985033,191.345036 538.325,184.145 Z M579.77,170.105 C583.100017,166.864984 584.765,162.27503 584.765,156.335 C584.765,150.39497 583.100017,145.827516 579.77,142.6325 C576.439983,139.437484 572.615022,137.84 568.295,137.84 C563.974978,137.84 560.150017,139.459984 556.82,142.7 C553.489983,145.940016 551.825,150.52997 551.825,156.47 C551.825,162.41003 553.489983,166.977484 556.82,170.1725 C560.150017,173.367516 563.974978,174.965 568.295,174.965 C572.615022,174.965 576.439983,173.345016 579.77,170.105 Z M231.9825,331.105 C235.312517,327.864984 236.9775,323.27503 236.9775,317.335 C236.9775,311.39497 235.312517,306.827516 231.9825,303.6325 C228.652483,300.437484 224.827522,298.84 220.5075,298.84 C216.187478,298.84 212.362517,300.459984 209.0325,303.7 C205.702483,306.940016 204.0375,311.52997 204.0375,317.47 C204.0375,323.41003 205.702483,327.977484 209.0325,331.1725 C212.362517,334.367516 216.187478,335.965 220.5075,335.965 C224.827522,335.965 228.652483,334.345016 231.9825,331.105 Z M190.5375,345.145 C183.877467,337.944964 180.5475,328.720056 180.5475,317.47 C180.5475,306.219944 183.877467,296.972536 190.5375,289.7275 C197.197533,282.482464 205.319952,278.86 214.905,278.86 C224.490048,278.86 231.847474,282.414964 236.9775,289.525 L236.9775,255.1 L260.0625,255.1 L260.0625,355 L236.9775,355 L236.9775,344.065 C231.397472,351.98504 223.927547,355.945 214.5675,355.945 C205.207453,355.945 197.197533,352.345036 190.5375,345.145 Z M329.4425,331.105 C332.772517,327.864984 334.4375,323.27503 334.4375,317.335 C334.4375,311.39497 332.772517,306.827516 329.4425,303.6325 C326.112483,300.437484 322.287522,298.84 317.9675,298.84 C313.647478,298.84 309.822517,300.459984 306.4925,303.7 C303.162483,306.940016 301.4975,311.52997 301.4975,317.47 C301.4975,323.41003 303.162483,327.977484 306.4925,331.1725 C309.822517,334.367516 313.647478,335.965 317.9675,335.965 C322.287522,335.965 326.112483,334.345016 329.4425,331.105 Z M287.9975,345.145 C281.337467,337.944964 278.0075,328.720056 278.0075,317.47 C278.0075,306.219944 281.337467,296.972536 287.9975,289.7275 C294.657533,282.482464 302.779952,278.86 312.365,278.86 C321.950048,278.86 329.307474,282.414964 334.4375,289.525 L334.4375,279.67 L357.5225,279.67 L357.5225,355 L334.4375,355 L334.4375,344.065 C328.857472,351.98504 321.387547,355.945 312.0275,355.945 C302.667453,355.945 294.657533,352.345036 287.9975,345.145 Z M412.9975,335.425 L421.2325,335.425 L421.2325,355 L409.4875,355 C401.027458,355 394.480023,353.132519 389.845,349.3975 C385.209977,345.662481 382.8925,339.250045 382.8925,330.16 L382.8925,298.84 L375.8725,298.84 L375.8725,279.67 L382.8925,279.67 L382.8925,261.31 L405.9775,261.31 L405.9775,279.67 L421.0975,279.67 L421.0975,298.84 L405.9775,298.84 L405.9775,330.16 C405.9775,333.670018 408.317477,335.425 412.9975,335.425 Z M486.1575,331.105 C489.487517,327.864984 491.1525,323.27503 491.1525,317.335 C491.1525,311.39497 489.487517,306.827516 486.1575,303.6325 C482.827483,300.437484 479.002522,298.84 474.6825,298.84 C470.362478,298.84 466.537517,300.459984 463.2075,303.7 C459.877483,306.940016 458.2125,311.52997 458.2125,317.47 C458.2125,323.41003 459.877483,327.977484 463.2075,331.1725 C466.537517,334.367516 470.362478,335.965 474.6825,335.965 C479.002522,335.965 482.827483,334.345016 486.1575,331.105 Z M444.7125,345.145 C438.052467,337.944964 434.7225,328.720056 434.7225,317.47 C434.7225,306.219944 438.052467,296.972536 444.7125,289.7275 C451.372533,282.482464 459.494952,278.86 469.08,278.86 C478.665048,278.86 486.022474,282.414964 491.1525,289.525 L491.1525,279.67 L514.2375,279.67 L514.2375,355 L491.1525,355 L491.1525,344.065 C485.572472,351.98504 478.102547,355.945 468.7425,355.945 C459.382453,355.945 451.372533,352.345036 444.7125,345.145 Z M583.0775,255.1 L606.1625,255.1 L606.1625,355 L583.0775,355 L583.0775,255.1 Z M561.0725,276.835 L561.0725,279.67 L570.6575,279.67 L570.6575,298.84 L561.0725,298.84 L561.0725,355 L537.9875,355 L537.9875,298.84 L530.9675,298.84 L530.9675,279.67 L537.9875,279.67 L537.9875,276.835 C537.9875,267.294952 540.529975,260.320022 545.615,255.91 C550.700025,251.499978 558.687446,249.295 569.5775,249.295 L569.5775,268.87 C566.517485,268.87 564.335007,269.454994 563.03,270.625 C561.724993,271.795006 561.0725,273.864985 561.0725,276.835 Z M674.8675,331.375 C677.927515,328.134984 679.4575,323.455031 679.4575,317.335 C679.4575,311.214969 677.882516,306.557516 674.7325,303.3625 C671.582484,300.167484 667.847522,298.57 663.5275,298.57 C659.207478,298.57 655.495016,300.167484 652.39,303.3625 C649.284985,306.557516 647.7325,311.214969 647.7325,317.335 C647.7325,323.455031 649.329984,328.134984 652.525,331.375 C655.720016,334.615016 659.477478,336.235 663.7975,336.235 C668.117522,336.235 671.807485,334.615016 674.8675,331.375 Z M635.5825,345.28 C628.022462,338.169964 624.2425,328.810058 624.2425,317.2 C624.2425,305.589942 628.022462,296.297535 635.5825,289.3225 C643.142538,282.347465 652.502444,278.86 663.6625,278.86 C674.822556,278.86 684.159962,282.347465 691.675,289.3225 C699.190038,296.297535 702.9475,305.589942 702.9475,317.2 C702.9475,328.810058 699.212537,338.169964 691.7425,345.28 C684.272463,352.390036 674.957556,355.945 663.7975,355.945 C652.637444,355.945 643.232538,352.390036 635.5825,345.28 Z M805.6725,279.67 L827.4075,279.67 L804.8625,355 L780.0225,355 L769.4925,310.45 L758.8275,355 L733.9875,355 L711.4425,279.67 L734.5275,279.67 L746.2725,332.59 L757.8825,279.67 L782.3175,279.67 L793.9275,332.59 L805.6725,279.67 Z" id="log-dataflow" fill="#F15A50" mask="url(#mask-2)"></path>
        </g>
    </g>
</svg>