<svg id="Layer_1" data-name="Layer 1" xmlns="http://www.w3.org/2000/svg" xmlns:xlink="http://www.w3.org/1999/xlink" viewBox="0 0 2102.73 1463.17"><defs><style>.cls-1,.cls-11,.cls-12,.cls-13,.cls-15,.cls-21,.cls-25,.cls-54,.cls-55,.cls-56,.cls-7{fill:none;}.cls-2{font-size:56.69px;}.cls-16,.cls-2,.cls-51{fill:#1446a0;}.cls-19,.cls-2,.cls-5{font-family:NewsGothicBT-Light, NewsGoth Lt BT;font-weight:300;}.cls-3{letter-spacing:0.04em;}.cls-4{letter-spacing:0em;}.cls-5{font-size:28.35px;}.cls-6{letter-spacing:-0.07em;}.cls-51,.cls-7,.cls-9{stroke:#1446a0;}.cls-21,.cls-54,.cls-7,.cls-9{stroke-linecap:round;stroke-linejoin:round;}.cls-11,.cls-12,.cls-13,.cls-15,.cls-21,.cls-7,.cls-9{stroke-width:5.67px;}.cls-8,.cls-9{fill:#c1d301;}.cls-10{letter-spacing:0.04em;}.cls-11,.cls-12,.cls-13,.cls-15,.cls-21,.cls-54,.cls-55,.cls-56{stroke:#dbdbdb;}.cls-11,.cls-12,.cls-13,.cls-15,.cls-55,.cls-56{stroke-linecap:square;}.cls-11,.cls-12,.cls-13,.cls-15,.cls-51,.cls-55,.cls-56{stroke-miterlimit:10;}.cls-11{stroke-dasharray:12;}.cls-13{stroke-dasharray:12.81 12.81;}.cls-14{fill:#dbdbdb;}.cls-15{stroke-dasharray:10.61 10.61;}.cls-17,.cls-18{fill:#141414;}.cls-18{isolation:isolate;opacity:0.2;}.cls-19{font-size:34px;}.cls-20{letter-spacing:-0.07em;}.cls-22{letter-spacing:-0.12em;}.cls-23{fill:#606;}.cls-24{fill:#fff;}.cls-25{stroke:#9281a8;stroke-width:2.46px;}.cls-26{clip-path:url(#clip-path);}.cls-27{fill:url(#linear-gradient);}.cls-28{clip-path:url(#clip-path-2);}.cls-29{fill:url(#linear-gradient-2);}.cls-30{clip-path:url(#clip-path-3);}.cls-31{clip-path:url(#clip-path-4);}.cls-32{fill:url(#linear-gradient-3);}.cls-33{clip-path:url(#clip-path-5);}.cls-34{fill:url(#linear-gradient-4);}.cls-35{clip-path:url(#clip-path-6);}.cls-36{clip-path:url(#clip-path-7);}.cls-37{fill:url(#linear-gradient-5);}.cls-38{clip-path:url(#clip-path-8);}.cls-39{fill:url(#linear-gradient-6);}.cls-40{fill:#004c93;}.cls-41{fill:#f49500;}.cls-42{fill:#fcc000;}.cls-43{fill:#03a239;}.cls-44{fill:#1192cf;}.cls-45{font-size:46.15px;font-family:MyriadPro-Regular, Myriad Pro;}.cls-46{letter-spacing:-0.01em;}.cls-47{letter-spacing:0.01em;}.cls-48{letter-spacing:-0.06em;}.cls-49{letter-spacing:-0.03em;}.cls-50{letter-spacing:-0.03em;}.cls-51{stroke-width:2.83px;}.cls-52{letter-spacing:-0.05em;}.cls-53{letter-spacing:-0.04em;}.cls-54{stroke-width:8.83px;}.cls-55,.cls-56{stroke-width:7.06px;}.cls-56{stroke-dasharray:14.65 14.65;}.cls-57{letter-spacing:-0.06em;}.cls-58{letter-spacing:0em;}.cls-59{fill:#fdb515;}.cls-60{fill:#333;}.cls-61{fill:#424143;}.cls-62{fill:#4d5a31;}.cls-63{fill:#95d600;}.cls-64{fill:#6ba43a;}.cls-65{fill:url(#linear-gradient-7);}.cls-66{fill:#e75225;}.cls-67{fill:url(#linear-gradient-8);}.cls-68{fill:url(#linear-gradient-9);}.cls-69{fill:url(#linear-gradient-10);}.cls-70{fill:url(#linear-gradient-11);}.cls-71{fill:url(#linear-gradient-12);}.cls-72{fill:url(#linear-gradient-13);}.cls-73{fill:url(#linear-gradient-14);}.cls-74{fill:url(#linear-gradient-15);}.cls-75{fill:url(#linear-gradient-16);}.cls-76{fill:url(#linear-gradient-17);}.cls-77{fill:url(#linear-gradient-18);}.cls-78{fill:url(#linear-gradient-19);}.cls-79{fill:url(#linear-gradient-20);}.cls-80{fill:url(#linear-gradient-21);}</style><clipPath id="clip-path" transform="translate(-97 -93.29)"><path id="SVGID" class="cls-1" d="M667.7,1032.17h-.09v-4.12h-7v28.07h7.44v-12.74c0-2.28,0-5.39.83-7a5.8,5.8,0,0,1,5.39-3.33c4.55,0,4.55,4.07,4.55,8.67v14.36h7.45V1038.6c0-2.76,0-6.92-2.94-9.19a10.67,10.67,0,0,0-6.43-2.06,11.15,11.15,0,0,0-9.24,4.82m37.52.92c1.14,0,5.39.43,5.52,6.56H699.62c0-3.67,2-6.56,5.6-6.56m-13.35,9.19a19.24,19.24,0,0,0,1.66,7.8c3,6.39,9.5,6.74,11.91,6.74,9.33,0,11.65-6.61,12.26-8.37l-7.44-1.27c-.4,1.32-1.27,3.9-4.73,3.9-4.25,0-6-3.54-6.13-6.87h18.65c.18-8.28-2.76-16.82-13.35-16.82-8.8,0-12.83,7.27-12.83,14.89m32.53-19.79v5.6H721V1034h3.41v12.26c0,4.3.13,6,1.05,7.71,1.1,2.1,4,2.89,6.31,2.89a16.08,16.08,0,0,0,5.86-1.14L737,1050l-.22,0a7,7,0,0,1-2.76.66c-2.06,0-2.06-1.32-2.06-5.3v-11.34h5v-5.91h-5v-10Zm-169.28,16.86h6.35c5.48,0,10.29,0,10.29,5.3a4.56,4.56,0,0,1-3.19,4.51c-1.18.43-4.51.43-6.18.43h-7.27v-10.24Zm0-15.46h4.56c5.65,0,6.57,0,7.71.31a4.05,4.05,0,0,1,2.93,4.11c0,4.12-4,4.47-6.66,4.47h-8.49v-8.89Zm-7.79-6.57v38.84h13.22c8.24,0,10.73-.17,13-1.14a11.19,11.19,0,0,0,6.3-10.11c0-2.19-.7-7.45-7.35-9.37a9.11,9.11,0,0,0,5.47-8.41,9.48,9.48,0,0,0-4.16-7.75c-2.49-1.8-5.6-2-10.94-2H547.33Zm52.68,9.07,5.38,14.4H594.75Zm-4.08-9.07-15.1,38.84h8.36l3.2-8.8h15.5l3.37,8.8h8.58l-15.54-38.84Zm24.48,19.75c0,12.09,7.18,19.75,17.69,19.75,12.7,0,15.28-9.5,16.11-12.52l-7.57-2.41c-1,4.24-3.37,8.19-8.58,8.19a8.66,8.66,0,0,1-7.49-3.82c-1.62-2.49-2.06-6.12-2.06-9.76,0-2.5,0-13.13,9.63-13.13a8,8,0,0,1,8.19,6.52l7.75-1.84a15,15,0,0,0-3.68-7,16.57,16.57,0,0,0-11.86-4.47c-12.66,0-18.13,9.63-18.13,20.45"/></clipPath><linearGradient id="linear-gradient" x1="-953.68" y1="828.94" x2="-949.4" y2="828.94" gradientTransform="translate(42875.62 -35932.84) scale(44.49)" gradientUnits="userSpaceOnUse"><stop offset="0" stop-color="#0071b9"/><stop offset="0.28" stop-color="#008cc7"/><stop offset="0.53" stop-color="#00a0d1"/><stop offset="0.58" stop-color="#06a1c9"/><stop offset="0.66" stop-color="#17a5b3"/><stop offset="0.75" stop-color="#32aa90"/><stop offset="0.85" stop-color="#58b25e"/><stop offset="0.97" stop-color="#88bb20"/><stop offset="1" stop-color="#97be0d"/></linearGradient><clipPath id="clip-path-2" transform="translate(-97 -93.29)"><polygon id="SVGID-2" data-name="SVGID" class="cls-1" points="525.57 1019.03 525.57 1019.03 525.57 1019.03 525.57 1019.03"/></clipPath><linearGradient id="linear-gradient-2" x1="525.57" y1="1019.03" x2="525.57" y2="1019.03" gradientTransform="translate(-768.31 499.71) scale(0)" gradientUnits="userSpaceOnUse"><stop offset="0" stop-color="#0061ab"/><stop offset="0.4" stop-color="#008bcf"/><stop offset="0.63" stop-color="#009ee0"/><stop offset="0.69" stop-color="#029edd"/><stop offset="0.75" stop-color="#0aa0d2"/><stop offset="0.79" stop-color="#16a3c1"/><stop offset="0.84" stop-color="#28a6a8"/><stop offset="0.88" stop-color="#3eab89"/><stop offset="0.93" stop-color="#5ab162"/><stop offset="0.97" stop-color="#7ab835"/><stop offset="1" stop-color="#97be0d"/></linearGradient><clipPath id="clip-path-3" transform="translate(-97 -93.29)"><polygon id="SVGID-3" data-name="SVGID" class="cls-1" points="507.88 1019.03 507.88 1019.03 507.88 1019.03 507.88 1019.03"/></clipPath><clipPath id="clip-path-4" transform="translate(-97 -93.29)"><path id="SVGID-4" data-name="SVGID" class="cls-1" d="M507.88,1019"/></clipPath><linearGradient id="linear-gradient-3" x1="507.88" y1="1019.03" x2="507.88" y2="1019.03" gradientTransform="translate(-676.98 594.54) scale(0)" xlink:href="#linear-gradient-2"/><clipPath id="clip-path-5" transform="translate(-97 -93.29)"><polyline id="SVGID-5" data-name="SVGID" class="cls-1" points="525.57 1049.64 525.57 1049.64 525.57 1049.64 525.57 1049.64"/></clipPath><linearGradient id="linear-gradient-4" x1="525.57" y1="1049.64" x2="525.57" y2="1049.64" gradientTransform="translate(-768.58 507.72) scale(0)" xlink:href="#linear-gradient-2"/><clipPath id="clip-path-6" transform="translate(-97 -93.29)"><path id="SVGID-6" data-name="SVGID" class="cls-1" d="M534.42,1034.31Z"/></clipPath><clipPath id="clip-path-7" transform="translate(-97 -93.29)"><polygon id="SVGID-7" data-name="SVGID" class="cls-1" points="534.41 1034.31 534.41 1034.31 534.41 1034.31 534.41 1034.31"/></clipPath><linearGradient id="linear-gradient-5" x1="534.42" y1="1034.31" x2="534.42" y2="1034.31" gradientTransform="translate(-767.69 504.55) scale(0)" xlink:href="#linear-gradient-2"/><clipPath id="clip-path-8" transform="translate(-97 -93.29)"><path id="SVGID-8" data-name="SVGID" class="cls-1" d="M507.88,1016.67a2.25,2.25,0,0,0-2,1.18l-5,8.67h2.58l4.11-7.18a1.3,1.3,0,0,1,.35-.35.9.9,0,0,1,.49-.13h16.72a.84.84,0,0,1,.48.13h0a.74.74,0,0,1,.35.35l8.37,14.49a.86.86,0,0,1,.13.48h0a.94.94,0,0,1-.13.48l-8.37,14.5a.84.84,0,0,1-.35.35h0a.93.93,0,0,1-.48.13H508.36a1.12,1.12,0,0,1-.48-.13,1,1,0,0,1-.35-.35l-4.25-7.32h-2.54l5.08,8.85a2.33,2.33,0,0,0,2,1.18h17.69a2.26,2.26,0,0,0,2-1.18l8.84-15.32a2.22,2.22,0,0,0,0-2.33l-8.84-15.32a2.3,2.3,0,0,0-2-1.18Z"/></clipPath><linearGradient id="linear-gradient-6" x1="-855.36" y1="865.63" x2="-851.08" y2="865.63" gradientTransform="translate(8409.21 -7164.64) scale(9.36)" gradientUnits="userSpaceOnUse"><stop offset="0" stop-color="#0071b9"/><stop offset="0.38" stop-color="#0090c9"/><stop offset="0.63" stop-color="#00a0d1"/><stop offset="0.69" stop-color="#03a1ce"/><stop offset="0.75" stop-color="#0ba2c3"/><stop offset="0.8" stop-color="#19a5b1"/><stop offset="0.84" stop-color="#2ca998"/><stop offset="0.89" stop-color="#45ae77"/><stop offset="0.94" stop-color="#64b44f"/><stop offset="0.98" stop-color="#88bb20"/><stop offset="1" stop-color="#97be0d"/></linearGradient><linearGradient id="linear-gradient-7" x1="2027.69" y1="713.61" x2="2035.8" y2="770" gradientUnits="userSpaceOnUse"><stop offset="0.2" stop-color="#f15b2a"/><stop offset="1" stop-color="#f9c722"/></linearGradient><linearGradient id="linear-gradient-8" x1="1498.77" y1="-198.14" x2="1500.5" y2="-121.77" gradientTransform="matrix(1, 0, 0, 1, -179.76, 325.36)" gradientUnits="userSpaceOnUse"><stop offset="0.2" stop-color="#ec6a29"/><stop offset="1" stop-color="#f7cf1f"/></linearGradient><linearGradient id="linear-gradient-9" x1="1502.84" y1="-198.23" x2="1504.58" y2="-121.85" gradientTransform="translate(-180.27 324.08) rotate(0.01)" xlink:href="#linear-gradient-8"/><linearGradient id="linear-gradient-10" x1="1508.92" y1="-198.37" x2="1510.66" y2="-122" gradientTransform="translate(-181.18 322.96) rotate(0.01)" xlink:href="#linear-gradient-8"/><linearGradient id="linear-gradient-11" x1="1512.9" y1="-198.46" x2="1514.63" y2="-122.08" gradientTransform="translate(-180.7 322.55)" xlink:href="#linear-gradient-8"/><linearGradient id="linear-gradient-12" x1="1518.63" y1="-198.59" x2="1520.36" y2="-122.22" gradientTransform="translate(-179.81 321.09)" xlink:href="#linear-gradient-8"/><linearGradient id="linear-gradient-13" x1="1522.68" y1="-198.68" x2="1524.42" y2="-122.3" gradientTransform="translate(-180.1 320.01) rotate(0.01)" xlink:href="#linear-gradient-8"/><linearGradient id="linear-gradient-14" x1="1500" y1="-201.15" x2="1501.81" y2="-121.31" gradientTransform="translate(-173.41 324.16)" xlink:href="#linear-gradient-8"/><linearGradient id="linear-gradient-15" x1="1510.02" y1="-201.39" x2="1511.83" y2="-121.55" gradientTransform="matrix(1, 0, 0, 1, -173.63, 322.07)" xlink:href="#linear-gradient-8"/><linearGradient id="linear-gradient-16" x1="1519.9" y1="-201.62" x2="1521.71" y2="-121.78" gradientTransform="translate(-173.83 320.1)" xlink:href="#linear-gradient-8"/><linearGradient id="linear-gradient-17" x1="1540.53" y1="-201.84" x2="1542.34" y2="-122.31" gradientTransform="translate(-174.25 315.91)" xlink:href="#linear-gradient-8"/><linearGradient id="linear-gradient-18" x1="1499.76" y1="-201.61" x2="1501.57" y2="-121.76" gradientTransform="translate(-171.38 323.84)" xlink:href="#linear-gradient-8"/><linearGradient id="linear-gradient-19" x1="1509.78" y1="-201.84" x2="1511.59" y2="-122" gradientTransform="matrix(1, 0, 0, 1, -171.59, 321.82)" xlink:href="#linear-gradient-8"/><linearGradient id="linear-gradient-20" x1="1519.66" y1="-202.08" x2="1521.47" y2="-122.24" gradientTransform="translate(-171.79 319.78)" xlink:href="#linear-gradient-8"/><linearGradient id="linear-gradient-21" x1="1540.29" y1="-202.25" x2="1542.1" y2="-122.72" gradientTransform="matrix(1, 0, 0, 1, -172.21, 315.72)" xlink:href="#linear-gradient-8"/></defs><text class="cls-2" transform="translate(0 48.81)">ACE IoT Solutions Secure<tspan x="0" y="68.03">Managed Se</tspan><tspan class="cls-3" x="294.09" y="68.03">r</tspan><tspan class="cls-4" x="313.75" y="68.03">vices Cloud</tspan></text><text class="cls-5" transform="translate(872.47 729)">ACE IoT VO<tspan class="cls-6" x="137.61" y="0">L</tspan><tspan x="149.97" y="0">TTRON</tspan><tspan x="69.23" y="34.02">Platform</tspan></text><line class="cls-7" x1="943.96" y1="527.24" x2="943.96" y2="567.97"/><path class="cls-7" d="M1037,714.11c-12.48-3.52-22-23.21-22-47,0-26.24,11.65-47.51,26-47.51,12.69,0,23.25,16.58,25.56,38.52" transform="translate(-97 -93.29)"/><line class="cls-7" x1="902.37" y1="551.44" x2="985.8" y2="551.44"/><line class="cls-7" x1="901.48" y1="595.16" x2="937.55" y2="595.16"/><line class="cls-7" x1="896.22" y1="573.86" x2="936.27" y2="573.86"/><path class="cls-7" d="M1038.12,714.58a47.51,47.51,0,1,1,47.1-64.73" transform="translate(-97 -93.29)"/><path class="cls-7" d="M1145.08,662.47s-38.25,1.11-54.78-15.76v-.52l-.25.26-.26-.26v.52c-16.53,16.87-54.78,15.76-54.78,15.76s-1.67,39.54,9.71,70.56c13.68,37.27,41.09,46.23,45.07,47.35v.13l.26-.06.25.06v-.13c4-1.12,31.39-10.08,45.07-47.35C1146.75,702,1145.08,662.47,1145.08,662.47Z" transform="translate(-97 -93.29)"/><path class="cls-7" d="M1050.67,721.58c.76,2.75,1.61,5.47,2.58,8.11,11.36,30.95,33.28,38.39,36.58,39.32v.11l.22,0,.21,0V769c3.31-.93,25.22-8.37,36.58-39.32,9.45-25.75,8.06-58.59,8.06-58.59S1104,672,1090.26,658v-.44l-.21.22-.22-.22V658c-13.72,14-44.63,13.08-44.63,13.08s-.29,6.82.29,16.69" transform="translate(-97 -93.29)"/><path class="cls-7" d="M1047,703.29c.36,2.6.79,5.25,1.29,7.92" transform="translate(-97 -93.29)"/><path class="cls-8" d="M1116.82,687.6a6.86,6.86,0,0,0-5.91-2.78H1099l-5.85,15.55h10.43l-18.42,19.37,4.06-15.85h-9.48l6-19.07h-10a6.53,6.53,0,0,0-5.1,1.95,8,8,0,0,0-1.67,6.32c.34,3.31,3.61,30,4.08,32.49.9,4.74,3.56,7.46,7.3,7.46h12.38c2,0,5.77-.84,8.75-6.45,1.84-3.48,14.56-28.88,16-32.55A7,7,0,0,0,1116.82,687.6Z" transform="translate(-97 -93.29)"/><path class="cls-7" d="M1116.82,687.6a6.86,6.86,0,0,0-5.91-2.78H1099l-5.85,15.55h10.43l-18.42,19.37,4.06-15.85h-9.48l6-19.07h-10a6.53,6.53,0,0,0-5.1,1.95,8,8,0,0,0-1.67,6.32c.34,3.31,3.61,30,4.08,32.49.9,4.74,3.56,7.46,7.3,7.46h12.38c2,0,5.77-.84,8.75-6.45,1.84-3.48,14.56-28.88,16-32.55A7,7,0,0,0,1116.82,687.6Z" transform="translate(-97 -93.29)"/><line class="cls-9" x1="985.4" y1="591.54" x2="1003.81" y2="591.54"/><text class="cls-5" transform="translate(801.25 246)">ACE IoT Device<tspan x="13.72" y="34.02">Management</tspan></text><text class="cls-5" transform="translate(1078.31 246)">ACE IoT Infrastructure<tspan x="12.89" y="34.02">Monitoring Platform</tspan></text><text class="cls-5" transform="translate(1749.02 729)">ACE IoT Dashboard Se<tspan class="cls-10" x="268.59" y="0">r</tspan><tspan x="278.41" y="0">ver</tspan></text><text class="cls-5" transform="translate(1174.5 729)">ACE IoT Database</text><polyline class="cls-11" points="869.34 305.54 869.34 370.55 1211.37 370.55 1211.37 305.54"/><line class="cls-12" x1="1040.23" y1="372.29" x2="1040.23" y2="378.29"/><line class="cls-13" x1="1040.23" y1="391.1" x2="1040.23" y2="435.95"/><line class="cls-12" x1="1040.23" y1="442.35" x2="1040.23" y2="448.35"/><polygon class="cls-14" points="1052.55 438.69 1040.1 460.47 1028.17 438.69 1052.55 438.69"/><polyline class="cls-11" points="1624.59 304.54 1624.59 370.55 1981.62 370.55 1981.62 304.54"/><line class="cls-12" x1="1802.98" y1="372.29" x2="1802.98" y2="378.29"/><line class="cls-13" x1="1802.98" y1="391.1" x2="1802.98" y2="435.95"/><line class="cls-12" x1="1802.98" y1="442.35" x2="1802.98" y2="448.35"/><polygon class="cls-14" points="1815.29 438.69 1802.84 460.47 1790.91 438.69 1815.29 438.69"/><polygon class="cls-14" points="1613.44 295.48 1625.9 273.69 1637.83 295.48 1613.44 295.48"/><polygon class="cls-14" points="1970.44 295.48 1982.9 273.69 1994.83 295.48 1970.44 295.48"/><text class="cls-5" transform="translate(1478.68 729)">ACE IoT Open API</text><line class="cls-12" x1="1079.56" y1="606.66" x2="1085.56" y2="606.66"/><line class="cls-15" x1="1096.18" y1="606.66" x2="1133.32" y2="606.66"/><line class="cls-12" x1="1138.63" y1="606.66" x2="1144.63" y2="606.66"/><polygon class="cls-14" points="1144.97 618.98 1166.75 606.53 1144.97 594.6 1144.97 618.98"/><line class="cls-12" x1="1381.56" y1="606.66" x2="1387.56" y2="606.66"/><line class="cls-15" x1="1398.18" y1="606.66" x2="1435.32" y2="606.66"/><line class="cls-12" x1="1440.63" y1="606.66" x2="1446.63" y2="606.66"/><polygon class="cls-14" points="1446.97 618.98 1468.75 606.53 1446.97 594.6 1446.97 618.98"/><line class="cls-12" x1="1701.56" y1="606.66" x2="1707.56" y2="606.66"/><line class="cls-15" x1="1718.17" y1="606.66" x2="1755.32" y2="606.66"/><line class="cls-12" x1="1760.63" y1="606.66" x2="1766.63" y2="606.66"/><polygon class="cls-14" points="1766.96 618.98 1788.75 606.53 1766.96 594.6 1766.96 618.98"/><path class="cls-7" d="M1021,277.43v3.3a9,9,0,0,1-9,9h-82a9,9,0,0,1-9-9V126.6a9,9,0,0,1,9-9h82a9,9,0,0,1,9,9v53.48" transform="translate(-97 -93.29)"/><line class="cls-7" x1="923.95" y1="118.64" x2="923.95" y2="151.39"/><line class="cls-7" x1="863.27" y1="46.83" x2="922.15" y2="46.83"/><line class="cls-7" x1="826.01" y1="46.83" x2="847.04" y2="46.83"/><line class="cls-7" x1="824.2" y1="171.22" x2="897.81" y2="171.22"/><path class="cls-16" d="M976.49,277.73a4.81,4.81,0,1,1-4.81-4.81A4.82,4.82,0,0,1,976.49,277.73Z" transform="translate(-97 -93.29)"/><path class="cls-7" d="M1045.59,169a61.91,61.91,0,0,1,11.05,5" transform="translate(-97 -93.29)"/><path class="cls-7" d="M1067.46,181.91a62.3,62.3,0,0,1,18.33,61.41" transform="translate(-97 -93.29)"/><path class="cls-9" d="M1066.79,220.43h-9.37a33.19,33.19,0,0,0-4-9.74l6.62-6.62a4.5,4.5,0,0,0,0-6.37l-4.89-4.89a4.5,4.5,0,0,0-6.37,0l-6.62,6.61a33.74,33.74,0,0,0-9.74-4V186a4.51,4.51,0,0,0-4.51-4.51H1021a4.51,4.51,0,0,0-4.51,4.51v9.36a33.66,33.66,0,0,0-9.75,4l-6.61-6.62a4.51,4.51,0,0,0-6.38,0l-4.88,4.89a4.5,4.5,0,0,0,0,6.37l6.62,6.62a33.49,33.49,0,0,0-4,9.74h-9.36a4.51,4.51,0,0,0-4.51,4.51v6.91a4.51,4.51,0,0,0,4.51,4.51h9.36a33.49,33.49,0,0,0,4,9.74l-6.62,6.62a4.5,4.5,0,0,0,0,6.37l4.88,4.89a4.51,4.51,0,0,0,6.38,0l6.61-6.62a33.66,33.66,0,0,0,9.75,4v9.36a4.51,4.51,0,0,0,4.51,4.51h6.91a4.51,4.51,0,0,0,4.51-4.51V261.4a33.49,33.49,0,0,0,9.74-4l6.62,6.62a4.5,4.5,0,0,0,6.37,0l4.89-4.89a4.5,4.5,0,0,0,0-6.37l-6.62-6.62a33.19,33.19,0,0,0,4-9.74h9.37a4.5,4.5,0,0,0,4.5-4.51v-6.91A4.5,4.5,0,0,0,1066.79,220.43Zm-42.37,26a18,18,0,1,1,18-18A18,18,0,0,1,1024.42,246.42Z" transform="translate(-97 -93.29)"/><path class="cls-7" d="M962.23,237.42A63.19,63.19,0,0,1,973.15,191" transform="translate(-97 -93.29)"/><path class="cls-17" d="M621.59,652.71a4.1,4.1,0,1,1-4.09,4.1A4.1,4.1,0,0,1,621.59,652.71Z" transform="translate(-97 -93.29)"/><path class="cls-17" d="M633.87,652.71a4.1,4.1,0,1,1-4.1,4.1A4.1,4.1,0,0,1,633.87,652.71Z" transform="translate(-97 -93.29)"/><path class="cls-18" d="M621.59,665a4.09,4.09,0,1,1-4.09,4.09A4.09,4.09,0,0,1,621.59,665Z" transform="translate(-97 -93.29)"/><path class="cls-18" d="M646.14,665a4.09,4.09,0,1,1-4.09,4.09A4.09,4.09,0,0,1,646.14,665Z" transform="translate(-97 -93.29)"/><path class="cls-17" d="M633.87,665a4.09,4.09,0,1,1-4.1,4.09A4.09,4.09,0,0,1,633.87,665Z" transform="translate(-97 -93.29)"/><path class="cls-17" d="M646.14,652.71a4.1,4.1,0,1,1-4.09,4.1A4.1,4.1,0,0,1,646.14,652.71Z" transform="translate(-97 -93.29)"/><path class="cls-18" d="M621.59,640.44a4.09,4.09,0,1,1-4.09,4.09A4.09,4.09,0,0,1,621.59,640.44Z" transform="translate(-97 -93.29)"/><path class="cls-18" d="M633.87,640.44a4.09,4.09,0,1,1-4.1,4.09A4.09,4.09,0,0,1,633.87,640.44Z" transform="translate(-97 -93.29)"/><path class="cls-18" d="M646.14,640.44a4.09,4.09,0,1,1-4.09,4.09A4.09,4.09,0,0,1,646.14,640.44Z" transform="translate(-97 -93.29)"/><path class="cls-17" d="M675,670.68a15.78,15.78,0,0,0,3.22-.33v-4.2a6.21,6.21,0,0,1-2.18.33c-1.77,0-2.42-.87-2.42-2.54V655.4h4.6v-4.19h-4.6V645h-5.07v6.23h-3.29v4.19h3.29v9C668.56,668.4,670.66,670.68,675,670.68Z" transform="translate(-97 -93.29)"/><path class="cls-17" d="M686.5,670.68c2.72,0,4.53-.91,5.43-2.32a5.74,5.74,0,0,0,.58,1.95h4.56a13.28,13.28,0,0,1-.43-3.14v-9.92c0-4.09-2.94-6.41-7.89-6.41-3.77,0-6.7,1.41-8.33,3.48l2.9,2.86a6.44,6.44,0,0,1,5-2.21c2.46,0,3.55.83,3.55,2.06,0,1.05-.73,1.77-4.64,1.77s-7.56,1.56-7.56,5.91C679.66,668.72,682.56,670.68,686.5,670.68Zm1-3.84c-2,0-2.86-.83-2.86-2.32,0-1.3,1.08-2.17,2.89-2.17,2.9,0,3.69-.18,4.31-.79v1.55C691.86,665.18,690.12,666.84,687.52,666.84Z" transform="translate(-97 -93.29)"/><path class="cls-17" d="M699.93,648.78h5.28V644h-5.28Zm.11,21.53h5.07v-19.1H700Z" transform="translate(-97 -93.29)"/><path class="cls-17" d="M708.8,670.31h5.06V644.62H708.8Z" transform="translate(-97 -93.29)"/><path class="cls-17" d="M724.4,670.68c5.57,0,8.43-2.94,8.43-6,0-2.79-1.41-4.85-6-5.68-3.26-.58-5.29-1.31-5.29-2.43s1.16-1.66,3.11-1.66a5.31,5.31,0,0,1,4.27,1.84l3.23-2.71a9.37,9.37,0,0,0-7.5-3.19c-4.88,0-7.92,2.61-7.92,5.79,0,3.48,3.18,5,6.62,5.65,2.86.51,4.45,1.05,4.45,2.28,0,1.05-1.12,1.92-3.25,1.92a4.88,4.88,0,0,1-4.49-2.43l-4.27,2C716.8,668.69,720.38,670.68,724.4,670.68Z" transform="translate(-97 -93.29)"/><path class="cls-17" d="M744.16,670.68a8.81,8.81,0,0,0,8.18-4.71l-4.05-2.06a4.28,4.28,0,0,1-4.13,2.57c-3.22,0-5-2.61-5-5.76s1.84-5.68,5-5.68a4.26,4.26,0,0,1,4,2.64l4.09-2.17c-1.38-3-4.09-4.67-8.11-4.67a9.55,9.55,0,0,0-10,9.88A9.79,9.79,0,0,0,744.16,670.68Z" transform="translate(-97 -93.29)"/><path class="cls-17" d="M760.41,670.68c2.71,0,4.52-.91,5.43-2.32a5.74,5.74,0,0,0,.58,1.95H771a12.79,12.79,0,0,1-.44-3.14v-9.92c0-4.09-2.93-6.41-7.89-6.41-3.76,0-6.69,1.41-8.32,3.48l2.89,2.86a6.46,6.46,0,0,1,5-2.21c2.46,0,3.55.83,3.55,2.06,0,1.05-.73,1.77-4.64,1.77s-7.56,1.56-7.56,5.91C753.57,668.72,756.46,670.68,760.41,670.68Zm1-3.84c-1.95,0-2.86-.83-2.86-2.32,0-1.3,1.09-2.17,2.9-2.17,2.9,0,3.69-.18,4.31-.79v1.55C765.77,665.18,764,666.84,761.42,666.84Z" transform="translate(-97 -93.29)"/><path class="cls-17" d="M773.52,670.31h5.07V644.62h-5.07Z" transform="translate(-97 -93.29)"/><path class="cls-17" d="M790.75,670.68c3.73,0,6.73-1.49,8.4-4.13l-3.84-2.46a4.91,4.91,0,0,1-4.56,2.46,4.53,4.53,0,0,1-4.78-4h14.41v-1.78c0-5-3.08-9.88-9.67-9.88-6.26,0-9.66,4.89-9.66,9.92C781.05,667.93,786.44,670.68,790.75,670.68Zm-4.6-12.16a4.64,4.64,0,0,1,4.67-3.55,4.4,4.4,0,0,1,4.53,3.55Z" transform="translate(-97 -93.29)"/><text class="cls-19" transform="translate(259.31 763.11)">VO<tspan class="cls-20" x="41.14" y="0">L</tspan><tspan x="55.96" y="0">TTRON</tspan><tspan x="3.05" y="40.8">Edge Node</tspan></text><line class="cls-7" x1="297.61" y1="503.64" x2="297.61" y2="556.46"/><path class="cls-7" d="M389.42,718.27c-16.17-4.56-28.56-30.08-28.56-60.89,0-34,15.11-61.61,33.75-61.61,16.45,0,30.16,21.5,33.14,50" transform="translate(-97 -93.29)"/><line class="cls-7" x1="243.69" y1="535.03" x2="351.87" y2="535.03"/><line class="cls-7" x1="242.53" y1="591.72" x2="289.3" y2="591.72"/><line class="cls-7" x1="235.71" y1="564.1" x2="287.65" y2="564.1"/><path class="cls-7" d="M390.93,718.88A61.61,61.61,0,1,1,452,634.94" transform="translate(-97 -93.29)"/><path class="cls-7" d="M529.62,651.31s-49.59,1.44-71-20.43v-.68l-.33.34-.33-.34v.68c-21.44,21.87-71,20.43-71,20.43s-2.17,51.28,12.59,91.49c17.74,48.33,53.28,60,58.44,61.4v.18l.33-.09.33.09v-.18c5.17-1.45,40.71-13.07,58.44-61.4C531.79,702.59,529.62,651.31,529.62,651.31Z" transform="translate(-97 -93.29)"/><path class="cls-7" d="M407.21,728c1,3.56,2.09,7.09,3.35,10.51,14.72,40.13,43.14,49.78,47.43,51v.14l.27-.07.28.07v-.14c4.29-1.21,32.7-10.86,47.43-51,12.25-33.39,10.45-76,10.45-76s-40.08,1.19-57.88-17V645l-.28.28L458,645v.56c-17.8,18.16-57.88,17-57.88,17s-.38,8.84.37,21.63" transform="translate(-97 -93.29)"/><path class="cls-7" d="M402.44,704.25c.47,3.36,1,6.8,1.68,10.27" transform="translate(-97 -93.29)"/><path class="cls-8" d="M493,683.9a8.9,8.9,0,0,0-7.66-3.6H469.9l-7.59,20.16h13.53L452,725.58,457.22,705H444.93l7.72-24.73h-13c-3.48,0-5.52,1.3-6.62,2.52-1.76,2-2.51,4.79-2.16,8.19.45,4.3,4.69,38.94,5.29,42.13,1.17,6.15,4.62,9.67,9.47,9.67h16.05c2.58,0,7.48-1.08,11.34-8.35,2.4-4.51,18.88-37.45,20.72-42.21A9.09,9.09,0,0,0,493,683.9Z" transform="translate(-97 -93.29)"/><path class="cls-7" d="M493,683.9a8.9,8.9,0,0,0-7.66-3.6H469.9l-7.59,20.16h13.53L452,725.58,457.22,705H444.93l7.72-24.73h-13c-3.48,0-5.52,1.3-6.62,2.52-1.76,2-2.51,4.79-2.16,8.19.45,4.3,4.69,38.94,5.29,42.13,1.17,6.15,4.62,9.67,9.47,9.67h16.05c2.58,0,7.48-1.08,11.34-8.35,2.4-4.51,18.88-37.45,20.72-42.21A9.09,9.09,0,0,0,493,683.9Z" transform="translate(-97 -93.29)"/><line class="cls-9" x1="351.34" y1="587.01" x2="375.22" y2="587.01"/><path class="cls-21" d="M737.3,731s-19.66.57-28.17-8.1v-.27l-.13.13-.12-.13v.27c-8.51,8.67-28.18,8.1-28.18,8.1s-.86,20.34,5,36.29c7,19.16,21.13,23.77,23.18,24.35v.07l.12,0,.13,0v-.07c2-.58,16.15-5.19,23.18-24.35C738.17,751.3,737.3,731,737.3,731Z" transform="translate(-97 -93.29)"/><path class="cls-21" d="M694.22,763.48c4.56,12.44,13.37,15.43,14.7,15.8v.05l.08,0,.09,0v-.05c1.33-.37,10.14-3.36,14.7-15.8,3.8-10.35,3.24-23.55,3.24-23.55s-12.42.37-17.94-5.26v-.17l-.09.08a.3.3,0,0,0-.08-.08v.17c-5.52,5.63-17.94,5.26-17.94,5.26s-.12,2.74.11,6.71" transform="translate(-97 -93.29)"/><line class="cls-21" x1="594.78" y1="660.37" x2="595.44" y2="663.12"/><path class="cls-14" d="M714.3,752.59a5.3,5.3,0,1,1-5.3-5.29A5.29,5.29,0,0,1,714.3,752.59Z" transform="translate(-97 -93.29)"/><line class="cls-21" x1="612" y1="671.04" x2="612" y2="658.71"/><text class="cls-2" transform="translate(880.69 1449.8)">Site Operations <tspan class="cls-22" x="374.48" y="0">T</tspan><tspan x="398.32" y="0">echnology Network</tspan></text><path class="cls-23" d="M1200.21,1041.16c.4.88.78,1.77,1.13,2.7.35-.93.74-1.85,1.16-2.74s.83-1.75,1.25-2.58l11.91-23.48a3.85,3.85,0,0,1,.66-.95,2.31,2.31,0,0,1,.76-.49,2.35,2.35,0,0,1,.94-.17h9.45v46.45H1218v-26.74c0-1.3.07-2.7.19-4.21l-12.31,23.88a4,4,0,0,1-1.53,1.7,4.32,4.32,0,0,1-2.22.57h-1.47a4.37,4.37,0,0,1-2.22-.57,3.86,3.86,0,0,1-1.53-1.7l-12.41-23.9c.1.75.15,1.49.19,2.22s.07,1.42.07,2v26.72h-9.49v-46.45h9.45a2.35,2.35,0,0,1,.94.17,2.3,2.3,0,0,1,.76.49,4.32,4.32,0,0,1,.66.95l12,23.6c.4.8.83,1.63,1.21,2.5Zm78.21-4.51a27.14,27.14,0,0,1-.61,5.77,24.11,24.11,0,0,1-1.8,5.17,22,22,0,0,1-6.75,8.15l11.76,12.85h-8.86a12.5,12.5,0,0,1-3.47-.47,5.69,5.69,0,0,1-2.76-1.87l-5.77-6.47c-.94.19-1.89.33-2.85.45s-2,.16-3,.16a26.09,26.09,0,0,1-9.9-1.82,22.26,22.26,0,0,1-12.54-12.56,26,26,0,0,1,0-18.76,22.16,22.16,0,0,1,4.91-7.54,22.68,22.68,0,0,1,7.63-5,26,26,0,0,1,9.9-1.82,25.56,25.56,0,0,1,9.87,1.84,22.81,22.81,0,0,1,7.61,5,22.42,22.42,0,0,1,4.89,7.54,24.8,24.8,0,0,1,1.72,9.35Zm-11,0a20.64,20.64,0,0,0-.89-6.21,13.08,13.08,0,0,0-2.58-4.68,11.21,11.21,0,0,0-4.09-2.93,14,14,0,0,0-5.52-1,14.42,14.42,0,0,0-5.58,1,11.11,11.11,0,0,0-4.11,2.93,13.72,13.72,0,0,0-2.58,4.68,22.21,22.21,0,0,0,0,12.45,13.08,13.08,0,0,0,2.58,4.68,11.11,11.11,0,0,0,4.11,2.93,14.69,14.69,0,0,0,5.58,1,14.22,14.22,0,0,0,5.52-1,11,11,0,0,0,4.09-2.93,13.72,13.72,0,0,0,2.58-4.68A19.8,19.8,0,0,0,1267.39,1036.65Zm45.64-23.22V1022h-12.59v37.92h-10.77V1022h-12.59v-8.55Zm41.25,0V1022h-13.06v37.92h-10.78V1022h-12.59v-8.55Z" transform="translate(-97 -93.29)"/><path class="cls-24" d="M1116.67,1017.28v7.32h.15a36.31,36.31,0,0,1,36.35,35.86h7.11A43.68,43.68,0,0,0,1116.67,1017.28Zm0,15.12v7.32h.15a21.14,21.14,0,0,1,21.14,20.74h7.11a28.49,28.49,0,0,0-28.4-28.06Zm47.91,9.12v-14.77a63.93,63.93,0,0,0-6.3-7.51,62.32,62.32,0,0,0-8.27-6.68h-15.69A51.56,51.56,0,0,1,1164.58,1041.52Z" transform="translate(-97 -93.29)"/><path class="cls-23" d="M1116.79,1039.72h-.14v18.33a2.42,2.42,0,0,0,2.41,2.41h18.88A21.13,21.13,0,0,0,1116.79,1039.72Zm0-15.12h-.14v7.8a28.48,28.48,0,0,1,28.4,28.06h8.08A36.27,36.27,0,0,0,1116.79,1024.6Zm47.79,33.48v-16.56a51.6,51.6,0,0,0-30.23-29h-15.29a2.42,2.42,0,0,0-2.41,2.41v2.33a43.63,43.63,0,0,1,43.59,43.19h1.93a2.42,2.42,0,0,0,2.41-2.41Zm-6.3-38.84a67.73,67.73,0,0,1,6.3,7.51v-11.81a2.36,2.36,0,0,0-2.37-2.38H1150A59.68,59.68,0,0,1,1158.28,1019.24Z" transform="translate(-97 -93.29)"/><path class="cls-25" d="M704.61,1063.52v-9.85m-23.12,9.85v-10.77m-43.57,11.77V1053m-38.7-9.19V1064m-37.61.57v-12.17m-44.93-.17v12.34H729.44v-10.68" transform="translate(-97 -93.29)"/><g class="cls-26"><rect class="cls-27" x="450.33" y="923.38" width="190.25" height="40.11"/></g><g class="cls-28"><polygon class="cls-29" points="428.57 925.74 428.57 925.74 428.57 925.74 428.57 925.74"/></g><g class="cls-30"><g class="cls-31"><path class="cls-32" d="M507.88,1019" transform="translate(-97 -93.29)"/></g></g><g class="cls-33"><polygon class="cls-34" points="428.57 956.35 428.57 956.35 428.57 956.35 428.57 956.35"/></g><g class="cls-35"><g class="cls-36"><polygon class="cls-37" points="437.42 941.02 437.42 941.02 437.42 941.02 437.42 941.02"/></g></g><g class="cls-38"><rect class="cls-39" x="403.74" y="923.38" width="36.08" height="35.29"/></g><path class="cls-40" d="M488,1028.31h2.5l2.19,11.83H490.5l-.31-1.93h-2l-.31,1.93h-2.19Zm1.27,3-.79,5.08H490" transform="translate(-97 -93.29)"/><path class="cls-40" d="M493,1036h2.19v1.35c0,.7,0,1.36,1.05,1.36s1.1-.7,1.1-1.75a1.58,1.58,0,0,0-.75-1.58l-2.06-1.4a2.93,2.93,0,0,1-1.4-2.76,3,3,0,0,1,.84-2.45,3.75,3.75,0,0,1,2.36-.7c1.27,0,3,.53,3,2.54v1.18H497.2v-.87c0-.57,0-1.23-1-1.23-.57,0-1,.22-1,1.18s.22,1.23.7,1.54l2.14,1.44a4,4,0,0,1,1.14,1.14,3.15,3.15,0,0,1,.31,1.84,4,4,0,0,1-.4,2.32,3.19,3.19,0,0,1-2.8,1.18c-1.84,0-3.28-.7-3.28-2.71V1036Z" transform="translate(-97 -93.29)"/><polygon class="cls-40" points="403.35 935.02 405.54 935.02 405.54 939.71 407.51 939.71 407.51 935.02 409.7 935.02 409.7 946.85 407.51 946.85 407.51 941.46 405.54 941.46 405.54 946.85 403.35 946.85 403.35 935.02"/><path class="cls-40" d="M507.88,1028.31h4.33c2.15,0,2.15,1.45,2.15,2.5v1.27c0,1.49-.48,1.79-1.53,2a1.9,1.9,0,0,1,1.62,2.06v2.41a1.81,1.81,0,0,0,.52,1.58h-2.4a2.56,2.56,0,0,1-.31-1.32v-2.54c0-.78,0-1.36-1.14-1.36h-1.05v5.22h-2.19Zm2.19,5h1.14c1,0,1-.52,1-1.14V1031c0-1-.52-1-1-1h-1.14Z" transform="translate(-97 -93.29)"/><path class="cls-40" d="M517,1028.31h2.5l2.19,11.83h-2.19l-.31-1.93h-2l-.31,1.93h-2.19Zm.44,8.1H519l-.7-5.08Z" transform="translate(-97 -93.29)"/><polygon class="cls-40" points="425.2 935.02 430.94 935.02 430.94 936.82 427.39 936.82 427.39 939.62 430.72 939.62 430.72 941.42 427.39 941.42 427.39 945.05 431.07 945.05 431.07 946.85 425.2 946.85 425.2 935.02"/><path class="cls-40" d="M744.06,1028.36a4.34,4.34,0,1,1,4.38-4.29,4.31,4.31,0,0,1-4.38,4.29m0-8.32a4,4,0,1,0,4,4,4,4,0,0,0-4-4m0,1.18a3.44,3.44,0,0,1,1.27.13,1.34,1.34,0,0,1-.27,2.58,1.21,1.21,0,0,1,.79,1.14,6.06,6.06,0,0,0,.4,1.62h-1.1a4,4,0,0,1-.31-1.18c-.17-1.14-.26-1.27-1.61-1.27v2.45h-1v-5.47Zm-.79,2.28H744c.39,0,1.18,0,1.18-.75a.68.68,0,0,0-.4-.65c-.17-.09-.34-.09-1-.09h-.61v1.49Z" transform="translate(-97 -93.29)"/><path class="cls-41" d="M880.64,1041.22c0-14.27-12.12-25.85-27.1-25.85s-27.09,11.58-27.09,25.85,12.12,25.84,27.09,25.84,27.1-11.57,27.1-25.84" transform="translate(-97 -93.29)"/><path class="cls-42" d="M856.36,1013.26a10.09,10.09,0,1,1-10.09-10.09,10.09,10.09,0,0,1,10.09,10.09" transform="translate(-97 -93.29)"/><path class="cls-42" d="M884.35,1021.83a10.09,10.09,0,1,1-10.08-10.09,10.08,10.08,0,0,1,10.08,10.09" transform="translate(-97 -93.29)"/><path class="cls-42" d="M894,1048.41a10.09,10.09,0,1,1-10.09-10.08A10.09,10.09,0,0,1,894,1048.41" transform="translate(-97 -93.29)"/><path class="cls-42" d="M872.62,1067.88a10.09,10.09,0,1,1-10.08-10.08,10.08,10.08,0,0,1,10.08,10.08" transform="translate(-97 -93.29)"/><path class="cls-42" d="M843.46,1060.88a10.09,10.09,0,1,1-10.09-10.08,10.09,10.09,0,0,1,10.09,10.08" transform="translate(-97 -93.29)"/><path class="cls-42" d="M835.32,1033.4a10.09,10.09,0,1,1-10.08-10.09,10.08,10.08,0,0,1,10.08,10.09" transform="translate(-97 -93.29)"/><polygon class="cls-43" points="758.58 942.02 757.84 939.45 756.27 942.42 750.68 923.1 753.49 924.74 752.79 922.28 748.88 920.13 746.69 924.04 747.44 926.5 748.92 923.61 754.55 942.93 751.66 941.24 752.4 943.82 756.35 945.94 758.58 942.02"/><polygon class="cls-43" points="763.43 946.76 765.15 945.15 762.02 944.92 775.15 932.76 775.15 935.81 776.8 934.28 776.72 930.02 772.5 929.63 770.85 931.2 773.9 931.39 760.77 943.59 760.81 940.42 759.05 942.06 759.16 946.33 763.43 946.76"/><polygon class="cls-43" points="741.69 967.6 743.45 965.84 740.24 965.76 753.42 952.78 753.46 955.91 755.14 954.26 755.02 949.92 750.68 949.73 749.04 951.37 752.13 951.45 738.95 964.47 738.91 961.26 737.15 962.98 737.35 967.32 741.69 967.6"/><polygon class="cls-43" points="752.09 943.67 749.59 942.89 751.19 945.78 732.3 939.99 735.16 938.51 732.77 937.76 728.86 939.88 730.94 943.82 733.32 944.57 731.79 941.75 750.64 947.54 747.71 949.02 750.21 949.81 754.12 947.66 752.09 943.67"/><polygon class="cls-43" points="767.41 969.75 766.63 967.44 765.15 970.25 759.4 952.97 762.21 954.26 761.47 952.07 757.52 950.35 755.45 954.07 756.19 956.26 757.64 953.56 763.43 970.84 760.53 969.47 761.32 971.78 765.26 973.5 767.41 969.75"/><polygon class="cls-43" points="781.37 951.64 779.02 950.94 780.47 953.79 762.96 948.71 765.62 947.15 763.43 946.52 759.75 948.75 761.67 952.58 763.86 953.25 762.45 950.47 779.97 955.51 777.23 957.12 779.57 957.82 783.21 955.51 781.37 951.64"/><polygon class="cls-44" points="760.26 961.38 765.81 933.74 778.48 933.74 784.19 950.35 796.58 933.74 809.29 933.74 803.66 961.38 795.84 961.38 799.67 941.83 785.16 961.38 779.02 961.38 772.11 941.87 768.27 961.38 760.26 961.38"/><path class="cls-44" d="M931.74,1036.41c-1.09-1.1-4.93-1.57-9.38-1.57-7,0-10.4,1.14-12.48,3.21s-3.08,9.89-3.08,10.75-.32,3,1.21,4.58,5.2,1.64,10.87,1.64,8.79-1,10.91-2.43,3.36-8.87,3.59-11.18a5.88,5.88,0,0,0-1.64-5m-5.55,8.72c-.59,2.07-.82,2.93-1.53,3.44s-4.3.86-5.08.86-4.61-.08-5.39-.86.39-6.61,1.52-7.24a12.44,12.44,0,0,1,5.16-.78c2.58,0,4.54.12,5.08.67s.83,1.84.24,3.91" transform="translate(-97 -93.29)"/><path class="cls-44" d="M958.68,1027l-2.15,11c-1-2.42-2.93-3.17-7-3.17-7,0-8.17,1.14-10.24,3.21s-3.09,9.89-3.09,10.75-.31,3,1.21,4.58,2.74,1.64,8.25,1.64c5.32,0,7.23-1.8,8.17-3l-.51,2.66h7l5.4-27.65Zm-5.08,21.59c-.71.51-4.31.86-5.13.86s-4.61-.08-5.39-.86.39-6.61,1.52-7.24a12.47,12.47,0,0,1,5.16-.78c2.59,0,4.54.12,5.13.67a2.64,2.64,0,0,1,.54,2l-.47,2.31c-.46,1.8-.7,2.58-1.36,3" transform="translate(-97 -93.29)"/><path class="cls-44" d="M991.25,1036c-.86-.75-3-1.18-7.2-1.18-5.2,0-7.35,1.06-9,3.29l2.15-11.07h-6.8l-5.47,27.61h6.92l.54-2.82c.82,1.92,2.07,3.17,7.82,3.17s7.2-.27,9-2.11,3.41-9.15,3.6-11.5-.11-4.18-1.56-5.39m-5.44,9.11c-.58,2.07-.82,2.93-1.52,3.44s-4.3.86-5.08.86-4.62-.08-5.4-.86.39-6.61,1.52-7.24a12.49,12.49,0,0,1,5.17-.78c2.58,0,4.53.12,5.08.67s.82,1.84.23,3.91" transform="translate(-97 -93.29)"/><path class="cls-44" d="M1016.23,1035.08H1016s-1.84,10.75-3.52,12.43a7.25,7.25,0,0,1-5,1.8c-.82,0-3.2-.35-4.06-1.21-1.06-1.1,1.25-11.22,1.68-13h-6.76s-2.74,12.39-2.74,14.31c0,1.52.16,4.34,4.38,5.32a15.78,15.78,0,0,0,3.59.35,13.21,13.21,0,0,0,3.13-.35,11.77,11.77,0,0,0,6.49-4.07l-.78,4.07h6.45l3.83-19.59h-6.41Z" transform="translate(-97 -93.29)"/><path class="cls-44" d="M1043.37,1041.18h6.29s.12-1.53.12-2.15a3.31,3.31,0,0,0-1.21-2.86c-1.33-1.33-8.53-1.29-9.74-1.29s-7.74-.11-9.58,1.41a7.07,7.07,0,0,0-2.85,6.1c0,3.25,2.15,4.5,6.41,4.5h7.62c1.06,0,2.39.31,2.39,1.29s-.74,2.3-3.4,2.3h-5.05c-1.21,0-3.4-.19-3.4-1.56v-.63h-6.29a8.68,8.68,0,0,0-.32,2,4.25,4.25,0,0,0,1.22,3.2c1.05,1.06,5.47,1.53,10,1.53s9.43-.2,11.07-1.88a10.4,10.4,0,0,0,2.42-6.45,3.77,3.77,0,0,0-1.09-3c-.51-.51-2.07-1.45-9-1.45-6.18,0-6.38-.58-6.38-1.17s.08-1.64,5-1.64,5.79.19,5.79,1.68" transform="translate(-97 -93.29)"/><text class="cls-45" transform="translate(1320.82 960.83)"><tspan class="cls-46">L</tspan><tspan x="21.14" y="0">o</tspan><tspan class="cls-47" x="46.47" y="0">R</tspan><tspan x="71.86" y="0">a</tspan><tspan class="cls-48" x="94.1" y="0">W</tspan><tspan x="130.51" y="0">AN</tspan></text><text class="cls-45" transform="translate(1568.28 960.83)">oBIX</text><text class="cls-5" transform="translate(1529.4 246)">Client Data Lake</text><polyline class="cls-11" points="337.72 826.95 337.72 1007.98 2096.9 1007.98"/><text class="cls-5" transform="translate(410.29 1307.12)">IoT sensors</text><text class="cls-5" transform="translate(1600.11 1307.12)">Electric <tspan class="cls-49" x="93.76" y="0">V</tspan><tspan x="108.47" y="0">ehicle</tspan><tspan x="37.04" y="34.02">Chargers</tspan></text><text class="cls-5" transform="translate(987.99 1307.12)">Solar/Storage<tspan x="-0.55" y="34.02">infrastructure</tspan></text><text class="cls-5" transform="translate(662.77 1307.12)">H<tspan class="cls-50" x="20.26" y="0">V</tspan><tspan x="35.09" y="0">AC Equipment</tspan></text><path class="cls-7" d="M609.46,1308.8a15.84,15.84,0,0,0-28.58-12.93,13.86,13.86,0,0,0-9.5.27,18.38,18.38,0,0,0-34.5,8.85,18.16,18.16,0,0,0,.31,3.24,21.86,21.86,0,0,0,21.58,38,23.61,23.61,0,0,0,44.68-10.65c0-.18,0-.36,0-.54a13.78,13.78,0,1,0,6-26.23Z" transform="translate(-97 -93.29)"/><path class="cls-7" d="M619.61,1207.76a2.54,2.54,0,0,1-2.53,2.54H528.32a2.54,2.54,0,0,1-2.53-2.54v-19.44a2.53,2.53,0,0,1,2.53-2.53h88.76a2.53,2.53,0,0,1,2.53,2.53Z" transform="translate(-97 -93.29)"/><path class="cls-9" d="M599.33,1233.54a2.54,2.54,0,0,1-2.54,2.54h-49a2.53,2.53,0,0,1-2.54-2.54l-5.07-20.71a2.53,2.53,0,0,1,2.53-2.53h59.17a2.53,2.53,0,0,1,2.54,2.53Z" transform="translate(-97 -93.29)"/><line class="cls-7" x1="500.43" y1="1108.13" x2="522.19" y2="1108.13"/><line class="cls-7" x1="486.73" y1="1108.13" x2="492.02" y2="1108.13"/><line class="cls-7" x1="459.43" y1="1124.41" x2="459.43" y2="1132.86"/><line class="cls-7" x1="470" y1="1124.41" x2="470" y2="1132.86"/><line class="cls-7" x1="480.56" y1="1124.41" x2="480.56" y2="1132.86"/><line class="cls-7" x1="491.13" y1="1124.41" x2="491.13" y2="1132.86"/><path class="cls-7" d="M548.59,1262.43a33.47,33.47,0,0,0,47.83,0" transform="translate(-97 -93.29)"/><path class="cls-7" d="M556.54,1254.37a22.14,22.14,0,0,0,31.88,0" transform="translate(-97 -93.29)"/><path class="cls-7" d="M564.1,1246.69a11.38,11.38,0,0,0,16.69.09" transform="translate(-97 -93.29)"/><path class="cls-51" d="M565.32,1325.07a8.19,8.19,0,0,1-2.16,4.36,5.68,5.68,0,0,1-4,1.43,5.87,5.87,0,0,1-5.07-2.49c-1.2-1.66-1.79-4-1.79-7.08s.59-5.25,1.79-6.85a5.94,5.94,0,0,1,5.07-2.4,5.59,5.59,0,0,1,3.81,1.28,7.82,7.82,0,0,1,2.21,3.93l-1.56.37a6.92,6.92,0,0,0-1.8-3.12,3.91,3.91,0,0,0-2.75-1,4.13,4.13,0,0,0-3.7,2,11,11,0,0,0-1.3,5.86,10.81,10.81,0,0,0,1.36,5.89,4.29,4.29,0,0,0,3.81,2.11,4,4,0,0,0,3-1.15,7.11,7.11,0,0,0,1.67-3.51Z" transform="translate(-97 -93.29)"/><path class="cls-51" d="M567.31,1321.47a10.92,10.92,0,0,1,2-6.82,6.47,6.47,0,0,1,10.31,0,13,13,0,0,1,0,13.65,6.47,6.47,0,0,1-10.31,0A11,11,0,0,1,567.31,1321.47Zm1.77,0a10.21,10.21,0,0,0,1.43,5.81,4.68,4.68,0,0,0,7.84,0,12.44,12.44,0,0,0,0-11.62,4.7,4.7,0,0,0-7.84,0A10.21,10.21,0,0,0,569.08,1321.47Z" transform="translate(-97 -93.29)"/><path class="cls-51" d="M595.46,1330.55H584.58v-1.41a16.36,16.36,0,0,1,5.61-6.76h0l.24-.17c2.41-1.8,3.61-3.52,3.61-5.14a3.5,3.5,0,0,0-1-2.62,3.6,3.6,0,0,0-2.64-1,3.79,3.79,0,0,0-2.78,1,5.32,5.32,0,0,0-1.37,3.06l-1.42-.34a7,7,0,0,1,1.93-3.85,5.8,5.8,0,0,1,7.38.07,4.77,4.77,0,0,1,1.42,3.62,6.35,6.35,0,0,1-.2,1.59,5.81,5.81,0,0,1-.61,1.43,12.24,12.24,0,0,1-3.21,2.92l-.59.42a18.19,18.19,0,0,0-3.37,2.93,8.29,8.29,0,0,0-1.54,2.81h9.38Z" transform="translate(-97 -93.29)"/><path class="cls-7" d="M1220.42,1325.41v14.27a7.39,7.39,0,0,1-7.39,7.39h-3.51" transform="translate(-97 -93.29)"/><rect class="cls-7" x="1096.43" y="1247.42" width="14.05" height="12.57" rx="1.48"/><path class="cls-7" d="M1122.91,1347.07h-5.27a7.39,7.39,0,0,1-7.4-7.39v-14.27" transform="translate(-97 -93.29)"/><rect class="cls-7" x="1027.29" y="1247.42" width="14.05" height="12.57" rx="1.48"/><path class="cls-9" d="M1114.36,1217.37a17.82,17.82,0,1,1-17.82-17.81A17.81,17.81,0,0,1,1114.36,1217.37Z" transform="translate(-97 -93.29)"/><line class="cls-7" x1="999.54" y1="1083.32" x2="999.54" y2="1095.49"/><line class="cls-7" x1="999.54" y1="1152.68" x2="999.54" y2="1164.85"/><line class="cls-7" x1="958.78" y1="1124.08" x2="970.95" y2="1124.08"/><line class="cls-7" x1="1028.14" y1="1124.08" x2="1040.31" y2="1124.08"/><line class="cls-7" x1="970.72" y1="1095.26" x2="979.32" y2="1103.86"/><line class="cls-7" x1="1019.77" y1="1144.3" x2="1028.37" y2="1152.91"/><line class="cls-7" x1="1028.37" y1="1095.26" x2="1019.77" y2="1103.86"/><line class="cls-7" x1="979.32" y1="1144.3" x2="970.72" y2="1152.91"/><path class="cls-7" d="M1109.13,1267.21c-4.05,9.25-16.64,39.93-19.22,46.58s-.37,10,8.5,10h134.95c6.66,0,8.88-4.07,6.29-9.61s-18.49-43.26-20.34-47.7-5.91-6.28-12.57-6.28h-85.41C1115.42,1260.19,1111.72,1261.29,1109.13,1267.21Z" transform="translate(-97 -93.29)"/><line class="cls-7" x1="1040.97" y1="1229.38" x2="1050.21" y2="1168.38"/><line class="cls-7" x1="1093.84" y1="1229.75" x2="1085.34" y2="1167.64"/><line class="cls-7" x1="1008.06" y1="1186.49" x2="1127.86" y2="1186.49"/><line class="cls-7" x1="999.93" y1="1206.83" x2="1136.36" y2="1206.83"/><rect class="cls-9" x="1036.29" y="1241.5" width="65.07" height="24.4" rx="1.48"/><rect class="cls-16" x="1043.99" y="1250.74" width="5.92" height="5.92"/><rect class="cls-16" x="1087.21" y="1250.74" width="5.92" height="5.92"/><polyline class="cls-7" points="1068.74 1247.77 1064.98 1254.28 1073.92 1253.23 1070.16 1260.58"/><text class="cls-5" transform="translate(1258.87 1307.12)"><tspan class="cls-52">P</tspan><tspan x="15.17" y="0">ower Meters/</tspan><tspan class="cls-52" x="167.91" y="0">P</tspan><tspan x="183.08" y="0">ower</tspan><tspan x="16.59" y="34.02">Distribution Units</tspan></text><path class="cls-7" d="M1740.46,1336.75v-114.3a9.31,9.31,0,0,1,9.31-9.32h59a9.32,9.32,0,0,1,9.32,9.32v114.3" transform="translate(-97 -93.29)"/><rect class="cls-9" x="1655.1" y="1136.3" width="54.35" height="38.21" rx="0.93"/><path class="cls-16" d="M1834,1211.63a2,2,0,0,1-2,2h0a2,2,0,0,1-2-2v-8a2,2,0,0,1,2-2h0a2,2,0,0,1,2,2Z" transform="translate(-97 -93.29)"/><path class="cls-16" d="M1843.61,1211.63a2,2,0,0,1-2,2h0a2,2,0,0,1-2-2v-8a2,2,0,0,1,2-2h0a2,2,0,0,1,2,2Z" transform="translate(-97 -93.29)"/><polygon class="cls-16" points="1688.26 1188.47 1672.59 1208.11 1681.54 1208.11 1679.06 1224.77 1694.97 1203.88 1686.52 1203.88 1688.26 1188.47"/><path class="cls-7" d="M1751,1336.67h-12a12.87,12.87,0,0,0-12.87,12.87v9.65h105.1v-9.65a12.87,12.87,0,0,0-12.87-12.87h-53.19" transform="translate(-97 -93.29)"/><path class="cls-7" d="M1845.78,1213.13v10.25a9,9,0,0,1-9,9h0a9,9,0,0,1-9-9v-10.25Z" transform="translate(-97 -93.29)"/><path class="cls-7" d="M1836.93,1233.66v78.4c0,10.25.31,16.3-5.28,16.3s-5.59-7.3-5.59-16,.25-15.44,0-21.65c-.22-5.46-2.86-8.69-7.7-9.78" transform="translate(-97 -93.29)"/><line class="cls-7" x1="1685.19" y1="1145.49" x2="1700.82" y2="1145.49"/><line class="cls-7" x1="1672.86" y1="1145.49" x2="1677.07" y2="1145.49"/><path class="cls-7" d="M1544.71,1290.41a68.78,68.78,0,1,1-68.78-68.78A68.78,68.78,0,0,1,1544.71,1290.41Z" transform="translate(-97 -93.29)"/><line class="cls-7" x1="1397.23" y1="1162.08" x2="1377.77" y2="1193.14"/><path class="cls-7" d="M1422.84,1301.16a58.29,58.29,0,0,1-1.45-12.9,54,54,0,0,1,81.3-46.57" transform="translate(-97 -93.29)"/><path class="cls-7" d="M1520.12,1258a53.69,53.69,0,0,1,9.25,30.22,54.24,54.24,0,0,1-1.55,12.9" transform="translate(-97 -93.29)"/><path class="cls-9" d="M1485.2,1286.42a10.43,10.43,0,1,1-10.43-10.43A10.44,10.44,0,0,1,1485.2,1286.42Z" transform="translate(-97 -93.29)"/><line class="cls-7" x1="1354.81" y1="1170.97" x2="1340.45" y2="1156.5"/><line class="cls-7" x1="1346.48" y1="1192.52" x2="1324.39" y2="1192.52"/><line class="cls-7" x1="1407.83" y1="1192.52" x2="1432.37" y2="1192.52"/><polygon class="cls-16" points="1383.13 1217.55 1365.8 1239.28 1375.7 1239.28 1372.95 1257.7 1390.55 1234.6 1381.2 1234.6 1383.13 1217.55"/><line class="cls-7" x1="1353.28" y1="1209.77" x2="1438.99" y2="1209.77"/><line class="cls-7" x1="1318.71" y1="1209.77" x2="1344.37" y2="1209.77"/><path class="cls-7" d="M1455.74,1285.34a17.47,17.47,0,0,1,7-14" transform="translate(-97 -93.29)"/><line class="cls-7" x1="1378.7" y1="1162.08" x2="1378.7" y2="1141.65"/><polygon class="cls-14" points="777.58 1030.91 765.13 1009.12 753.19 1030.91 777.58 1030.91"/><line class="cls-11" x1="765.63" y1="1103.61" x2="765.63" y2="1035.42"/><path class="cls-16" d="M878.6,1250.23a16.22,16.22,0,1,0-32.43,0v49.63a26.53,26.53,0,1,0,32.43,0v-22.6a2.28,2.28,0,1,0-4.55,0V1301a2.27,2.27,0,0,0,1,1.86,22,22,0,1,1-25.27,0,2.27,2.27,0,0,0,1-1.86v-50.78a11.67,11.67,0,1,1,23.33,0v1.62a2.28,2.28,0,0,0,4.55,0Z" transform="translate(-97 -93.29)"/><path class="cls-16" d="M876.33,1259.22a2.28,2.28,0,0,0-2.28,2.27v6.12a2.28,2.28,0,0,0,4.55,0v-6.12A2.27,2.27,0,0,0,876.33,1259.22Z" transform="translate(-97 -93.29)"/><path class="cls-9" d="M868.56,1251.38a6,6,0,1,0-11.95,0V1307l-2.43,1.71a14.63,14.63,0,1,0,16.81,0l-2.43-1.71Z" transform="translate(-97 -93.29)"/><path class="cls-16" d="M910.83,1242.24A68.52,68.52,0,0,0,807.75,1332a2.27,2.27,0,1,0,3.62-2.75,63.93,63.93,0,1,1,6.19,7,2.27,2.27,0,1,0-3.19,3.24,68.52,68.52,0,0,0,96.46-97.33Z" transform="translate(-97 -93.29)"/><path class="cls-16" d="M815.71,1276.9h14.85a2.27,2.27,0,0,0,0-4.54H815.71a2.27,2.27,0,1,0,0,4.54Z" transform="translate(-97 -93.29)"/><path class="cls-16" d="M815.86,1287.36h14.85a2.28,2.28,0,0,0,0-4.55H815.86a2.28,2.28,0,0,0,0,4.55Z" transform="translate(-97 -93.29)"/><path class="cls-16" d="M911.79,1270.84a7.43,7.43,0,1,0-7.43,7.43A7.43,7.43,0,0,0,911.79,1270.84Zm-10.3,0a2.88,2.88,0,1,1,2.87,2.88A2.88,2.88,0,0,1,901.49,1270.84Z" transform="translate(-97 -93.29)"/><line class="cls-11" x1="1065.24" y1="1127.31" x2="1065.24" y2="1010.12"/><polygon class="cls-14" points="1077.43 1030.91 1064.98 1009.12 1053.05 1030.91 1077.43 1030.91"/><line class="cls-11" x1="1379.18" y1="1103.61" x2="1379.18" y2="1037.43"/><polygon class="cls-14" points="1391.13 1030.91 1378.68 1009.12 1366.74 1030.91 1391.13 1030.91"/><line class="cls-11" x1="1984.33" y1="1102.31" x2="1984.33" y2="1009.12"/><polygon class="cls-14" points="1996.52 1031.91 1984.07 1010.13 1972.14 1031.91 1996.52 1031.91"/><text class="cls-5" transform="translate(1871.19 1307.12)"><tspan class="cls-53">P</tspan><tspan x="15.71" y="0">rocess Equipment</tspan></text><line class="cls-7" x1="2003.41" y1="1129.8" x2="1993.95" y2="1156.07"/><path class="cls-9" d="M2108.83,1221.1a6.44,6.44,0,1,1-6.44-6.44A6.44,6.44,0,0,1,2108.83,1221.1Z" transform="translate(-97 -93.29)"/><path class="cls-7" d="M2167.31,1359.07h-16.86v-44.31c0-12.38-5.57-12.38-10-12.38h-10.13v-16.86h13.24c16,0,23.79,9.56,23.79,29.24Z" transform="translate(-97 -93.29)"/><path class="cls-7" d="M1901.33,1177.37h7.93a3,3,0,0,1,3,3V1217a3,3,0,0,1-3,3h-7.93a3,3,0,0,1-3-3v-36.67A3,3,0,0,1,1901.33,1177.37Z"/><path class="cls-7" d="M2026.08,1261.74v-7.93a3,3,0,0,1,3-3h24.28a3,3,0,0,1,3,3v7.93" transform="translate(-97 -93.29)"/><path class="cls-7" d="M2073.15,1260.71v-8.39a3,3,0,0,1,3-3h27.75a3,3,0,0,1,3,3v8.39" transform="translate(-97 -93.29)"/><rect class="cls-7" x="1911.74" y="1168.94" width="120.91" height="59.46" rx="2.97"/><rect class="cls-9" x="1936.8" y="1182.29" width="31.22" height="33.7" rx="2.97"/><rect class="cls-16" x="1980.93" y="1182.29" width="27.75" height="6.94" rx="2.97"/><rect class="cls-16" x="1980.93" y="1194.18" width="27.75" height="6.94" rx="2.97"/><rect class="cls-16" x="1980.93" y="1206.08" width="27.75" height="6.94" rx="2.97"/><line class="cls-7" x1="1921.87" y1="1196.2" x2="1921.87" y2="1219.17"/><line class="cls-7" x1="1921.87" y1="1179.75" x2="1921.87" y2="1186.78"/><polygon class="cls-16" points="1955.24 1187.66 1945.34 1200.08 1951 1200.08 1949.43 1210.61 1959.48 1197.41 1954.14 1197.41 1955.24 1187.66"/><path class="cls-7" d="M2025.26,1336.67h-12a12.87,12.87,0,0,0-12.87,12.87v9.65h139.38v-9.65a12.87,12.87,0,0,0-12.86-12.87h-87.48" transform="translate(-97 -93.29)"/><line class="cls-7" x1="1921.64" y1="1242.24" x2="1921.64" y2="1228.95"/><line class="cls-7" x1="2024.22" y1="1228.95" x2="2024.22" y2="1242.24"/><path class="cls-9" d="M2033.5,1228v-9.4a6.44,6.44,0,0,0-6.43-6.43h-30.63v-16.86h30.63a23.32,23.32,0,0,1,23.29,23.29v9.07" transform="translate(-97 -93.29)"/><polyline class="cls-9" points="1953.36 1149.9 1953.36 1157.39 1936.51 1157.39 1936.51 1149.57"/><rect class="cls-7" x="1929.08" y="1134.98" width="30.23" height="13.87" rx="2.97"/><line class="cls-11" x1="1688.94" y1="1101.31" x2="1688.94" y2="1009.12"/><polygon class="cls-14" points="1701.13 1031.92 1688.68 1010.13 1676.75 1031.92 1701.13 1031.92"/><line class="cls-11" x1="477.45" y1="1075.31" x2="477.45" y2="1009.12"/><polygon class="cls-14" points="489.64 1031.62 477.19 1009.83 465.25 1031.62 489.64 1031.62"/><rect class="cls-54" x="797.18" y="472.76" width="1301.13" height="329.03" rx="15"/><line class="cls-55" x1="479.18" y1="606.31" x2="486.65" y2="606.31"/><line class="cls-56" x1="501.31" y1="606.31" x2="728.44" y2="606.31"/><line class="cls-55" x1="735.76" y1="606.31" x2="743.24" y2="606.31"/><polygon class="cls-14" points="740.91 618.98 762.7 606.53 740.91 594.6 740.91 618.98"/><path class="cls-7" d="M1721.74,241.81c-3.7.28-7.51.43-11.41.43-33.35,0-60.39-10.9-60.39-24.34" transform="translate(-97 -93.29)"/><path class="cls-7" d="M1770.73,153.91c0,13.44-27,24.33-60.4,24.33s-60.39-10.89-60.39-24.33,27-24.34,60.39-24.34S1770.73,140.47,1770.73,153.91Z" transform="translate(-97 -93.29)"/><path class="cls-7" d="M1728.51,209.57a144.53,144.53,0,0,1-18.18,1.12c-33.35,0-60.39-10.89-60.39-24.34" transform="translate(-97 -93.29)"/><path class="cls-7" d="M1668.91,189a51.49,51.49,0,0,1-10.3-5.14" transform="translate(-97 -93.29)"/><path class="cls-7" d="M1668.91,219.39a52,52,0,0,1-10.3-5.15" transform="translate(-97 -93.29)"/><path class="cls-7" d="M1668.91,249.73a51.49,51.49,0,0,1-10.3-5.14" transform="translate(-97 -93.29)"/><path class="cls-7" d="M1770.73,175.84" transform="translate(-97 -93.29)"/><line class="cls-7" x1="1673.73" y1="87.06" x2="1673.73" y2="58.82"/><path class="cls-9" d="M1770.69,249.45" transform="translate(-97 -93.29)"/><path class="cls-7" d="M1649.94,152.1v97.35h0c0,.2,0,.4,0,.6,0,13.44,27,24.34,60.39,24.34" transform="translate(-97 -93.29)"/><path class="cls-9" d="M1797.67,289.75V269.47a27,27,0,0,0-27-27h-20.27a27,27,0,0,0-27,27v20.28Z" transform="translate(-97 -93.29)"/><path class="cls-9" d="M1780.77,210.66a20.28,20.28,0,1,1-20.28-20.28A20.28,20.28,0,0,1,1780.77,210.66Z" transform="translate(-97 -93.29)"/><line class="cls-7" x1="1934.44" y1="106.32" x2="2034.34" y2="106.32"/><line class="cls-7" x1="1915.36" y1="106.32" x2="1925.73" y2="106.32"/><polyline class="cls-7" points="1909.05 145.08 1945.56 145.08 1945.56 106.32"/><polyline class="cls-7" points="1934.29 171.67 1934.29 159.96 1962.68 159.96 1962.68 107.22"/><line class="cls-7" x1="1978.91" y1="171.67" x2="1978.91" y2="106.77"/><polyline class="cls-7" points="2022.17 172.57 2022.17 159.96 1993.78 159.96 1993.78 106.32"/><polyline class="cls-7" points="2048.31 145.08 2010 145.08 2010 106.77"/><rect class="cls-9" x="1884.26" y="132.91" width="23.44" height="23.44"/><rect class="cls-9" x="1923.02" y="173.02" width="23.44" height="23.44"/><rect class="cls-9" x="1966.74" y="173.02" width="23.44" height="23.44"/><rect class="cls-9" x="2010.45" y="173.02" width="23.44" height="23.44"/><rect class="cls-9" x="2049.21" y="131.56" width="23.44" height="23.44"/><path class="cls-7" d="M2112.5,199.29V179a27,27,0,0,0-27-27h-20.27a27,27,0,0,0-27,27v20.27Z" transform="translate(-97 -93.29)"/><path class="cls-7" d="M2095.6,120.2a20.28,20.28,0,1,1-20.28-20.28A20.28,20.28,0,0,1,2095.6,120.2Z" transform="translate(-97 -93.29)"/><text class="cls-5" transform="translate(1860.81 246)">Third <tspan class="cls-57" x="69.84" y="0">P</tspan><tspan class="cls-58" x="84.75" y="0">a</tspan><tspan class="cls-10" x="98.87" y="0">r</tspan><tspan x="108.69" y="0">ty Se</tspan><tspan class="cls-10" x="166.88" y="0">r</tspan><tspan x="176.71" y="0">vices</tspan></text><path class="cls-7" d="M1408,637.77c0,12.5-25.15,22.64-56.19,22.64s-56.18-10.14-56.18-22.64,25.16-22.65,56.18-22.65S1408,625.26,1408,637.77Z" transform="translate(-97 -93.29)"/><path class="cls-7" d="M1408,668c0,12.51-25.15,22.65-56.19,22.65s-56.18-10.14-56.18-22.65" transform="translate(-97 -93.29)"/><path class="cls-7" d="M1313.24,670.45a48.14,48.14,0,0,1-9.59-4.78" transform="translate(-97 -93.29)"/><path class="cls-7" d="M1313.24,698.69a48.14,48.14,0,0,1-9.59-4.79" transform="translate(-97 -93.29)"/><path class="cls-7" d="M1313.24,726.92a48.14,48.14,0,0,1-9.59-4.79" transform="translate(-97 -93.29)"/><path class="cls-7" d="M1408,658.17" transform="translate(-97 -93.29)"/><path class="cls-7" d="M1351.77,719.67c-31,0-56.18-10.14-56.18-22.64" transform="translate(-97 -93.29)"/><line class="cls-7" x1="1310.96" y1="594.52" x2="1310.96" y2="542.8"/><path class="cls-7" d="M1407.92,726.65" transform="translate(-97 -93.29)"/><path class="cls-7" d="M1295.59,636.09v90.56h0c0,.19,0,.38,0,.57,0,12.5,25.16,22.64,56.18,22.64" transform="translate(-97 -93.29)"/><path class="cls-59" d="M1441,735.77a32.53,32.53,0,0,0-6.07-19l3.16-3.5a38.22,38.22,0,0,0-14.18-11.52l-2.3,4a34.1,34.1,0,0,0-28.19-.08l-2.38-4a38.23,38.23,0,0,0-14.2,11.47l3.14,3.51a32.61,32.61,0,0,0-6.12,19,33,33,0,0,0,15.67,28c-.4,1.46-.77,3-1.06,4.72a39,39,0,0,0,8.19,3.44c-.12-1.66-.11-6.33,3.41-9.56l14.79-.57s4.47,4.34,3.61,10.05a38.49,38.49,0,0,0,8.14-3.49,47.77,47.77,0,0,0-.94-4.8h0A32.93,32.93,0,0,0,1441,735.77Z" transform="translate(-97 -93.29)"/><path class="cls-24" d="M1414.82,761.78l-14.79.57c-3.52,3.23-3.53,7.9-3.41,9.56a38.9,38.9,0,0,0,21.81-.08C1419.29,766.12,1414.82,761.78,1414.82,761.78Z" transform="translate(-97 -93.29)"/><path class="cls-60" d="M1407.39,702.7a33.87,33.87,0,0,1,14.18,3.09l2.3-4a38.73,38.73,0,0,0-32.87,0l2.38,4A33.92,33.92,0,0,1,1407.39,702.7Z" transform="translate(-97 -93.29)"/><path class="cls-60" d="M1440.73,711.66l4.52-6.64a49.05,49.05,0,0,0-11.66-9.9l-7.71,4.48A41.68,41.68,0,0,1,1440.73,711.66Z" transform="translate(-97 -93.29)"/><path class="cls-60" d="M1374.62,711.12a41.56,41.56,0,0,1,14.24-11.42l-7.29-4.72a49.26,49.26,0,0,0-12.06,10.24Z" transform="translate(-97 -93.29)"/><path class="cls-24" d="M1398,725.11c2.6,5.48,1.24,11.56-3,13.58s-9.84-.76-12.44-6.24-1.24-11.56,3-13.59S1395.42,719.63,1398,725.11Z" transform="translate(-97 -93.29)"/><polygon class="cls-60" points="1289.52 637.06 1287.03 639.48 1288.31 642.03 1295.14 644.45 1298.84 641.96 1297.69 638.48 1289.52 637.06"/><path class="cls-24" d="M1417.12,725.11c-2.6,5.48-1.24,11.56,3,13.58s9.84-.76,12.44-6.24,1.24-11.56-3-13.59S1419.72,719.63,1417.12,725.11Z" transform="translate(-97 -93.29)"/><polygon class="cls-60" points="1331.62 637.06 1334.11 639.48 1332.83 642.03 1326.01 644.45 1322.31 641.96 1323.44 638.48 1331.62 637.06"/><path class="cls-60" d="M1410.06,732.09l-2.67-26h-2.14s-2,21-2.23,23.89-.43,6.19,3.84,8.54,25.81,14,25.81,14l1.39-1.92Z" transform="translate(-97 -93.29)"/><path class="cls-60" d="M1399,770.81l1.85-2.7a4.73,4.73,0,0,0,4.77-3.2l-9.6-3.91,2.2-5.69,9.18,3.77,9.17-3.7,2.42,5.55-9.89,3.77s.64,3.55,5,3.41l1.78,2.63a8.13,8.13,0,0,1-8.61-2.49A7.73,7.73,0,0,1,1399,770.81Z" transform="translate(-97 -93.29)"/><path class="cls-60" d="M1427.22,727.47l2.12-.58a23.69,23.69,0,0,0-15.49-13.35c.25,1,.42,1.83.53,2.43A21.51,21.51,0,0,1,1427.22,727.47Z" transform="translate(-97 -93.29)"/><path class="cls-60" d="M1385.45,726.87l2.16.51a21.35,21.35,0,0,1,10.67-10.58c.11-.9.25-1.74.4-2.52A23.59,23.59,0,0,0,1385.45,726.87Z" transform="translate(-97 -93.29)"/><path class="cls-60" d="M1373.82,735.77a32.61,32.61,0,0,1,6.12-19l-3.14-3.51a37.17,37.17,0,0,0-7.6,22.55,37.55,37.55,0,0,0,19.23,32.7c.29-1.68.66-3.26,1.06-4.72A33,33,0,0,1,1373.82,735.77Z" transform="translate(-97 -93.29)"/><path class="cls-60" d="M1445.58,735.77a37.15,37.15,0,0,0-7.53-22.46l-3.16,3.5a32.53,32.53,0,0,1,6.07,19,32.93,32.93,0,0,1-15.33,27.77,47.77,47.77,0,0,1,.94,4.8A37.53,37.53,0,0,0,1445.58,735.77Z" transform="translate(-97 -93.29)"/><path class="cls-60" d="M1387.94,772.14a40.78,40.78,0,0,1-21.85-31.47l-6.31,8.1a48.76,48.76,0,0,0,28,31.74A52.37,52.37,0,0,1,1387.94,772.14Z" transform="translate(-97 -93.29)"/><path class="cls-60" d="M1455.35,748l-6.54-7.12A40.75,40.75,0,0,1,1427,772.13a66,66,0,0,1,.12,8.38A48.76,48.76,0,0,0,1455.35,748Z" transform="translate(-97 -93.29)"/><path class="cls-60" d="M1386.09,739.23h-2.21a23.07,23.07,0,0,0,9.38,15.11c.41-.75.78-1.39,1.1-1.9A20.85,20.85,0,0,1,1386.09,739.23Z" transform="translate(-97 -93.29)"/><path class="cls-60" d="M1379.92,735.77a26.89,26.89,0,0,1,19.9-25.7,18,18,0,0,1,1.68-3.5c-14,2.68-24.6,14.75-24.6,29.2a29.59,29.59,0,0,0,13.6,24.77c.37-1,.76-2,1.14-2.88A26.53,26.53,0,0,1,1379.92,735.77Z" transform="translate(-97 -93.29)"/><path class="cls-60" d="M1407.46,776.89a42.28,42.28,0,0,1-13.14-2.08,21.57,21.57,0,0,0,4,8.86,50.72,50.72,0,0,0,18.7-.1,28,28,0,0,0,4-8.9A42.3,42.3,0,0,1,1407.46,776.89Z" transform="translate(-97 -93.29)"/><path class="cls-60" d="M1420.62,752.3c.43.58.84,1.19,1.22,1.81a23.37,23.37,0,0,0,2.75-2.41,18.84,18.84,0,0,1-2.06-1A23.09,23.09,0,0,1,1420.62,752.3Z" transform="translate(-97 -93.29)"/><path class="cls-60" d="M1430.89,739.31h-2.21c-.12.66-.27,1.32-.45,2,.42.33,1.07.86,1.81,1.53A22.78,22.78,0,0,0,1430.89,739.31Z" transform="translate(-97 -93.29)"/><path class="cls-60" d="M1423.55,757.38c.42,1,.79,1.92,1.13,2.89a30.38,30.38,0,0,0,7.28-6.89,21.94,21.94,0,0,1-3.52-.46A27.64,27.64,0,0,1,1423.55,757.38Z" transform="translate(-97 -93.29)"/><path class="cls-60" d="M1437.88,735.77c0-15.28-11.86-27.91-27.07-29.57a16.79,16.79,0,0,1,1.74,3.31c12.69,2.35,22.31,13.23,22.31,26.26a26.08,26.08,0,0,1-2,10,18.45,18.45,0,0,1,2,2.91A29.09,29.09,0,0,0,1437.88,735.77Z" transform="translate(-97 -93.29)"/><path class="cls-7" d="M1762,684.88c0-17.54-14.86-31.76-33.17-31.76a34.09,34.09,0,0,0-8.4,1,43.13,43.13,0,0,0-85.38,5.22,29.2,29.2,0,0,0-4.62-.37,28.82,28.82,0,0,0-28.82,28.82c0,13.7,9.55,25.75,22.35,28.69h107.84C1748.75,715.07,1762,701.46,1762,684.88Z" transform="translate(-97 -93.29)"/><path class="cls-7" d="M1647.91,663.12a30.39,30.39,0,0,1,30.39-30.39" transform="translate(-97 -93.29)"/><line class="cls-7" x1="1548.3" y1="609.24" x2="1635.22" y2="609.24"/><line class="cls-7" x1="1531.7" y1="609.24" x2="1540.72" y2="609.24"/><polyline class="cls-7" points="1526.21 642.96 1557.97 642.96 1557.97 609.24"/><polyline class="cls-7" points="1548.17 666.1 1548.17 655.9 1572.87 655.9 1572.87 610.02"/><line class="cls-7" x1="1586.99" y1="666.1" x2="1586.99" y2="609.63"/><polyline class="cls-7" points="1624.64 666.88 1624.64 655.9 1599.93 655.9 1599.93 609.24"/><polyline class="cls-7" points="1647.38 642.96 1614.05 642.96 1614.05 609.63"/><rect class="cls-7" x="1504.64" y="632.38" width="20.39" height="20.39"/><rect class="cls-7" x="1538.37" y="667.28" width="20.39" height="20.39"/><rect class="cls-7" x="1576.4" y="667.28" width="20.39" height="20.39"/><rect class="cls-7" x="1614.44" y="667.28" width="20.39" height="20.39"/><rect class="cls-7" x="1648.16" y="631.2" width="20.39" height="20.39"/><path class="cls-61" d="M1701,643.58a6,6,0,0,0-6,6,6.07,6.07,0,0,0,.59,2.59l-13.25,13.18a5.86,5.86,0,0,0-2.64-.62,6,6,0,1,0,6,6,5.81,5.81,0,0,0-.6-2.6l13.24-13.17a6,6,0,1,0,2.67-11.32Z" transform="translate(-97 -93.29)"/><path class="cls-62" d="M1684.81,677.77l6.73,10.92a21.45,21.45,0,0,0,2.77-2.16l-9.12-9Z" transform="translate(-97 -93.29)"/><path class="cls-62" d="M1673.48,664.51l-9-9.1a21.5,21.5,0,0,0-6.34,15.18h12.82A8.72,8.72,0,0,1,1673.48,664.51Z" transform="translate(-97 -93.29)"/><path class="cls-63" d="M1674.5,663.63l-6.66-11a21.62,21.62,0,0,0-2.82,2.21l9,9.11C1674.2,663.86,1674.34,663.74,1674.5,663.63Z" transform="translate(-97 -93.29)"/><path class="cls-64" d="M1672.18,675.18l-11,6.56a21.09,21.09,0,0,0,3.27,4.19l9.06-9.06A8.4,8.4,0,0,1,1672.18,675.18Z" transform="translate(-97 -93.29)"/><path class="cls-63" d="M1671,671.37h-12.83a21.49,21.49,0,0,0,2.66,9.7l11-6.58A8.81,8.81,0,0,1,1671,671.37Z" transform="translate(-97 -93.29)"/><path class="cls-62" d="M1682.22,662.29l9.65-9.41a21.43,21.43,0,0,0-11.44-3.76V662A9.76,9.76,0,0,1,1682.22,662.29Z" transform="translate(-97 -93.29)"/><path class="cls-62" d="M1674.08,677.4l-9.07,9.07a21.64,21.64,0,0,0,5.64,3.79l4.92-11.86A8.82,8.82,0,0,1,1674.08,677.4Z" transform="translate(-97 -93.29)"/><path class="cls-63" d="M1679.69,679.43a8.76,8.76,0,0,1-3.41-.69l-4.92,11.83a21.61,21.61,0,0,0,19.53-1.46l-6.72-10.91A8.72,8.72,0,0,1,1679.69,679.43Z" transform="translate(-97 -93.29)"/><path class="cls-64" d="M1679.65,661.92V649.11a21.48,21.48,0,0,0-11.16,3.13l6.65,11A8.77,8.77,0,0,1,1679.65,661.92Z" transform="translate(-97 -93.29)"/><path class="cls-64" d="M1688.44,670.67a8.71,8.71,0,0,1-2.67,6.3l9.1,9a21.53,21.53,0,0,0,6.39-15.33s0-.08,0-.12h-12.81Z" transform="translate(-97 -93.29)"/><path class="cls-62" d="M1697.6,658.66,1688,668a9.43,9.43,0,0,1,.37,1.77h12.84A21.48,21.48,0,0,0,1697.6,658.66Z" transform="translate(-97 -93.29)"/><path class="cls-7" d="M1825.88,523.78h107.36a4.46,4.46,0,0,1,4.46,4.46v25.39a4.45,4.45,0,0,1-4.45,4.45H1825.88a4.45,4.45,0,0,1-4.45-4.45V528.23A4.46,4.46,0,0,1,1825.88,523.78Z"/><path class="cls-7" d="M1980.57,699.48h-57.69a4.46,4.46,0,0,1-4.46-4.45V669.64a4.46,4.46,0,0,1,4.46-4.46h107.36a4.46,4.46,0,0,1,4.45,4.46v10.24" transform="translate(-97 -93.29)"/><line class="cls-7" x1="1833.45" y1="559.12" x2="1833.45" y2="564.47"/><line class="cls-7" x1="1833.45" y1="606.34" x2="1833.45" y2="612.58"/><line class="cls-7" x1="1924.92" y1="558.23" x2="1924.92" y2="564.47"/><line class="cls-7" x1="1833.16" y1="540.67" x2="1872.06" y2="540.67"/><line class="cls-7" x1="1833.16" y1="588.82" x2="1872.06" y2="588.82"/><line class="cls-7" x1="1833.16" y1="637.53" x2="1872.06" y2="637.53"/><path class="cls-16" d="M1994.6,634a4.31,4.31,0,1,1-4.31-4.31A4.31,4.31,0,0,1,1994.6,634Z" transform="translate(-97 -93.29)"/><path class="cls-16" d="M2008.86,634a4.31,4.31,0,1,1-4.31-4.31A4.31,4.31,0,0,1,2008.86,634Z" transform="translate(-97 -93.29)"/><path class="cls-16" d="M2023.11,634a4.31,4.31,0,1,1-4.31-4.31A4.31,4.31,0,0,1,2023.11,634Z" transform="translate(-97 -93.29)"/><polyline class="cls-7" points="1834.05 654.75 1834.05 671.09 1881.86 671.09"/><path class="cls-7" d="M1887.21,587h98.6a4.45,4.45,0,0,1,4.45,4.45v93.84a4.46,4.46,0,0,1-4.46,4.46h-98.6a4.46,4.46,0,0,1-4.46-4.46V591.5A4.45,4.45,0,0,1,1887.21,587Z"/><line class="cls-7" x1="1988.18" y1="606.94" x2="1884.53" y2="606.94"/><path class="cls-16" d="M1992.82,690.13a3,3,0,1,1-3-3A3,3,0,0,1,1992.82,690.13Z" transform="translate(-97 -93.29)"/><path class="cls-16" d="M2003.06,690.13a3,3,0,1,1-3-3A3,3,0,0,1,2003.06,690.13Z" transform="translate(-97 -93.29)"/><path class="cls-16" d="M2013.31,690.13a3,3,0,1,1-3-3A3,3,0,0,1,2013.31,690.13Z" transform="translate(-97 -93.29)"/><path class="cls-7" d="M1979.46,747.59h-56.58a4.46,4.46,0,0,1-4.46-4.45V717.75a4.46,4.46,0,0,1,4.46-4.46H1979" transform="translate(-97 -93.29)"/><path class="cls-65" d="M2064,740.65a28.88,28.88,0,0,0-8.28-18.23,11.67,11.67,0,0,0-.59-7.39A11.5,11.5,0,0,0,2048,717a26.14,26.14,0,0,0-6.72-2.16c-1.63-4.8-6.39-7.46-6.39-7.46a15.05,15.05,0,0,0-6.28,8.27,26.53,26.53,0,0,0-7.56,3.78,18.79,18.79,0,0,0-14.07.53,19.81,19.81,0,0,0,3.83,13.12,29,29,0,0,0-1.6,7.56,18.94,18.94,0,0,0-8.74,9.93,19.75,19.75,0,0,0,12.29,6.61,28.09,28.09,0,0,0,3.78,5.29,15.54,15.54,0,0,0,.91,10.73,16.28,16.28,0,0,0,10.46-3.15,26.36,26.36,0,0,0,8.68,1.46c.47,0,.94,0,1.41,0a15.86,15.86,0,0,0,8,4.56,16.55,16.55,0,0,0,3.74-8.21,28.35,28.35,0,0,0,6.21-6.85,12.62,12.62,0,0,0,7-2.64,13.16,13.16,0,0,0-3.86-7.18,18.84,18.84,0,0,0-2.49-11.89c-3.39-6-11.06-8.43-16.34-7.74a13.35,13.35,0,0,0-11.45,9.94,10.67,10.67,0,0,0,3.9,11.88,9.68,9.68,0,0,0,10.56.12s.26-1.32-.88-.94a7.68,7.68,0,0,1-9.17-3c-3.27-4.53.81-10.87,4.71-12.14,4.28-1.38,12.7.06,14,9.68s-9.16,17.91-19.41,15a20.29,20.29,0,0,1-14.41-19.59c0-11.5,9.76-20.82,21.81-20.82a22.37,22.37,0,0,1,14.6,5.34s6.21,5.37,8.1,13c0,0,.19,1.07.82,1.13S2064,740.65,2064,740.65Z" transform="translate(-97 -93.29)"/><rect class="cls-7" x="1102.83" y="10.78" width="210.92" height="137.91" rx="9.01"/><line class="cls-7" x1="1156.91" y1="128.86" x2="1313.75" y2="128.86"/><line class="cls-7" x1="1105.53" y1="128.86" x2="1140.99" y2="128.86"/><path class="cls-16" d="M1379.5,232.36a3.61,3.61,0,1,1-3.6-3.61A3.61,3.61,0,0,1,1379.5,232.36Z" transform="translate(-97 -93.29)"/><path class="cls-16" d="M1391.22,232.36a3.61,3.61,0,1,1-3.61-3.61A3.61,3.61,0,0,1,1391.22,232.36Z" transform="translate(-97 -93.29)"/><path class="cls-16" d="M1402.93,232.36a3.61,3.61,0,1,1-3.6-3.61A3.61,3.61,0,0,1,1402.93,232.36Z" transform="translate(-97 -93.29)"/><path class="cls-9" d="M1362.07,283a6.76,6.76,0,0,1-6.76,6.76h-99.75a6.76,6.76,0,0,1-6.76-6.76h0a6.76,6.76,0,0,1,6.76-6.76h99.75a6.75,6.75,0,0,1,6.76,6.76Z" transform="translate(-97 -93.29)"/><line class="cls-7" x1="1182.45" y1="148.69" x2="1174.04" y2="182.04"/><line class="cls-7" x1="1235.93" y1="149.59" x2="1242.84" y2="182.94"/><path class="cls-7" d="M1368.58,115.6h23.05a7.21,7.21,0,0,1,7.21,7.21V130" transform="translate(-97 -93.29)"/><line class="cls-7" x1="1254.65" y1="22.31" x2="1263.65" y2="22.31"/><path class="cls-66" d="M1291.39,163.23a31.55,31.55,0,1,1-31.55-31.55A31.56,31.56,0,0,1,1291.39,163.23Z" transform="translate(-97 -93.29)"/><path class="cls-24" d="M1250.87,183a9.07,9.07,0,0,0,17.94,0Z" transform="translate(-97 -93.29)"/><rect class="cls-24" x="1147.85" y="82.42" width="29.99" height="4.78"/><path class="cls-24" d="M1245.15,172.66h29.5s3.74-3.5,4.59-7.73l-9.79,1.93s3.08-2.93,2.63-9-5.44-9.88-4.54-16.59a12,12,0,0,0-3.17,6.07c-.54,3.54-.54,6.71-.91,6.71s.19-5.26-1.45-8.61-3-6.35-2.53-9.61a7.79,7.79,0,0,0-3.18,5.89c-.36,4.17-1,7.8-2.53,9.7,0,0,.09-6.53-3.45-8.25,0,0,.54,4.08-1.18,6.8s-4.44,11.42.36,16.68l-9.06-1.63A15.06,15.06,0,0,0,1245.15,172.66Z" transform="translate(-97 -93.29)"/><rect class="cls-67" x="1318.49" y="135.57" width="2.62" height="50.73" transform="translate(-102.36 175.93) rotate(-11.62)"/><rect class="cls-68" x="1322.08" y="131.13" width="2.62" height="54.39" transform="translate(-101.72 177.04) rotate(-11.64)"/><rect class="cls-69" x="1327.16" y="122.19" width="2.62" height="62.2" transform="translate(-100.6 177.96) rotate(-11.64)"/><rect class="cls-70" x="1331.63" y="126.43" width="2.62" height="57.09" transform="matrix(0.98, -0.2, 0.2, 0.98, -100.89, 178.49)"/><rect class="cls-71" x="1338.39" y="135.37" width="2.62" height="46.87" transform="translate(-101.5 180.09) rotate(-11.63)"/><rect class="cls-72" x="1342.15" y="132.74" width="2.62" height="48.7" transform="translate(-101.06 181.07) rotate(-11.64)"/><rect class="cls-73" x="1324.86" y="188.32" width="6.65" height="6.65" transform="translate(-108.37 178.37) rotate(-11.63)"/><rect class="cls-74" x="1334.68" y="186.3" width="6.66" height="6.65" transform="translate(-107.75 180.37) rotate(-11.63)"/><rect class="cls-75" x="1344.37" y="184.31" width="6.65" height="6.65" transform="translate(-107.15 182.26) rotate(-11.63)"/><rect class="cls-76" x="1353.97" y="180.14" width="27.87" height="6.65" transform="translate(-105.9 186.28) rotate(-11.63)"/><rect class="cls-77" x="1326.9" y="198.24" width="6.65" height="6.65" transform="translate(-110.32 179.09) rotate(-11.63)"/><rect class="cls-78" x="1336.73" y="196.22" width="6.65" height="6.65" transform="translate(-109.71 181.03) rotate(-11.63)"/><rect class="cls-79" x="1346.41" y="194.22" width="6.65" height="6.65" transform="translate(-109.11 182.98) rotate(-11.63)"/><rect class="cls-80" x="1356.01" y="190.06" width="27.87" height="6.65" transform="translate(-107.86 186.88) rotate(-11.63)"/></svg>