<?xml version="1.0" encoding="utf-8"?>
<!-- Generator: Adobe Illustrator 25.2.1, SVG Export Plug-In . SVG Version: 6.00 Build 0)  -->
<svg version="1.1" id="Layer_1" xmlns="http://www.w3.org/2000/svg" xmlns:xlink="http://www.w3.org/1999/xlink" x="0px" y="0px"
	 viewBox="0 0 1697.8 1487" style="enable-background:new 0 0 1697.8 1487;" xml:space="preserve">
<style type="text/css">
	.st0{fill:#1446A0;}
	.st1{font-family:'NewsGothicBT-Light';}
	.st2{font-size:51.0236px;}
	.st3{font-size:28.3465px;}
	.st4{fill:none;stroke:#1446A0;stroke-width:5.6693;stroke-linecap:round;stroke-linejoin:round;stroke-miterlimit:10;}
	.st5{fill:#C1D301;stroke:#1446A0;stroke-width:5.6693;stroke-linecap:round;stroke-linejoin:round;stroke-miterlimit:10;}
	.st6{fill:none;stroke:#DBDBDB;stroke-width:5.6693;stroke-linecap:square;stroke-miterlimit:10;}
	.st7{fill:none;stroke:#DBDBDB;stroke-width:5.6693;stroke-linecap:square;stroke-miterlimit:10;stroke-dasharray:12.2129,12.2129;}
	.st8{fill:#DBDBDB;}
	.st9{fill:none;stroke:#DBDBDB;stroke-width:5.6693;stroke-linecap:square;stroke-miterlimit:10;stroke-dasharray:11.9991;}
	
		.st10{fill:none;stroke:#DBDBDB;stroke-width:5.6693;stroke-linecap:square;stroke-miterlimit:10;stroke-dasharray:11.0119,11.0119;}
	.st11{fill:none;stroke:#DBDBDB;stroke-width:5.6693;stroke-linecap:round;stroke-linejoin:round;stroke-miterlimit:10;}
	.st12{fill:#141414;}
	.st13{opacity:0.2;fill:#141414;enable-background:new    ;}
	
		.st14{fill:none;stroke:#DBDBDB;stroke-width:5.6693;stroke-linecap:square;stroke-miterlimit:10;stroke-dasharray:10.7518,10.7518;}
	.st15{fill:none;stroke:#C1D301;stroke-width:5.6693;stroke-linecap:square;stroke-miterlimit:10;}
	
		.st16{fill:none;stroke:#C1D301;stroke-width:5.6693;stroke-linecap:square;stroke-miterlimit:10;stroke-dasharray:10.7519,10.7519;}
	.st17{fill:#C1D301;}
	.st18{fill:none;stroke:#1446A0;stroke-width:5.6693;stroke-linecap:square;stroke-miterlimit:10;}
	
		.st19{fill:none;stroke:#1446A0;stroke-width:5.6693;stroke-linecap:square;stroke-miterlimit:10;stroke-dasharray:10.7519,10.7519;}
	.st20{font-family:'MyriadPro-Regular';}
	.st21{font-size:24px;}
	.st22{font-size:34px;}
	.st23{fill:none;stroke:#C1D301;stroke-width:5.6693;stroke-linecap:square;stroke-miterlimit:10;stroke-dasharray:11.9991;}
	.st24{fill:none;stroke:#1446A0;stroke-width:5.6693;stroke-linecap:square;stroke-miterlimit:10;stroke-dasharray:11.9991;}
</style>
<g>
	<text transform="matrix(1 0 0 1 111.4825 105.2495)" class="st0 st1 st2">Tailscale Cloud</text>
</g>
<g>
	<text transform="matrix(1 0 0 1 162.9903 468.2515)"><tspan x="0" y="0" class="st1 st3">Regional Tailscale</tspan><tspan x="-15" y="34" class="st1 st3">Coordination Servers</tspan></text>
</g>
<g>
	<g>
		<g>
			<line class="st4" x1="244.9" y1="270.2" x2="244.9" y2="310.6"/>
			<path class="st4" d="M240.8,367.7c-13-3.7-23-24.2-23-48.9c0-27.3,12.1-49.5,27.1-49.5c13.2,0,24.2,17.3,26.6,40.1"/>
			<line class="st4" x1="201.6" y1="295.4" x2="288.5" y2="295.4"/>
			<line class="st4" x1="200.7" y1="341" x2="238.2" y2="341"/>
			<line class="st4" x1="195.2" y1="318.8" x2="236.9" y2="318.8"/>
			<path class="st4" d="M240.3,368.3c-26-1.5-44.9-23.2-44.9-49.6c0-27.3,22.2-49.5,49.5-49.5c14.6,0,27.7,6.3,36.8,16.3
				c4,4.4,9.9,12.7,12.2,25.7"/>
		</g>
	</g>
	<g>
		<g>
			<path class="st4" d="M344,332.1c0,2.4-2,4.4-4.4,4.4h-94.1c-2.4,0-4.4-2-4.4-4.4V316c0-2.4,2-4.4,4.4-4.4h94.1
				c2.4,0,4.4,2,4.4,4.4V332.1z"/>
			<path class="st0" d="M257.4,324.1c0,1.9-1.5,3.4-3.4,3.4c-1.9,0-3.4-1.5-3.4-3.4c0-1.9,1.5-3.4,3.4-3.4
				C255.9,320.6,257.4,322.2,257.4,324.1z"/>
			<line class="st4" x1="312.5" y1="324.1" x2="334.3" y2="324.1"/>
		</g>
		<g>
			<path class="st5" d="M344,357.4c0,2.4-2,4.4-4.4,4.4h-94.1c-2.4,0-4.4-2-4.4-4.4v-16.2c0-2.4,2-4.4,4.4-4.4h94.1
				c2.4,0,4.4,2,4.4,4.4V357.4z"/>
			<path class="st0" d="M257.4,349.3c0,1.9-1.5,3.4-3.4,3.4c-1.9,0-3.4-1.5-3.4-3.4c0-1.9,1.5-3.4,3.4-3.4
				C255.9,345.9,257.4,347.4,257.4,349.3z"/>
			<line class="st4" x1="312.5" y1="349.3" x2="334.3" y2="349.3"/>
		</g>
		<g>
			<path class="st4" d="M245.5,386.9c-2.4,0-4.4-2-4.4-4.4v-16.2c0-2.4,2-4.4,4.4-4.4h94.1c2.4,0,4.4,2,4.4,4.4v16.2
				c0,2.4-2,4.4-4.4,4.4"/>
			<path class="st0" d="M257.4,374.4c0,1.9-1.5,3.4-3.4,3.4c-1.9,0-3.4-1.5-3.4-3.4c0-1.9,1.5-3.4,3.4-3.4
				C255.9,370.9,257.4,372.5,257.4,374.4z"/>
			<line class="st4" x1="312.5" y1="374.4" x2="334.3" y2="374.4"/>
		</g>
		<g>
			<path class="st4" d="M311.3,387.2h28.2c2.4,0,4.4,2,4.4,4.4v27.1c0,2.4-2,4.4-4.4,4.4h-94.1c-2.4,0-4.4-2-4.4-4.4v-27.1
				c0-2.4,2-4.4,4.4-4.4h50.8"/>
		</g>
		<line class="st4" x1="275.4" y1="413" x2="330.8" y2="413"/>
		<line class="st4" x1="254.3" y1="413" x2="265.2" y2="413"/>
	</g>
</g>
<g>
	<text transform="matrix(1 0 0 1 946.9423 179.1694)" class="st0 st1 st2">ACE Cloud</text>
</g>
<g>
	<text transform="matrix(1 0 0 1 622.9843 468.2516)"><tspan x="0" y="0" class="st1 st3">ACE Cloud</tspan><tspan x="-15.5" y="34" class="st1 st3">Orchestration</tspan></text>
</g>
<g>
	<text transform="matrix(1 0 0 1 957.7628 468.2515)"><tspan x="0" y="0" class="st1 st3">ACE Cloud</tspan><tspan x="-0.5" y="34" class="st1 st3">Monitoring</tspan></text>
</g>
<g>
	<text transform="matrix(1 0 0 1 1303.0728 468.2515)"><tspan x="0" y="0" class="st1 st3">ACE Cloud</tspan><tspan x="-5.2" y="34" class="st1 st3">VOLTTRON</tspan></text>
</g>
<g>
	<g>
		<g>
			<line class="st6" x1="269.5" y1="645.4" x2="269.5" y2="639.4"/>
			<line class="st7" x1="269.5" y1="627.2" x2="269.5" y2="584.4"/>
			<line class="st6" x1="269.5" y1="578.3" x2="269.5" y2="572.3"/>
		</g>
	</g>
	<polygon class="st8" points="281.8,576 269.3,554.2 257.4,576 	"/>
</g>
<polyline class="st9" points="267.4,1017.2 267.4,1086.1 1021.4,1086.1 1021.4,788.1 "/>
<path class="st4" d="M1434,284.2c-3.6-5.2-9.7-8.1-17.2-8.1c-4.4,0-18.4,0-34.6,0l-17,45.2h30.3l-53.5,56.3l11.8-46.1h-27.6
	l17.3-55.4c-16.2,0-28.8,0-29.1,0c-7.8,0-12.4,2.9-14.8,5.6c-4,4.4-5.6,10.7-4.8,18.4c1,9.6,10.5,87.3,11.9,94.4
	c2.6,13.8,10.4,21.7,21.2,21.7h36c5.8,0,16.8-2.4,25.4-18.7c5.4-10.1,42.3-83.9,46.4-94.6C1438.2,296.5,1437.5,289.3,1434,284.2z"/>
<g>
	<g>
		<g>
			<line class="st6" x1="647.8" y1="1178.4" x2="647.8" y2="1172.4"/>
			<line class="st10" x1="647.8" y1="1161.3" x2="647.8" y2="1122.8"/>
			<line class="st6" x1="647.8" y1="1117.3" x2="647.8" y2="1111.3"/>
		</g>
	</g>
	<polygon class="st8" points="660.2,1109 647.7,1087.2 635.8,1109 	"/>
</g>
<text transform="matrix(1 0 0 1 177.317 919.0813)" class="st1 st3">HTTPS TLS 1.3</text>
<path class="st11" d="M399,913.2c0,16.6-13.4,30-30,30H173c-16.6,0-30-13.4-30-30v-6c0-16.6,13.4-30,30-30h196c16.6,0,30,13.4,30,30
	V913.2z"/>
<g>
	<path class="st12" d="M128,151.1c3.7,0,6.6,3,6.6,6.6c0,3.7-3,6.6-6.6,6.6c-3.7,0-6.6-3-6.6-6.6C121.4,154,124.4,151.1,128,151.1z"
		/>
	<path class="st12" d="M147.9,151.1c3.7,0,6.6,3,6.6,6.6c0,3.7-3,6.6-6.6,6.6s-6.6-3-6.6-6.6C141.3,154,144.3,151.1,147.9,151.1z"/>
	<path class="st13" d="M128,170.9c3.7,0,6.6,3,6.6,6.6c0,3.7-3,6.6-6.6,6.6c-3.7,0-6.6-3-6.6-6.6C121.4,173.9,124.4,170.9,128,170.9
		z"/>
	<path class="st13" d="M167.8,170.9c3.7,0,6.6,3,6.6,6.6c0,3.7-3,6.6-6.6,6.6c-3.7,0-6.6-3-6.6-6.6
		C161.2,173.9,164.2,170.9,167.8,170.9z"/>
	<path class="st12" d="M147.9,170.9c3.7,0,6.6,3,6.6,6.6c0,3.7-3,6.6-6.6,6.6s-6.6-3-6.6-6.6C141.3,173.9,144.3,170.9,147.9,170.9z"
		/>
	<path class="st12" d="M167.8,151.1c3.7,0,6.6,3,6.6,6.6c0,3.7-3,6.6-6.6,6.6c-3.7,0-6.6-3-6.6-6.6
		C161.2,154,164.2,151.1,167.8,151.1z"/>
	<path class="st13" d="M128,131.2c3.7,0,6.6,3,6.6,6.6c0,3.7-3,6.6-6.6,6.6c-3.7,0-6.6-3-6.6-6.6C121.4,134.1,124.4,131.2,128,131.2
		z"/>
	<path class="st13" d="M147.9,131.2c3.7,0,6.6,3,6.6,6.6c0,3.7-3,6.6-6.6,6.6s-6.6-3-6.6-6.6C141.3,134.1,144.3,131.2,147.9,131.2z"
		/>
	<path class="st13" d="M167.8,131.2c3.7,0,6.6,3,6.6,6.6c0,3.7-3,6.6-6.6,6.6c-3.7,0-6.6-3-6.6-6.6
		C161.2,134.1,164.2,131.2,167.8,131.2z"/>
	<path class="st12" d="M214.6,180.2c1.9,0,3.4-0.2,5.2-0.5v-6.8c-1.1,0.4-2.3,0.5-3.5,0.5c-2.9,0-3.9-1.4-3.9-4.1v-13.8h7.4v-6.8
		h-7.4v-10.1h-8.2v10.1h-5.3v6.8h5.3V170C204.2,176.5,207.6,180.2,214.6,180.2z"/>
	<path class="st12" d="M233.2,180.2c4.4,0,7.3-1.5,8.8-3.8c0.1,1,0.5,2.3,0.9,3.2h7.4c-0.4-1.4-0.7-3.6-0.7-5.1v-16.1
		c0-6.6-4.8-10.4-12.8-10.4c-6.1,0-10.9,2.3-13.5,5.6l4.7,4.6c2.1-2.3,4.8-3.6,8.1-3.6c4,0,5.7,1.3,5.7,3.3c0,1.7-1.2,2.9-7.5,2.9
		c-6.1,0-12.3,2.5-12.3,9.6C222.1,177,226.8,180.2,233.2,180.2z M234.9,173.9c-3.2,0-4.6-1.3-4.6-3.8c0-2.1,1.8-3.5,4.7-3.5
		c4.7,0,6-0.3,7-1.3v2.5C241.9,171.2,239.1,173.9,234.9,173.9z"/>
	<path class="st12" d="M255,144.7h8.6V137H255V144.7z M255.2,179.6h8.2v-31h-8.2V179.6z"/>
	<path class="st12" d="M269.4,179.6h8.2v-41.6h-8.2V179.6z"/>
	<path class="st12" d="M294.6,180.2c9,0,13.7-4.8,13.7-9.7c0-4.5-2.3-7.9-9.8-9.2c-5.3-0.9-8.6-2.1-8.6-3.9c0-1.6,1.9-2.7,5-2.7
		c2.8,0,5.2,0.9,6.9,3l5.2-4.4c-2.6-3.3-7-5.2-12.1-5.2c-7.9,0-12.8,4.2-12.8,9.4c0,5.6,5.2,8.2,10.7,9.2c4.6,0.8,7.2,1.7,7.2,3.7
		c0,1.7-1.8,3.1-5.3,3.1c-3.4,0-6-1.6-7.3-3.9l-6.9,3.3C282.3,176.9,288.1,180.2,294.6,180.2z"/>
	<path class="st12" d="M326.7,180.2c5.9,0,10.1-2.3,13.3-7.6l-6.6-3.3c-1.2,2.5-3.2,4.2-6.7,4.2c-5.2,0-8-4.2-8-9.3
		c0-5.1,3-9.2,8-9.2c3.2,0,5.3,1.7,6.5,4.3l6.6-3.5c-2.2-4.9-6.6-7.6-13.1-7.6c-10.7,0-16.2,7.9-16.2,16
		C310.4,172.9,317.1,180.2,326.7,180.2z"/>
	<path class="st12" d="M353,180.2c4.4,0,7.3-1.5,8.8-3.8c0.1,1,0.5,2.3,0.9,3.2h7.4c-0.4-1.4-0.7-3.6-0.7-5.1v-16.1
		c0-6.6-4.8-10.4-12.8-10.4c-6.1,0-10.8,2.3-13.5,5.6l4.7,4.6c2.1-2.3,4.8-3.6,8.1-3.6c4,0,5.7,1.3,5.7,3.3c0,1.7-1.2,2.9-7.5,2.9
		c-6.1,0-12.3,2.5-12.3,9.6C341.9,177,346.6,180.2,353,180.2z M354.6,173.9c-3.2,0-4.6-1.3-4.6-3.8c0-2.1,1.8-3.5,4.7-3.5
		c4.7,0,6-0.3,7-1.3v2.5C361.7,171.2,358.9,173.9,354.6,173.9z"/>
	<path class="st12" d="M374.2,179.6h8.2v-41.6h-8.2V179.6z"/>
	<path class="st12" d="M402.2,180.2c6,0,10.9-2.4,13.6-6.7l-6.2-4c-1.6,2.6-3.8,4-7.4,4c-4,0-7-2.2-7.7-6.6h23.3V164
		c0-8.2-5-16-15.7-16c-10.1,0-15.7,7.9-15.7,16.1C386.4,175.7,395.2,180.2,402.2,180.2z M394.7,160.5c1.3-3.9,4-5.7,7.6-5.7
		c4,0,6.5,2.4,7.3,5.7H394.7z"/>
</g>
<g>
	<g>
		<path class="st4" d="M236.6,830.2c15.4,14.9,30.3,19.7,33.6,20.6v0.2c0,0,0.1,0,0.3-0.1c0.2,0.1,0.3,0.1,0.3,0.1v-0.2
			c5.4-1.5,42.7-13.7,61.3-64.4c15.5-42.2,13.2-96,13.2-96s-52,1.5-74.5-21.4v-0.7c-0.1,0.1-0.2,0.2-0.3,0.4
			c-0.1-0.1-0.2-0.2-0.3-0.4v0.7c-22.5,22.9-74.5,21.4-74.5,21.4s-1.2,28.2,4,59.7"/>
		<path class="st4" d="M245.6,820.6c11.5,10.5,22.1,14,24.6,14.7v0.2c0,0,0.1,0,0.3-0.1c0.2,0,0.3,0.1,0.3,0.1v-0.2
			c4.5-1.3,34.3-11.4,49.8-53.5c12.9-35,11-79.7,11-79.7s-42.1,1.2-60.7-17.8v-0.6c-0.1,0.1-0.2,0.2-0.3,0.3
			c-0.1-0.1-0.2-0.2-0.3-0.3v0.6c-18.7,19.1-60.7,17.8-60.7,17.8s-0.4,9.3,0.4,22.7"/>
		<path class="st4" d="M210.5,737.6c0.6,7.4,2.2,11.7,2.8,15.4"/>
	</g>
	<path class="st5" d="M306.8,757.3h-8.1c-0.7-3-1.9-5.9-3.5-8.4l5.7-5.7c1.5-1.5,1.5-4,0-5.5l-4.2-4.2c-1.5-1.5-4-1.5-5.5,0
		l-5.7,5.7c-2.6-1.6-5.4-2.8-8.4-3.5v-8.1c0-2.2-1.7-3.9-3.9-3.9h-6c-2.2,0-3.9,1.7-3.9,3.9v8.1c-3,0.7-5.9,1.9-8.4,3.5l-5.7-5.7
		c-1.5-1.5-4-1.5-5.5,0l-4.2,4.2c-1.5,1.5-1.5,4,0,5.5l5.7,5.7c-1.6,2.6-2.8,5.4-3.5,8.4h-8.1c-2.2,0-3.9,1.7-3.9,3.9v6
		c0,2.2,1.7,3.9,3.9,3.9h8.1c0.7,3,1.9,5.9,3.5,8.4l-5.7,5.7c-1.5,1.5-1.5,4,0,5.5l4.2,4.2c1.5,1.5,4,1.5,5.5,0l5.7-5.7
		c2.6,1.6,5.4,2.8,8.4,3.5v8.1c0,2.2,1.7,3.9,3.9,3.9h6c2.2,0,3.9-1.7,3.9-3.9v-8.1c3-0.7,5.9-1.9,8.4-3.5l5.7,5.7
		c1.5,1.5,4,1.5,5.5,0l4.2-4.2c1.5-1.5,1.5-4,0-5.5l-5.7-5.7c1.6-2.6,2.8-5.4,3.5-8.4h8.1c2.2,0,3.9-1.7,3.9-3.9v-6
		C310.7,759.1,309,757.3,306.8,757.3z M270.2,779.8c-8.6,0-15.6-7-15.6-15.6c0-8.6,7-15.6,15.6-15.6c8.6,0,15.6,7,15.6,15.6
		C285.8,772.8,278.8,779.8,270.2,779.8z"/>
	<path class="st5" d="M227.7,786.2h-5.8c-0.5-2.2-1.4-4.2-2.5-6l4.1-4.1c1.1-1.1,1.1-2.9,0-3.9l-3-3c-1.1-1.1-2.9-1.1-3.9,0
		l-4.1,4.1c-1.8-1.1-3.9-2-6-2.5v-5.8c0-1.5-1.3-2.8-2.8-2.8h-4.3c-1.5,0-2.8,1.2-2.8,2.8v5.8c-2.2,0.5-4.2,1.4-6,2.5l-4.1-4.1
		c-1.1-1.1-2.9-1.1-3.9,0l-3,3c-1.1,1.1-1.1,2.9,0,3.9l4.1,4.1c-1.1,1.8-2,3.9-2.5,6h-5.8c-1.5,0-2.8,1.2-2.8,2.8v4.3
		c0,1.5,1.2,2.8,2.8,2.8h5.8c0.5,2.2,1.4,4.2,2.5,6l-4.1,4.1c-1.1,1.1-1.1,2.9,0,3.9l3,3c1.1,1.1,2.9,1.1,3.9,0l4.1-4.1
		c1.8,1.1,3.9,2,6,2.5v5.8c0,1.5,1.3,2.8,2.8,2.8h4.3c1.5,0,2.8-1.2,2.8-2.8v-5.8c2.2-0.5,4.2-1.4,6-2.5l4.1,4.1
		c1.1,1.1,2.9,1.1,3.9,0l3-3c1.1-1.1,1.1-2.9,0-3.9l-4.1-4.1c1.1-1.8,2-3.9,2.5-6h5.8c1.5,0,2.8-1.2,2.8-2.8V789
		C230.5,787.4,229.2,786.2,227.7,786.2z M201.4,802.3c-6.2,0-11.2-5-11.2-11.2c0-6.2,5-11.2,11.2-11.2c6.2,0,11.2,5,11.2,11.2
		C212.6,797.3,207.6,802.3,201.4,802.3z"/>
	<path class="st4" d="M224.9,731c8-13.6,22.8-22.7,39.8-22.7c6.2,0,12.1,1.2,17.5,3.4"/>
	<path class="st4" d="M238.4,811.1c-5.5,11.9-17.5,20.1-31.4,20.1c-1.3,0-2.6-0.1-3.8-0.2"/>
</g>
<polygon class="st8" points="280.2,1022 267.7,1000.2 255.8,1022 "/>
<polygon class="st8" points="1033.6,868 1021.2,846.2 1009.2,868 "/>
<g>
	<path class="st4" d="M1107,375.7c0,4.1-3.3,7.4-7.4,7.4h-158c-4.1,0-7.4-3.3-7.4-7.4v-98.2c0-4.1,3.3-7.4,7.4-7.4h158
		c4.1,0,7.4,3.3,7.4,7.4V375.7z"/>
	<line class="st4" x1="978.5" y1="366.8" x2="1107" y2="366.8"/>
	<line class="st4" x1="936.5" y1="366.8" x2="965.5" y2="366.8"/>
	<path class="st0" d="M1081.4,375.2c0,1.6-1.3,3-3,3s-3-1.3-3-3c0-1.6,1.3-3,3-3S1081.4,373.6,1081.4,375.2z"/>
	<path class="st0" d="M1091,375.2c0,1.6-1.3,3-3,3c-1.6,0-3-1.3-3-3c0-1.6,1.3-3,3-3C1089.7,372.2,1091,373.6,1091,375.2z"/>
	<path class="st0" d="M1100.6,375.2c0,1.6-1.3,3-3,3s-3-1.3-3-3c0-1.6,1.3-3,3-3S1100.6,373.6,1100.6,375.2z"/>
	<path class="st5" d="M1067.1,416.7c0,3.1-2.5,5.5-5.5,5.5h-81.7c-3.1,0-5.5-2.5-5.5-5.5l0,0c0-3.1,2.5-5.5,5.5-5.5h81.7
		C1064.7,411.1,1067.1,413.6,1067.1,416.7L1067.1,416.7z"/>
	<line class="st4" x1="999.5" y1="383.1" x2="992.6" y2="410.4"/>
	<line class="st4" x1="1043.3" y1="383.8" x2="1048.9" y2="411.1"/>
	<path class="st4" d="M1072.5,279.6h18.9c3.3,0,5.9,2.6,5.9,5.9v5.9"/>
	<line class="st4" x1="1058.6" y1="279.6" x2="1066" y2="279.6"/>
</g>
<g>
	<g>
		<path class="st4" d="M791.7,395.6c0,2.3-1.9,4.2-4.2,4.2h-90.8c-2.3,0-4.2-1.9-4.2-4.2v-56.4c0-2.3,1.9-4.2,4.2-4.2h90.8
			c2.3,0,4.2,1.9,4.2,4.2V395.6z"/>
		<line class="st4" x1="717.9" y1="388.5" x2="791.7" y2="388.5"/>
		<line class="st4" x1="693.8" y1="388.5" x2="707.4" y2="388.5"/>
		<path class="st5" d="M769,419.2c0-1.8-1.6-3.2-3.4-3.2h-46.9c-1.8,0-3.2,1.4-3.2,3.2l0,0v9.2H769V419.2z"/>
		<line class="st4" x1="729.9" y1="399.9" x2="726" y2="415.6"/>
		<line class="st4" x1="755.1" y1="400.3" x2="758.4" y2="416"/>
		<path class="st4" d="M768.9,343.4h10.8c1.9,0,3.4,1.5,3.4,3.4v3.4"/>
		<line class="st4" x1="755.9" y1="343.4" x2="760.1" y2="343.4"/>
	</g>
	<polyline class="st4" points="692.5,286.5 752.1,286.5 752.1,321.7 	"/>
	<polyline class="st4" points="678.5,407.9 611.1,407.9 611.1,370.3 	"/>
	<g>
		<path class="st4" d="M679.2,324.6c0,2.3-1.9,4.2-4.2,4.2h-90.8c-2.3,0-4.2-1.9-4.2-4.2v-56.4c0-2.3,1.9-4.2,4.2-4.2H675
			c2.3,0,4.2,1.9,4.2,4.2V324.6z"/>
		<line class="st4" x1="605.4" y1="317.5" x2="679.2" y2="317.5"/>
		<line class="st4" x1="581.3" y1="317.5" x2="594.9" y2="317.5"/>
		<path class="st5" d="M656.5,348.2c0-1.8-1.6-3.2-3.4-3.2h-46.9c-1.8,0-3.2,1.4-3.2,3.2l0,0v9.2h53.5V348.2z"/>
		<line class="st4" x1="617.4" y1="328.9" x2="613.5" y2="344.6"/>
		<line class="st4" x1="642.6" y1="329.3" x2="645.9" y2="345"/>
		<path class="st4" d="M656.4,272.4h10.8c1.9,0,3.4,1.5,3.4,3.4v3.4"/>
		<line class="st4" x1="643.4" y1="272.4" x2="647.7" y2="272.4"/>
	</g>
</g>
<g>
	<g>
		<g>
			<line class="st6" x1="685" y1="630.6" x2="685" y2="624.6"/>
			<line class="st14" x1="685" y1="613.8" x2="685" y2="554.7"/>
			<line class="st6" x1="685" y1="549.3" x2="685" y2="543.3"/>
		</g>
	</g>
	<polygon class="st8" points="697.3,543 684.9,521.2 672.9,543 	"/>
</g>
<g>
	<g>
		<g>
			<line class="st15" x1="1021" y1="630.6" x2="1021" y2="624.6"/>
			<line class="st16" x1="1021" y1="613.8" x2="1021" y2="554.7"/>
			<line class="st15" x1="1021" y1="549.3" x2="1021" y2="543.3"/>
		</g>
	</g>
	<polygon class="st17" points="1033.3,543 1020.8,521.2 1008.9,543 	"/>
</g>
<g>
	<g>
		<g>
			<line class="st18" x1="1366.4" y1="630.6" x2="1366.4" y2="624.6"/>
			<line class="st19" x1="1366.4" y1="613.8" x2="1366.4" y2="554.7"/>
			<line class="st18" x1="1366.4" y1="549.3" x2="1366.4" y2="543.3"/>
		</g>
	</g>
	<polygon class="st0" points="1378.7,543 1366.2,521.2 1354.3,543 	"/>
</g>
<g>
	<text transform="matrix(1 0 0 1 1201.189 675.0889)" class="st1 st3">CurveZMQ (ED25519 ECC)</text>
</g>
<text transform="matrix(1 0 0 1 592.2034 675.0895)" class="st1 st3">HTTPS TLS 1.3</text>
<path class="st11" d="M813.8,669.2c0,16.6-13.4,30-30,30h-196c-16.6,0-30-13.4-30-30v-6c0-16.6,13.4-30,30-30h196
	c16.6,0,30,13.4,30,30V669.2z"/>
<text transform="matrix(1 0 0 1 972.7403 675.0894)" class="st1 st3">TLS 1.3</text>
<path class="st11" d="M1148.6,669.2c0,16.6-13.4,30-30,30h-196c-16.6,0-30-13.4-30-30v-6c0-16.6,13.4-30,30-30h196
	c16.6,0,30,13.4,30,30V669.2z"/>
<path class="st11" d="M1561.4,669.2c0,16.6-13.4,30-30,30h-331c-16.6,0-30-13.4-30-30v-6c0-16.6,13.4-30,30-30h331
	c16.6,0,30,13.4,30,30V669.2z"/>
<g>
	<g>
		<path class="st11" d="M1125.8,895.8c0,0-19.7,0.6-28.2-8.1v-0.3c0,0-0.1,0.1-0.1,0.1c0,0-0.1-0.1-0.1-0.1v0.3
			c-8.5,8.7-28.2,8.1-28.2,8.1s-0.9,20.3,5,36.3c7,19.2,21.1,23.8,23.2,24.4v0.1c0,0,0.1,0,0.1,0c0.1,0,0.1,0,0.1,0v-0.1
			c2.1-0.6,16.1-5.2,23.2-24.4C1126.7,916.1,1125.8,895.8,1125.8,895.8z"/>
		<path class="st11" d="M1082.7,928.3c4.6,12.4,13.4,15.4,14.7,15.8v0c0,0,0,0,0.1,0c0.1,0,0.1,0,0.1,0v0
			c1.3-0.4,10.1-3.4,14.7-15.8c3.8-10.4,3.2-23.5,3.2-23.5s-12.4,0.4-17.9-5.3v-0.2c0,0-0.1,0.1-0.1,0.1c0,0-0.1-0.1-0.1-0.1v0.2
			c-5.5,5.6-17.9,5.3-17.9,5.3s-0.1,2.7,0.1,6.7"/>
		<line class="st11" x1="1080.3" y1="918.5" x2="1081" y2="921.3"/>
	</g>
	<path class="st8" d="M1102.8,917.4c0,2.9-2.4,5.3-5.3,5.3c-2.9,0-5.3-2.4-5.3-5.3c0-2.9,2.4-5.3,5.3-5.3
		C1100.4,912.1,1102.8,914.5,1102.8,917.4z"/>
	<line class="st11" x1="1097.5" y1="929.2" x2="1097.5" y2="916.8"/>
</g>
<text transform="matrix(1 0 0 1 1159.2196 914.6194)"><tspan x="0" y="0" class="st20 st21">TailScale Private Overlay Network</tspan><tspan x="0" y="28.8" class="st20 st21">(Noise Protocol Encrypted)</tspan></text>
<g>
	<text transform="matrix(1 0 0 1 486.5156 1431.6257)" class="st1 st22">VOLTTRON Edge Node</text>
</g>
<g>
	<g>
		<g>
			<line class="st4" x1="587.2" y1="1182.2" x2="587.2" y2="1232.6"/>
			<path class="st4" d="M582.3,1298.1c-15.4-4.4-27.3-28.7-27.3-58.1c0-32.5,14.4-58.8,32.2-58.8c15.7,0,28.8,20.5,31.6,47.7"/>
			<line class="st4" x1="535.7" y1="1212.2" x2="639" y2="1212.2"/>
			<line class="st4" x1="534.6" y1="1266.3" x2="579.3" y2="1266.3"/>
			<line class="st4" x1="528.1" y1="1239.9" x2="577.7" y2="1239.9"/>
			<path class="st4" d="M583.7,1298.6c-30.9-1.8-55.3-27.4-55.3-58.7c0-32.5,26.3-58.8,58.8-58.8c24.9,0,46.2,15.5,54.8,37.4"/>
		</g>
		<path class="st4" d="M716.1,1234.1c0,0-47.4,1.4-67.8-19.5v-0.6c-0.1,0.1-0.2,0.2-0.3,0.3c-0.1-0.1-0.2-0.2-0.3-0.3v0.6
			c-20.5,20.9-67.8,19.5-67.8,19.5s-2.1,49,12,87.4c16.9,46.2,50.9,57.2,55.8,58.6v0.2c0,0,0.1,0,0.3-0.1c0.2,0,0.3,0.1,0.3,0.1
			v-0.2c4.9-1.4,38.9-12.5,55.8-58.6C718.2,1283.1,716.1,1234.1,716.1,1234.1z"/>
		<path class="st4" d="M599.3,1307.3c0.9,3.4,2,6.8,3.2,10c14.1,38.3,41.2,47.5,45.3,48.7v0.1c0,0,0.1,0,0.3-0.1
			c0.2,0,0.3,0.1,0.3,0.1v-0.1c4.1-1.2,31.2-10.4,45.3-48.7c11.7-31.9,10-72.5,10-72.5s-38.3,1.1-55.3-16.2v-0.5
			c-0.1,0.1-0.2,0.2-0.3,0.3c-0.1-0.1-0.2-0.2-0.3-0.3v0.5c-17,17.3-55.3,16.2-55.3,16.2s-0.4,8.4,0.4,20.7"/>
		<path class="st4" d="M594.7,1284.7c0.4,3.2,1,6.5,1.6,9.8"/>
		<g>
			<path class="st17" d="M681.2,1265.2c-1.5-2.2-4.1-3.4-7.3-3.4c-1.9,0-7.8,0-14.7,0l-7.2,19.3h12.9l-22.8,24l5-19.6h-11.7
				l7.4-23.6c-6.9,0-12.3,0-12.4,0c-3.3,0-5.3,1.2-6.3,2.4c-1.7,1.9-2.4,4.6-2.1,7.8c0.4,4.1,4.5,37.2,5.1,40.2
				c1.1,5.9,4.4,9.2,9,9.2h15.3c2.5,0,7.1-1,10.8-8c2.3-4.3,18-35.8,19.8-40.3C682.9,1270.5,682.7,1267.4,681.2,1265.2z"/>
			<path class="st4" d="M681.2,1265.2c-1.5-2.2-4.1-3.4-7.3-3.4c-1.9,0-7.8,0-14.7,0l-7.2,19.3h12.9l-22.8,24l5-19.6h-11.7l7.4-23.6
				c-6.9,0-12.3,0-12.4,0c-3.3,0-5.3,1.2-6.3,2.4c-1.7,1.9-2.4,4.6-2.1,7.8c0.4,4.1,4.5,37.2,5.1,40.2c1.1,5.9,4.4,9.2,9,9.2h15.3
				c2.5,0,7.1-1,10.8-8c2.3-4.3,18-35.8,19.8-40.3C682.9,1270.5,682.7,1267.4,681.2,1265.2z"/>
		</g>
		<line class="st5" x1="638.5" y1="1261.8" x2="661.3" y2="1261.8"/>
	</g>
</g>
<path class="st11" d="M437.6,524.6c0,8.3-6.7,15-15,15h-306c-8.3,0-15-6.7-15-15v-291c0-8.3,6.7-15,15-15h306c8.3,0,15,6.7,15,15
	V524.6z"/>
<g>
	<text transform="matrix(1 0 0 1 88.8985 985.0988)" class="st1 st3">Provisioning and Control Plane</text>
</g>
<path class="st11" d="M1608.7,831.6c0,8.3-6.7,15-15,15H526.5c-8.3,0-15-6.7-15-15V233.5c0-8.3,6.7-15,15-15h1067.1
	c8.3,0,15,6.7,15,15V831.6z"/>
<polyline class="st9" points="685.1,698.9 685.1,787.4 1367.3,787.4 "/>
<line class="st23" x1="1021.1" y1="704.9" x2="1021.1" y2="787.4"/>
<line class="st24" x1="1366.5" y1="704.9" x2="1366.5" y2="787.4"/>
</svg>
